<svg xmlns="http://www.w3.org/2000/svg" width="500" height="500" viewBox="0 0 500 500" version="1.1"><path d="M 209.817 129.749 C 221.542 129.909, 240.442 129.909, 251.817 129.749 C 263.193 129.588, 253.600 129.457, 230.500 129.458 C 207.400 129.458, 198.093 129.589, 209.817 129.749 M 209.817 177.749 C 221.542 177.909, 240.442 177.909, 251.817 177.749 C 263.193 177.588, 253.600 177.457, 230.500 177.458 C 207.400 177.458, 198.093 177.589, 209.817 177.749 M 288 295.481 L 288 369.962 290.345 370.551 C 291.635 370.874, 294.448 370.959, 296.595 370.738 C 299.998 370.388, 299.825 370.315, 295.250 370.168 L 290 370 290 295.500 C 290 246.500, 289.658 221, 289 221 C 288.342 221, 288 246.494, 288 295.481 M 341.500 296.230 L 341.500 371 344.750 371 L 348 371 348 296.609 L 348 222.219 344.750 221.839 L 341.500 221.460 341.500 296.230 M 259.762 274.707 C 261.006 274.946, 262.806 274.937, 263.762 274.687 C 264.718 274.437, 263.700 274.241, 261.500 274.252 C 259.300 274.263, 258.518 274.468, 259.762 274.707" stroke="none" fill="#e65700" fill-rule="evenodd"/><path d="M 305.063 129.192 C 298.475 131.721, 291.399 138.498, 288.033 145.500 C 284.801 152.223, 284.644 163.386, 287.687 170.122 C 295.013 186.342, 313.857 193.568, 329.500 186.155 C 341.067 180.674, 347.428 170.648, 347.362 158 C 347.312 148.597, 344.885 142.790, 338.217 136.122 C 329.507 127.412, 316.681 124.731, 305.063 129.192 M 134.250 130.662 C 133.260 131.062, 133 156.086, 133 251.083 L 133 371 157.990 371 L 182.981 371 183.240 322.750 L 183.500 274.500 220.750 274.238 L 258 273.976 258 249.988 L 258 226 224.250 225.989 C 205.688 225.983, 188.813 225.699, 186.750 225.358 L 183 224.738 183 177.369 L 183 130 159.250 130.079 C 146.188 130.122, 134.938 130.385, 134.250 130.662" stroke="none" fill="#ffffff" fill-rule="evenodd"/><path d="M 183.462 177.500 C 183.463 203.900, 183.592 214.556, 183.749 201.181 C 183.907 187.805, 183.907 166.205, 183.749 153.181 C 183.591 140.156, 183.462 151.100, 183.462 177.500 M 258.431 249.500 C 258.432 262.700, 258.574 267.962, 258.747 261.193 C 258.921 254.424, 258.920 243.624, 258.746 237.193 C 258.572 230.762, 258.431 236.300, 258.431 249.500 M 183.458 275.250 C 183.195 275.938, 183.101 297.650, 183.250 323.500 L 183.520 370.500 183.760 322.816 L 184 275.133 186.750 274.716 L 189.500 274.300 186.719 274.150 C 185.189 274.067, 183.722 274.563, 183.458 275.250" stroke="none" fill="#fff6f0" fill-rule="evenodd"/><path d="M 0 250.002 L 0 500.004 250.250 499.752 L 500.500 499.500 500.752 249.750 L 501.004 0 250.502 0 L 0 0 0 250.002 M 0.492 250.500 C 0.492 388, 0.608 444.101, 0.750 375.170 C 0.892 306.238, 0.892 193.738, 0.750 125.170 C 0.608 56.601, 0.492 113, 0.492 250.500 M 305.581 127.824 C 299.033 129.997, 290.840 137.583, 287.360 144.697 C 281.696 156.274, 284.506 171.671, 293.959 180.844 C 300.830 187.512, 306.006 189.500, 316.500 189.500 C 327.003 189.500, 332.692 187.308, 339.275 180.725 C 348.531 171.469, 351.239 156.141, 345.640 144.697 C 338.306 129.707, 321.384 122.579, 305.581 127.824 M 132 250 L 132 371 160.500 371 L 189 371 189 323 L 189 275 227.500 275 L 266 275 266 250 L 266 225 227.500 225 L 189 225 189 201.500 L 189 178 231 178 L 273 178 273 153.500 L 273 129 202.500 129 L 132 129 132 250 M 289.250 220.662 C 288.266 221.059, 288 237.086, 288 296.083 L 288 371 318.500 371 L 349 371 349 296.139 L 349 221.279 343.750 220.648 C 337.603 219.910, 291.085 219.922, 289.250 220.662" stroke="none" fill="#000000" fill-rule="evenodd"/><path d="M 0 250.002 L 0 500.004 250.250 499.752 L 500.500 499.500 500.752 249.750 L 501.004 0 250.502 0 L 0 0 0 250.002 M 0.492 250.500 C 0.492 388, 0.608 444.101, 0.750 375.170 C 0.892 306.238, 0.892 193.738, 0.750 125.170 C 0.608 56.601, 0.492 113, 0.492 250.500 M 305.581 127.824 C 299.033 129.997, 290.840 137.583, 287.360 144.697 C 281.696 156.274, 284.506 171.671, 293.959 180.844 C 300.830 187.512, 306.006 189.500, 316.500 189.500 C 327.003 189.500, 332.692 187.308, 339.275 180.725 C 348.531 171.469, 351.239 156.141, 345.640 144.697 C 338.306 129.707, 321.384 122.579, 305.581 127.824 M 132 250 L 132 371 160.500 371 L 189 371 189 323 L 189 275 227.500 275 L 266 275 266 250 L 266 225 227.500 225 L 189 225 189 201.500 L 189 178 231 178 L 273 178 273 153.500 L 273 129 202.500 129 L 132 129 132 250 M 289.250 220.662 C 288.266 221.059, 288 237.086, 288 296.083 L 288 371 318.500 371 L 349 371 349 296.139 L 349 221.279 343.750 220.648 C 337.603 219.910, 291.085 219.922, 289.250 220.662" stroke="none" fill="#000000" fill-rule="evenodd"/><path d="M 305.063 129.192 C 298.475 131.721, 291.399 138.498, 288.033 145.500 C 284.801 152.223, 284.644 163.386, 287.687 170.122 C 295.013 186.342, 313.857 193.568, 329.500 186.155 C 341.067 180.674, 347.428 170.648, 347.362 158 C 347.312 148.597, 344.885 142.790, 338.217 136.122 C 329.507 127.412, 316.681 124.731, 305.063 129.192 M 134.250 130.662 C 133.260 131.062, 133 156.086, 133 251.083 L 133 371 157.990 371 L 182.981 371 183.240 322.750 L 183.500 274.500 220.750 274.238 L 258 273.976 258 249.988 L 258 226 224.250 225.989 C 205.688 225.983, 188.813 225.699, 186.750 225.358 L 183 224.738 183 177.369 L 183 130 159.250 130.079 C 146.188 130.122, 134.938 130.385, 134.250 130.662" stroke="none" fill="#ffffff" fill-rule="evenodd"/><path d="M 189 153.500 L 189 177 230.500 177 L 272 177 272 153.500 L 272 130 230.500 130 L 189 130 189 153.500 M 290 295.387 L 290 369.808 300.250 370.469 C 305.887 370.832, 317.475 370.988, 326 370.815 L 341.500 370.500 341.500 296 L 341.500 221.500 315.750 221.233 L 290 220.966 290 295.387" stroke="none" fill="#ff6708" fill-rule="evenodd"/><path d="M 149.195 129.746 C 155.077 129.922, 164.977 129.923, 171.195 129.747 C 177.413 129.571, 172.600 129.427, 160.500 129.426 C 148.400 129.425, 143.313 129.569, 149.195 129.746 M 132.461 131.250 C 132.199 131.938, 132.101 186.050, 132.243 251.500 L 132.500 370.500 133 250.250 C 133.275 184.112, 133.373 130, 133.219 130 C 133.064 130, 132.723 130.563, 132.461 131.250 M 184 177.500 L 184 225 186.500 225 L 189 225 189 177.500 L 189 130 186.500 130 L 184 130 184 177.500 M 258.785 250.001 L 258.500 274.002 262.250 274.001 L 266 274 266 250 L 266 226 262.535 226 L 259.069 226 258.785 250.001 M 183.769 323.043 L 183.500 371.085 186 370.793 L 188.500 370.500 188.760 322.750 L 189.019 275 186.529 275 L 184.038 275 183.769 323.043" stroke="none" fill="#fff0e7" fill-rule="evenodd"/><path d="M 209.817 129.749 C 221.542 129.909, 240.442 129.909, 251.817 129.749 C 263.193 129.588, 253.600 129.457, 230.500 129.458 C 207.400 129.458, 198.093 129.589, 209.817 129.749 M 209.817 177.749 C 221.542 177.909, 240.442 177.909, 251.817 177.749 C 263.193 177.588, 253.600 177.457, 230.500 177.458 C 207.400 177.458, 198.093 177.589, 209.817 177.749 M 288 295.481 L 288 369.962 290.345 370.551 C 291.635 370.874, 294.448 370.959, 296.595 370.738 C 299.998 370.388, 299.825 370.315, 295.250 370.168 L 290 370 290 295.500 C 290 246.500, 289.658 221, 289 221 C 288.342 221, 288 246.494, 288 295.481 M 341.500 296.230 L 341.500 371 344.750 371 L 348 371 348 296.609 L 348 222.219 344.750 221.839 L 341.500 221.460 341.500 296.230 M 259.762 274.707 C 261.006 274.946, 262.806 274.937, 263.762 274.687 C 264.718 274.437, 263.700 274.241, 261.500 274.252 C 259.300 274.263, 258.518 274.468, 259.762 274.707" stroke="none" fill="#e65700" fill-rule="evenodd"/><path d="M 0 250.002 L 0 500.004 250.250 499.752 L 500.500 499.500 500.752 249.750 L 501.004 0 250.502 0 L 0 0 0 250.002 M 0.492 250.500 C 0.492 388, 0.608 444.101, 0.750 375.170 C 0.892 306.238, 0.892 193.738, 0.750 125.170 C 0.608 56.601, 0.492 113, 0.492 250.500 M 305.581 127.824 C 299.033 129.997, 290.840 137.583, 287.360 144.697 C 281.696 156.274, 284.506 171.671, 293.959 180.844 C 300.830 187.512, 306.006 189.500, 316.500 189.500 C 327.003 189.500, 332.692 187.308, 339.275 180.725 C 348.531 171.469, 351.239 156.141, 345.640 144.697 C 338.306 129.707, 321.384 122.579, 305.581 127.824 M 132 250 L 132 371 160.500 371 L 189 371 189 323 L 189 275 227.500 275 L 266 275 266 250 L 266 225 227.500 225 L 189 225 189 201.500 L 189 178 231 178 L 273 178 273 153.500 L 273 129 202.500 129 L 132 129 132 250 M 289.250 220.662 C 288.266 221.059, 288 237.086, 288 296.083 L 288 371 318.500 371 L 349 371 349 296.139 L 349 221.279 343.750 220.648 C 337.603 219.910, 291.085 219.922, 289.250 220.662" stroke="none" fill="#000000" fill-rule="evenodd"/><path d="M 132.629 129.791 C 132.360 130.226, 133.684 130.402, 135.570 130.182 C 137.457 129.961, 139 129.605, 139 129.391 C 139 128.638, 133.113 129.008, 132.629 129.791 M 183.762 129.707 C 185.006 129.946, 186.806 129.937, 187.762 129.687 C 188.718 129.437, 187.700 129.241, 185.500 129.252 C 183.300 129.263, 182.518 129.468, 183.762 129.707 M 314.762 189.707 C 316.006 189.946, 317.806 189.937, 318.762 189.687 C 319.718 189.437, 318.700 189.241, 316.500 189.252 C 314.300 189.263, 313.518 189.468, 314.762 189.707 M 207.684 225.748 C 218.235 225.910, 235.785 225.911, 246.684 225.749 C 257.583 225.587, 248.950 225.455, 227.500 225.455 C 206.050 225.454, 197.133 225.587, 207.684 225.748 M 205.685 274.748 C 215.138 274.912, 230.888 274.913, 240.685 274.749 C 250.483 274.585, 242.750 274.451, 223.500 274.450 C 204.250 274.450, 196.233 274.584, 205.685 274.748" stroke="none" fill="#fbbc96" fill-rule="evenodd"/><path d="M 272.434 153.500 C 272.433 167.250, 272.574 173.014, 272.747 166.308 C 272.919 159.603, 272.920 148.353, 272.748 141.308 C 272.576 134.264, 272.434 139.750, 272.434 153.500 M 284.232 158 C 284.232 159.925, 284.438 160.713, 284.689 159.750 C 284.941 158.787, 284.941 157.213, 284.689 156.250 C 284.438 155.287, 284.232 156.075, 284.232 158 M 348.232 158 C 348.232 159.925, 348.438 160.713, 348.689 159.750 C 348.941 158.787, 348.941 157.213, 348.689 156.250 C 348.438 155.287, 348.232 156.075, 348.232 158 M 318.500 221.042 C 334.450 221.401, 347.610 221.763, 347.744 221.847 C 347.878 221.931, 348.106 255.637, 348.250 296.750 L 348.513 371.500 348.756 296.389 L 349 221.279 343.750 220.648 C 340.863 220.301, 327.475 220.101, 314 220.204 L 289.500 220.390 318.500 221.042" stroke="none" fill="#040404" fill-rule="evenodd"/></svg>