<?xml version="1.0" encoding="UTF-8"?>
<svg version="1.1" xmlns="http://www.w3.org/2000/svg" width="500" height="500">
<path d="M0 0 C3.99084174 1.72295376 5.78844381 4.61919886 7.875 8.375 C11.4400482 19.7959628 9.37156572 36.25686857 4 47 C3.61552807 52.09425307 3.97648087 54.88231656 7 59 C9.55427245 60.86965279 9.55427245 60.86965279 12.4375 62.4375 C16.82735656 65.13761019 19.9410598 67.09776142 22 72 C22.42667501 75.81421602 22.74436181 79.51127639 21 83 C21.83402344 83.09796875 22.66804687 83.1959375 23.52734375 83.296875 C32.0171784 84.42496299 38.85590699 86.23727133 46 91 C46 91.66 46 92.32 46 93 C46.66 93 47.32 93 48 93 C48.8795733 96.35837079 49.09700459 98.61198162 48.25 102 C43.15709602 108.79053864 33.66864673 111.78106187 26 115 C26.34933594 115.50789063 26.69867188 116.01578125 27.05859375 116.5390625 C32 124.01416431 32 124.01416431 32 129 C30.3741652 132.67952087 28.52020716 135.05462236 25 137 C18.43593243 139.0786214 12.31242016 139.16187626 5.49707031 138.92651367 C1.7273226 138.83040241 0.23127263 138.84581825 -3 141 C-2.44570313 142.01320313 -1.89140625 143.02640625 -1.3203125 144.0703125 C-0.58828998 145.4217387 0.14346679 146.77330887 0.875 148.125 C1.23980469 148.79015625 1.60460937 149.4553125 1.98046875 150.140625 C5.41222867 156.50497977 7.28174676 161.7756258 7.25 169.125 C7.25773437 170.92324219 7.25773437 170.92324219 7.265625 172.7578125 C7.0177204 175.78370687 6.59019672 177.46325761 5 180 C4.34 180 3.68 180 3 180 C3 180.66 3 181.32 3 182 C-6.99929864 186.87494151 -13.39628824 187.46487483 -24 184 C-25.58341914 183.41689962 -27.16675894 182.83358373 -28.75 182.25 C-32.96649115 180.88208308 -35.74779688 180.23493456 -40 182 C-41.80671379 184.63238643 -43.1973947 187.33477259 -44.60546875 190.19921875 C-47.02659203 195.06181088 -49.49910603 198.10523629 -54.25 200.9375 C-59.61630428 202.45795288 -63.97538519 202.52682091 -69.03515625 199.97265625 C-75.0826953 195.82474179 -79.79893993 189.95150176 -84 184 C-84 183.34 -84 182.68 -84 182 C-84.66 182 -85.32 182 -86 182 C-87.2265625 180.71484375 -87.2265625 180.71484375 -88.625 178.9375 C-90.89709405 176.17219529 -93.231152 173.88993888 -96 171.625 C-101.65614396 166.76136757 -106.00507447 161.52849399 -106.875 153.9375 C-106.91625 152.638125 -106.9575 151.33875 -107 150 C-108.010625 150.165 -109.02125 150.33 -110.0625 150.5 C-121.27132987 151.85381959 -133.26840294 152.48773138 -143 146 C-143 145.34 -143 144.68 -143 144 C-143.66 144 -144.32 144 -145 144 C-148.0296039 137.8145587 -149.09322015 132.88673091 -146.9375 126.125 C-141.25011735 112.64668222 -128.37982421 104.95829157 -115.49609375 99.28125 C-110.14820296 97.32135259 -104.69256325 96.00440324 -99.140625 94.76171875 C-96.15179554 94.32530095 -96.15179554 94.32530095 -95 93 C-96.03898437 92.24976563 -97.07796875 91.49953125 -98.1484375 90.7265625 C-125.55393528 70.71781811 -125.55393528 70.71781811 -129.625 54.875 C-130.41401291 49.7464161 -129.09457603 45.66212083 -127 41 C-126.34 41 -125.68 41 -125 41 C-125 40.34 -125 39.68 -125 39 C-116.59954489 33.99203638 -110.2000266 32.9440161 -100.5 35 C-88.07664323 38.33691676 -75.36868928 45.4365383 -65 53 C-65 53.66 -65 54.32 -65 55 C-64.401875 55.268125 -63.80375 55.53625 -63.1875 55.8125 C-61 57 -61 57 -59.4375 58.625 C-57.97021721 60.34561132 -57.97021721 60.34561132 -55 60 C-54.70867187 59.31599121 -54.41734375 58.63198242 -54.1171875 57.92724609 C-48.68799806 45.23566212 -43.32347261 32.73014667 -36 21 C-35.34 21 -34.68 21 -34 21 C-33.731875 20.41863281 -33.46375 19.83726562 -33.1875 19.23828125 C-26.8066584 7.21123443 -13.68938305 -1.88477013 0 0 Z " fill="#F1A794" transform="translate(287,137)"/>
<path d="M0 0 C3.75 -0.375 3.75 -0.375 7 0 C7 4 7 4 5 7 C2.43807158 8.14024674 -0.05134156 9.13306993 -2.6875 10.0625 C-3.38294922 10.31837891 -4.07839844 10.57425781 -4.79492188 10.83789062 C-8.05665317 12.02259041 -11.29934537 13.08479311 -14.640625 14.03125 C-21.19625347 15.9217103 -27.56213997 18.68424298 -33.625 21.8125 C-36 23 -36 23 -38 23 C-38.226875 23.5775 -38.45375 24.155 -38.6875 24.75 C-40 27 -40 27 -42.25 28.75 C-44.78670268 30.82548401 -45.85115653 32.24680363 -47.5625 34.9375 C-50.86281046 39.56137247 -54.85663885 41.02611192 -60.09765625 42.89453125 C-63.01717847 44.00654308 -65.47311917 45.159318 -68 47 C-68 47.99 -68 48.98 -68 50 C-58.68491782 50.48955176 -51.47947021 49.9127032 -43 46 C-41.89914063 45.53722656 -40.79828125 45.07445312 -39.6640625 44.59765625 C-30.66297355 40.53425075 -24.34052954 35.26275132 -17.3984375 28.37011719 C-14.39940281 25.43181714 -11.17982231 22.73856943 -8 20 C-7.37351562 19.44441406 -6.74703125 18.88882813 -6.1015625 18.31640625 C-5.49054688 17.77886719 -4.87953125 17.24132812 -4.25 16.6875 C-3.45335937 15.98173828 -3.45335937 15.98173828 -2.640625 15.26171875 C1.22197684 12.291194 4.1885935 11.70561861 9.0625 11.6875 C10.10535156 11.67074219 11.14820313 11.65398437 12.22265625 11.63671875 C15 12 15 12 16.859375 13.3515625 C18.42428135 15.61317374 18.21766728 17.31543686 18 20 C21.09262767 21.54631384 24.3670891 21.39060716 27.78515625 21.62109375 C28.88150391 21.80865234 28.88150391 21.80865234 30 22 C31.60725635 25.21451269 31.05748185 28.43612536 31 32 C30.34 32 29.68 32 29 32 C29 32.66 29 33.32 29 34 C30.98 34.33 32.96 34.66 35 35 C35 36.32 35 37.64 35 39 C36.051875 39.0309375 36.051875 39.0309375 37.125 39.0625 C45.59597705 41.82477513 50.05688508 53.74195353 54.00708008 61.1418457 C54.897936 62.80899702 55.81823003 64.46033881 56.7421875 66.109375 C58.14472189 69.33259069 58.43306106 71.68517551 58.4375 75.1875 C58.45683594 76.21230469 58.47617187 77.23710937 58.49609375 78.29296875 C58 81 58 81 56.109375 82.796875 C54.70287759 83.59909945 53.26898095 84.3550664 51.8125 85.0625 C49.82107843 85.86702161 49.82107843 85.86702161 49 88 C49.56847656 87.80664062 50.13695312 87.61328125 50.72265625 87.4140625 C55.45364938 85.81863577 60.18794425 84.33099414 65 83 C64 86 64 86 60.875 87.625 C51.10853849 91.34179102 43.66803674 88.72149477 34.25 85.25 C30.03350885 83.88208308 27.25220312 83.23493456 23 85 C21.19328621 87.63238643 19.8026053 90.33477259 18.39453125 93.19921875 C15.97340797 98.06181088 13.50089397 101.10523629 8.75 103.9375 C3.38369572 105.45795288 -0.97538519 105.52682091 -6.03515625 102.97265625 C-12.0826953 98.82474179 -16.79893993 92.95150176 -21 87 C-21 86.34 -21 85.68 -21 85 C-21.66 85 -22.32 85 -23 85 C-24.2265625 83.71484375 -24.2265625 83.71484375 -25.625 81.9375 C-27.89709405 79.17219529 -30.231152 76.88993888 -33 74.625 C-38.65614396 69.76136757 -43.00507447 64.52849399 -43.875 56.9375 C-43.91625 55.638125 -43.9575 54.33875 -44 53 C-45.5159375 53.2475 -45.5159375 53.2475 -47.0625 53.5 C-58.27132987 54.85381959 -70.26840294 55.48773138 -80 49 C-80 48.34 -80 47.68 -80 47 C-80.66 47 -81.32 47 -82 47 C-84 44 -84 44 -84 41 C-83.34 41 -82.68 41 -82 41 C-82 40.34 -82 39.68 -82 39 C-81.34 39 -80.68 39 -80 39 C-79.91363281 38.38511719 -79.82726562 37.77023437 -79.73828125 37.13671875 C-79 35 -79 35 -77.29296875 33.76953125 C-76.59816406 33.45371094 -75.90335938 33.13789063 -75.1875 32.8125 C-74.50042969 32.48894531 -73.81335938 32.16539062 -73.10546875 31.83203125 C-71.07317251 31.02891604 -69.1213572 30.51367429 -67 30 C-65.61554688 29.53787109 -65.61554688 29.53787109 -64.203125 29.06640625 C-59.53125426 27.51101514 -54.78819427 26.22771253 -50.046875 24.90234375 C-45.24448808 23.48009839 -44.50620361 22.26982837 -42 18 C-41.70867187 17.4121875 -41.41734375 16.824375 -41.1171875 16.21875 C-38.77214894 12.11927518 -36.55587335 10.46418144 -32 9.1875 C-27.90251972 8.32702914 -23.85614736 7.88773077 -19.6875 7.59375 C-18.75164062 7.52389893 -17.81578125 7.45404785 -16.8515625 7.38208008 C-14.97311138 7.25390152 -13.09247954 7.15405584 -11.2109375 7.0847168 C-8.67358935 6.92496304 -6.4347042 6.73689319 -4 6 C-1.57342651 3.07550589 -1.57342651 3.07550589 0 0 Z " fill="#E0909D" transform="translate(224,234)"/>
<path d="M0 0 C3.99084174 1.72295376 5.78844381 4.61919886 7.875 8.375 C11.4400482 19.7959628 9.37156572 36.25686857 4 47 C3.61552807 52.09425307 3.97648087 54.88231656 7 59 C9.55427245 60.86965279 9.55427245 60.86965279 12.4375 62.4375 C16.82735656 65.13761019 19.9410598 67.09776142 22 72 C22.42667501 75.81421602 22.74436181 79.51127639 21 83 C21.83402344 83.09796875 22.66804688 83.1959375 23.52734375 83.296875 C32.0171784 84.42496299 38.85590699 86.23727133 46 91 C46 91.66 46 92.32 46 93 C46.66 93 47.32 93 48 93 C49.01911045 96.89114901 49.16782969 98.60596507 47.5625 102.375 C47.046875 103.24125 46.53125 104.1075 46 105 C45.34 104.67 44.68 104.34 44 104 C44.226875 102.948125 44.45375 101.89625 44.6875 100.8125 C45.22272706 97.14389287 45.22272706 97.14389287 44.1875 94.3125 C37.80403203 87.56426243 26.69836833 86.6544447 18 85 C17.71382813 85.62390625 17.42765625 86.2478125 17.1328125 86.890625 C15.80415977 89.36466802 14.31323302 90.45784465 12 92 C12.57344937 89.13275314 12.8614515 88.1385485 15 86 C18.12763464 80.22590528 18.35312069 75.50003644 18 69 C17.0409375 68.5359375 17.0409375 68.5359375 16.0625 68.0625 C14 67 14 67 13 66 C12.34 68.31 11.68 70.62 11 73 C9.02 73.33 7.04 73.66 5 74 C5.33 74.99 5.66 75.98 6 77 C4.27278316 78.27348212 2.54313762 79.54367057 0.8125 80.8125 C-0.15042969 81.52019531 -1.11335938 82.22789062 -2.10546875 82.95703125 C-5.34422646 85.24295606 -8.53813261 87.3734854 -12.1875 88.9375 C-14.16897116 89.86911772 -14.16897116 89.86911772 -14.9375 92 C-16.39568908 94.7448265 -18.17549698 94.91365269 -21 96 C-21.495 97.485 -21.495 97.485 -22 99 C-24.328125 100.38671875 -24.328125 100.38671875 -27.25 101.6875 C-28.20390625 102.12449219 -29.1578125 102.56148438 -30.140625 103.01171875 C-32.97873633 103.99265067 -35.0266156 104.20075771 -38 104 C-38 101.69 -38 99.38 -38 97 C-38.99 96.67 -39.98 96.34 -41 96 C-41 95.01 -41 94.02 -41 93 C-42.32 92.67 -43.64 92.34 -45 92 C-45.1953125 89.94921875 -45.390625 87.8984375 -45.5859375 85.84765625 C-45.79089844 84.93306641 -45.79089844 84.93306641 -46 84 C-46.99 83.505 -46.99 83.505 -48 83 C-48.33333333 80.66666667 -48.66666667 78.33333333 -49 76 C-49.99 75.505 -49.99 75.505 -51 75 C-51 74.34 -51 73.68 -51 73 C-51.66 73 -52.32 73 -53 73 C-54.31626692 69.38026598 -55 66.90432869 -55 63 C-56.09828125 62.85884766 -56.09828125 62.85884766 -57.21875 62.71484375 C-60.4148363 61.89337775 -61.99621636 60.68278157 -64.5 58.5625 C-67.55902599 55.98279322 -70.21305801 54.32676313 -74 53 C-74 52.34 -74 51.68 -74 51 C-74.639375 50.896875 -75.27875 50.79375 -75.9375 50.6875 C-79.29238642 49.93436223 -82.45661844 48.87631882 -85.70703125 47.765625 C-88.77915617 46.73983882 -91.8787159 45.8633339 -95 45 C-94.649375 44.401875 -94.29875 43.80375 -93.9375 43.1875 C-92.66695302 40.89186786 -92.66695302 40.89186786 -94 38 C-86.80363851 39.99623966 -80.78437881 43.17428004 -74.4375 47.0625 C-73.52419922 47.60455078 -72.61089844 48.14660156 -71.66992188 48.70507812 C-66.7097472 51.70641044 -66.7097472 51.70641044 -65 53 C-65 53.66 -65 54.32 -65 55 C-64.401875 55.268125 -63.80375 55.53625 -63.1875 55.8125 C-61 57 -61 57 -59.4375 58.625 C-57.97021721 60.34561132 -57.97021721 60.34561132 -55 60 C-54.70867187 59.31599121 -54.41734375 58.63198242 -54.1171875 57.92724609 C-48.68799806 45.23566212 -43.32347261 32.73014667 -36 21 C-35.34 21 -34.68 21 -34 21 C-33.731875 20.41863281 -33.46375 19.83726562 -33.1875 19.23828125 C-26.8066584 7.21123443 -13.68938305 -1.88477013 0 0 Z " fill="#EECB9D" transform="translate(287,137)"/>
<path d="M0 0 C5.875 3.75 5.875 3.75 7 6 C7.56608783 12.56661888 6.24455936 16.36346622 3 22 C2.32590542 23.32959344 1.65717702 24.66196391 1 26 C1.32742188 25.50371094 1.65484375 25.00742188 1.9921875 24.49609375 C5.13287129 22.15585661 8.39806059 22.77766135 12.125 23.0625 C12.88675537 23.11269287 13.64851074 23.16288574 14.43334961 23.21459961 C20.31573359 23.70704617 24.82028209 25.08052263 30 28 C29.505 29.485 29.505 29.485 29 31 C26.015625 32.31640625 26.015625 32.31640625 22.25 33.5625 C17.30938149 35.18161966 17.30938149 35.18161966 12.50390625 37.14453125 C9.15675687 38.28809711 6.21316089 38.1909002 2.6875 38.125 C0.80611328 38.09792969 0.80611328 38.09792969 -1.11328125 38.0703125 C-2.54220703 38.03550781 -2.54220703 38.03550781 -4 38 C-4 37.34 -4 36.68 -4 36 C-6.97 35.67 -9.94 35.34 -13 35 C-13 35.66 -13 36.32 -13 37 C-15.5 38.625 -15.5 38.625 -18 40 C-17.34 40.66 -16.68 41.32 -16 42 C-17.3921875 41.9071875 -17.3921875 41.9071875 -18.8125 41.8125 C-21.98080688 41.66853545 -21.98080688 41.66853545 -23.69921875 43.51171875 C-24.12847656 44.00285156 -24.55773437 44.49398437 -25 45 C-24.28972656 44.98839844 -23.57945312 44.97679687 -22.84765625 44.96484375 C-21.92855469 44.95582031 -21.00945312 44.94679687 -20.0625 44.9375 C-19.14597656 44.92589844 -18.22945313 44.91429687 -17.28515625 44.90234375 C-15 45 -15 45 -14 46 C-1.40866056 46.80535012 9.42444714 44.87438239 21.2578125 40.453125 C23 40 23 40 25 41 C23.10908264 41.84442881 21.21202485 42.67511587 19.3125 43.5 C18.25675781 43.9640625 17.20101562 44.428125 16.11328125 44.90625 C13.14372184 45.94950801 11.10804937 46.23065301 8 46 C6.79431947 50.67201205 6.90617574 55.21496292 7 60 C7.66 60 8.32 60 9 60 C12.10096154 65.45769231 12.10096154 65.45769231 11.58984375 68.203125 C11.29787109 69.09257812 11.29787109 69.09257812 11 70 C2.91074398 71.44792896 -4.31818315 72.25896617 -12.4765625 70.99609375 C-15.60352443 71.00093425 -16.73774576 71.92361172 -19 74 C-19.73605469 73.0615625 -20.47210938 72.123125 -21.23046875 71.15625 C-22.21535803 69.93686327 -23.20107883 68.71814784 -24.1875 67.5 C-24.67025391 66.87996094 -25.15300781 66.25992188 -25.65039062 65.62109375 C-27.02936646 63.93670716 -28.33451205 62.40309717 -30 61 C-32.66598378 60.63890774 -32.66598378 60.63890774 -35 61 C-36.875 58.8125 -36.875 58.8125 -38 56 C-37.6875 53.1875 -37.6875 53.1875 -37 51 C-37.99 53.31 -38.98 55.62 -40 58 C-40.66 58 -41.32 58 -42 58 C-42.375 55.375 -42.375 55.375 -42 52 C-40.19946381 49.66246179 -38.2392198 47.95931733 -36 46 C-37.546875 46.495 -37.546875 46.495 -39.125 47 C-42.50004428 47.95843042 -45.4738453 48.32801439 -49 48 C-49.66 47.34 -50.32 46.68 -51 46 C-50.625 42.375 -50.625 42.375 -50 39 C-49.34773437 38.81824219 -48.69546875 38.63648438 -48.0234375 38.44921875 C-41.54661142 36.58641479 -35.80272187 34.90892457 -31 30 C-28.99468961 28.22109562 -26.96624299 26.47084622 -24.9375 24.71875 C-23.02294788 23.06484186 -23.02294788 23.06484186 -21.45703125 21.40234375 C-19.50018699 19.51894672 -17.21035047 18.35396133 -14.8515625 17.0390625 C-12.08733255 15.48782797 -9.53359305 13.91564353 -7 12 C-7 11.01 -7 10.02 -7 9 C-5.02 8.34 -3.04 7.68 -1 7 C-0.67 4.69 -0.34 2.38 0 0 Z " fill="#F19E8F" transform="translate(299,202)"/>
<path d="M0 0 C3.75 -0.375 3.75 -0.375 7 0 C7 4 7 4 5 7 C2.43807158 8.14024674 -0.05134156 9.13306993 -2.6875 10.0625 C-3.38294922 10.31837891 -4.07839844 10.57425781 -4.79492188 10.83789062 C-8.05665317 12.02259041 -11.29934537 13.08479311 -14.640625 14.03125 C-21.19625347 15.9217103 -27.56213997 18.68424298 -33.625 21.8125 C-36 23 -36 23 -38 23 C-38.226875 23.5775 -38.45375 24.155 -38.6875 24.75 C-40 27 -40 27 -42.25 28.75 C-44.78670268 30.82548401 -45.85115653 32.24680363 -47.5625 34.9375 C-50.86281046 39.56137247 -54.85663885 41.02611192 -60.09765625 42.89453125 C-63.01717847 44.00654308 -65.47311917 45.159318 -68 47 C-68 47.99 -68 48.98 -68 50 C-58.68491782 50.48955176 -51.47947021 49.9127032 -43 46 C-41.89914063 45.53722656 -40.79828125 45.07445312 -39.6640625 44.59765625 C-30.66297355 40.53425075 -24.34052954 35.26275132 -17.3984375 28.37011719 C-14.39940281 25.43181714 -11.17982231 22.73856943 -8 20 C-7.37351562 19.44441406 -6.74703125 18.88882813 -6.1015625 18.31640625 C-5.49054688 17.77886719 -4.87953125 17.24132812 -4.25 16.6875 C-3.45335937 15.98173828 -3.45335937 15.98173828 -2.640625 15.26171875 C1.22197684 12.291194 4.1885935 11.70561861 9.0625 11.6875 C10.10535156 11.67074219 11.14820313 11.65398437 12.22265625 11.63671875 C15 12 15 12 16.859375 13.3515625 C18.42428135 15.61317374 18.21766728 17.31543686 18 20 C21.09262767 21.54631384 24.3670891 21.39060716 27.78515625 21.62109375 C28.88150391 21.80865234 28.88150391 21.80865234 30 22 C31.60725635 25.21451269 31.05748185 28.43612536 31 32 C30.34 32 29.68 32 29 32 C29 32.66 29 33.32 29 34 C30.98 34.33 32.96 34.66 35 35 C35 36.32 35 37.64 35 39 C36.32 39 37.64 39 39 39 C39 39.99 39 40.98 39 42 C34.78662452 42.09159512 32.83516983 41.70709267 29.5546875 38.9296875 C28.71164063 38.10726562 27.86859375 37.28484375 27 36.4375 C23.20713145 32.66702718 23.20713145 32.66702718 18.0625 31.5 C17.051875 31.665 16.04125 31.83 15 32 C13.515 31.505 13.515 31.505 12 31 C12 29.02 12 27.04 12 25 C6.04186121 26.57228663 1.59073677 28.67052505 -3.17578125 32.59765625 C-5.03912147 34.03007411 -6.90281232 34.95348258 -9 36 C-10.09797015 36.87783257 -11.18038633 37.77532947 -12.25 38.6875 C-20.880582 45.26163939 -31.24118385 49.27058874 -42 50 C-42.42667969 50.47953125 -42.85335937 50.9590625 -43.29296875 51.453125 C-47.92040642 55.64640948 -57.35002785 54.2616698 -63.25390625 54.2265625 C-69.49692735 53.84898667 -74.79176573 52.47215618 -80 49 C-80 48.34 -80 47.68 -80 47 C-80.66 47 -81.32 47 -82 47 C-84 44 -84 44 -84 41 C-83.34 41 -82.68 41 -82 41 C-82 40.34 -82 39.68 -82 39 C-81.34 39 -80.68 39 -80 39 C-79.91363281 38.38511719 -79.82726562 37.77023437 -79.73828125 37.13671875 C-79 35 -79 35 -77.29296875 33.76953125 C-76.59816406 33.45371094 -75.90335938 33.13789063 -75.1875 32.8125 C-74.50042969 32.48894531 -73.81335938 32.16539062 -73.10546875 31.83203125 C-71.07317251 31.02891604 -69.1213572 30.51367429 -67 30 C-65.61554688 29.53787109 -65.61554688 29.53787109 -64.203125 29.06640625 C-59.53125426 27.51101514 -54.78819427 26.22771253 -50.046875 24.90234375 C-45.24448808 23.48009839 -44.50620361 22.26982837 -42 18 C-41.70867187 17.4121875 -41.41734375 16.824375 -41.1171875 16.21875 C-38.77214894 12.11927518 -36.55587335 10.46418144 -32 9.1875 C-27.90251972 8.32702914 -23.85614736 7.88773077 -19.6875 7.59375 C-18.75164062 7.52389893 -17.81578125 7.45404785 -16.8515625 7.38208008 C-14.97311138 7.25390152 -13.09247954 7.15405584 -11.2109375 7.0847168 C-8.67358935 6.92496304 -6.4347042 6.73689319 -4 6 C-1.57342651 3.07550589 -1.57342651 3.07550589 0 0 Z " fill="#EE7F96" transform="translate(224,234)"/>
<path d="M0 0 C9.50359212 0.64431133 19.85710856 2.26895095 27 9 C28.08093025 12.31485276 28.04718048 14.61469277 27.625 18.0625 C25.16396068 22.51130184 21.51032691 23.91884607 17 26 C16.1440625 26.39574219 15.288125 26.79148438 14.40625 27.19921875 C12.28048476 28.15783124 10.14746617 29.09126136 8 30 C8.52400391 30.76183594 8.52400391 30.76183594 9.05859375 31.5390625 C14 39.01416431 14 39.01416431 14 44 C12.3741652 47.67952087 10.52020716 50.05462236 7 52 C0.43593243 54.0786214 -5.68757984 54.16187626 -12.50292969 53.92651367 C-16.2726774 53.83040241 -17.76872737 53.84581825 -21 56 C-20.44570313 57.01320313 -19.89140625 58.02640625 -19.3203125 59.0703125 C-18.58828998 60.4217387 -17.85653321 61.77330887 -17.125 63.125 C-16.76019531 63.79015625 -16.39539063 64.4553125 -16.01953125 65.140625 C-12.58777133 71.50497977 -10.71825324 76.7756258 -10.75 84.125 C-10.74484375 85.32382812 -10.7396875 86.52265625 -10.734375 87.7578125 C-10.9822796 90.78370687 -11.40980328 92.46325761 -13 95 C-13.66 95 -14.32 95 -15 95 C-15.33 95.66 -15.66 96.32 -16 97 C-16 96.34 -16 95.68 -16 95 C-16.73605469 95.3609375 -17.47210938 95.721875 -18.23046875 96.09375 C-19.69419922 96.78984375 -19.69419922 96.78984375 -21.1875 97.5 C-22.63189453 98.19609375 -22.63189453 98.19609375 -24.10546875 98.90625 C-26.98922693 99.99592921 -28.95354861 100.22277524 -32 100 C-30.86500606 96.70851757 -30.00716624 96.0040131 -26.875 94.25 C-25.92625 93.8375 -24.9775 93.425 -24 93 C-22.47408051 79.77536439 -28.42711989 70.09862198 -35.93359375 59.671875 C-37 58 -37 58 -37 56 C-37.99 55.67 -38.98 55.34 -40 55 C-40.495 53.515 -40.495 53.515 -41 52 C-36.71193127 52.47645208 -34.73352513 53.65902484 -32 57 C-32 57.66 -32 58.32 -32 59 C-31.34 59 -30.68 59 -30 59 C-30 59.66 -30 60.32 -30 61 C-29.01 61 -28.02 61 -27 61 C-27 59.02 -27 57.04 -27 55 C-25.515 54.505 -25.515 54.505 -24 54 C-23.67 53.01 -23.34 52.02 -23 51 C-19.98264721 49.49132361 -17.39803826 50.20200267 -14.0625 50.5 C-7.59477267 51.02407258 -1.44736846 50.87126601 5 50 C5.33 48.68 5.66 47.36 6 46 C5.01 45.505 5.01 45.505 4 45 C3.375 42.4375 3.375 42.4375 3 40 C2.34 40 1.68 40 1 40 C-0.83635078 36.32729843 -0.3069413 32.32807282 0.59765625 28.4140625 C2 26 2 26 5.0390625 24.63671875 C6.22242188 24.32347656 7.40578125 24.01023438 8.625 23.6875 C10.40777344 23.19830078 10.40777344 23.19830078 12.2265625 22.69921875 C13.59941406 22.35310547 13.59941406 22.35310547 15 22 C13.43414473 22.46263906 11.86630672 22.91895383 10.29296875 23.35546875 C8.66369525 23.81344171 7.04181144 24.2980708 5.42578125 24.80078125 C-3.2588518 27.30072337 -14.2178677 28.92737743 -23 26 C-24.56118428 25.93259135 -26.1250252 25.91485544 -27.6875 25.9375 C-28.49574219 25.94652344 -29.30398438 25.95554688 -30.13671875 25.96484375 C-30.75160156 25.97644531 -31.36648438 25.98804688 -32 26 C-27.25 21.125 -27.25 21.125 -25 20 C-24.34 19.484375 -23.68 18.96875 -23 18.4375 C-21 17 -21 17 -19 17 C-19 16.34 -19 15.68 -19 15 C-16.08517222 14.19032562 -14.53886783 13.78154007 -11.6875 14.9375 C-11.130625 15.288125 -10.57375 15.63875 -10 16 C-10 16.66 -10 17.32 -10 18 C-1.70018693 17.97369314 5.39920589 16.88839903 13.1875 14.125 C13.91767334 13.86831543 14.64784668 13.61163086 15.40014648 13.34716797 C18.84945711 12.0590907 21.70198575 10.96346239 24 8 C17.49555105 5.46436736 11.79645905 4.58071294 4.8203125 4.30859375 C2 4 2 4 -1 2 C-0.67 1.34 -0.34 0.68 0 0 Z " fill="#F4AD90" transform="translate(305,222)"/>
<path d="M0 0 C-0.33 1.32 -0.66 2.64 -1 4 C-2.11375 4.28875 -3.2275 4.5775 -4.375 4.875 C-8.00291092 5.69241329 -8.00291092 5.69241329 -10 8 C-10.64767793 10.57061311 -10.64767793 10.57061311 -11 13 C-11.57331055 13.04487549 -12.14662109 13.08975098 -12.73730469 13.13598633 C-30.49194658 13.34920757 -30.49194658 13.34920757 -45.98046875 19.83203125 C-48.03462125 22.46193195 -49.61145766 25.01411921 -50.8359375 28.12109375 C-53.27128815 32.05197853 -58.76825403 32.78461604 -63 34 C-64.62064177 34.31498367 -66.24577937 34.60791465 -67.875 34.875 C-74.30929892 36.02509208 -80.39092148 38.6751616 -86 42 C-86.33 42.99 -86.66 43.98 -87 45 C-87.66 45 -88.32 45 -89 45 C-89 45.66 -89 46.32 -89 47 C-89.99 46.67 -90.98 46.34 -92 46 C-92.5430458 37.31126714 -89.77057943 31.00459258 -84.265625 24.296875 C-76.86537745 16.79455507 -63.97261463 7.8040563 -53.25 6.72265625 C-51 7 -51 7 -49 9 C-47.14881598 8.84144952 -45.29728438 8.66050834 -43.4609375 8.37792969 C-40.72957984 7.95847119 -37.99698153 7.65167564 -35.25 7.3515625 C-33.16664555 7.10955668 -31.08331262 6.86736558 -29 6.625 C-27.9584375 6.5115625 -26.916875 6.398125 -25.84375 6.28125 C-18.64701253 5.42709177 -12.89428742 3.68162411 -6.25 0.8125 C-4 0 -4 0 0 0 Z " fill="#EFC792" transform="translate(231,228)"/>
<path d="M0 0 C3.75 -0.375 3.75 -0.375 7 0 C7 4 7 4 5 7 C2.43807158 8.14024674 -0.05134156 9.13306993 -2.6875 10.0625 C-3.38294922 10.31837891 -4.07839844 10.57425781 -4.79492188 10.83789062 C-8.05665317 12.02259041 -11.29934537 13.08479311 -14.640625 14.03125 C-21.19625347 15.9217103 -27.56213997 18.68424298 -33.625 21.8125 C-36 23 -36 23 -38 23 C-38.226875 23.5775 -38.45375 24.155 -38.6875 24.75 C-40 27 -40 27 -42.25 28.75 C-44.78670268 30.82548401 -45.85115653 32.24680363 -47.5625 34.9375 C-50.86281046 39.56137247 -54.85663885 41.02611192 -60.09765625 42.89453125 C-63.01717847 44.00654308 -65.47311917 45.159318 -68 47 C-68 47.99 -68 48.98 -68 50 C-64.37 50.33 -60.74 50.66 -57 51 C-57 51.33 -57 51.66 -57 52 C-60.96 52 -64.92 52 -69 52 C-69.66 50.35 -70.32 48.7 -71 47 C-65.86839427 42.49419985 -60.9173261 39.02362319 -54.4375 36.75 C-49.39724113 34.18405003 -46.5070038 30.01400761 -44 25 C-44.886875 25.5775 -45.77375 26.155 -46.6875 26.75 C-47.18636719 27.07484375 -47.68523437 27.3996875 -48.19921875 27.734375 C-50.1265086 29.0425416 -50.1265086 29.0425416 -52.23046875 30.94140625 C-55.5334573 33.39651904 -58.79769728 34.74852388 -62.625 36.1875 C-63.29273438 36.44724609 -63.96046875 36.70699219 -64.6484375 36.97460938 C-72.46598433 40 -72.46598433 40 -76 40 C-76 43.3 -76 46.6 -76 50 C-77.32 49.67 -78.64 49.34 -80 49 C-80 48.34 -80 47.68 -80 47 C-80.66 47 -81.32 47 -82 47 C-84 44 -84 44 -84 41 C-83.34 41 -82.68 41 -82 41 C-82 40.34 -82 39.68 -82 39 C-81.34 39 -80.68 39 -80 39 C-79.91363281 38.38511719 -79.82726562 37.77023437 -79.73828125 37.13671875 C-79 35 -79 35 -77.29296875 33.76953125 C-76.59816406 33.45371094 -75.90335938 33.13789063 -75.1875 32.8125 C-74.50042969 32.48894531 -73.81335938 32.16539062 -73.10546875 31.83203125 C-71.07317251 31.02891604 -69.1213572 30.51367429 -67 30 C-65.61554688 29.53787109 -65.61554688 29.53787109 -64.203125 29.06640625 C-59.53125426 27.51101514 -54.78819427 26.22771253 -50.046875 24.90234375 C-45.24448808 23.48009839 -44.50620361 22.26982837 -42 18 C-41.70867187 17.4121875 -41.41734375 16.824375 -41.1171875 16.21875 C-38.77214894 12.11927518 -36.55587335 10.46418144 -32 9.1875 C-27.90251972 8.32702914 -23.85614736 7.88773077 -19.6875 7.59375 C-18.75164062 7.52389893 -17.81578125 7.45404785 -16.8515625 7.38208008 C-14.97311138 7.25390152 -13.09247954 7.15405584 -11.2109375 7.0847168 C-8.67358935 6.92496304 -6.4347042 6.73689319 -4 6 C-1.57342651 3.07550589 -1.57342651 3.07550589 0 0 Z " fill="#F69C94" transform="translate(224,234)"/>
<path d="M0 0 C0.495 1.485 0.495 1.485 1 3 C0.01 3.99 -0.98 4.98 -2 6 C-1.505 6.495 -1.505 6.495 -1 7 C-0.34 6.34 0.32 5.68 1 5 C3.74721104 4.9105143 6.33018332 4.9486934 9.0625 5.125 C9.82876709 5.17068115 10.59503418 5.2163623 11.38452148 5.26342773 C17.30797198 5.72120314 21.78371518 7.05991219 27 10 C26.67 10.99 26.34 11.98 26 13 C23.015625 14.31640625 23.015625 14.31640625 19.25 15.5625 C14.30938149 17.18161966 14.30938149 17.18161966 9.50390625 19.14453125 C6.15675687 20.28809711 3.21316089 20.1909002 -0.3125 20.125 C-1.56675781 20.10695312 -2.82101562 20.08890625 -4.11328125 20.0703125 C-5.06589844 20.04710937 -6.01851563 20.02390625 -7 20 C-7 19.34 -7 18.68 -7 18 C-9.97 17.67 -12.94 17.34 -16 17 C-16 17.66 -16 18.32 -16 19 C-16.66386719 19.24234375 -17.32773437 19.4846875 -18.01171875 19.734375 C-23.05182821 21.64740925 -26.80431637 23.56716794 -31 27 C-31.99 26.67 -32.98 26.34 -34 26 C-29.58057688 21.13863457 -24.41534291 17.67864402 -19 14 C-12.5013462 9.52844922 -6.17661637 4.9084705 0 0 Z " fill="#F3A195" transform="translate(302,220)"/>
<path d="M0 0 C9.47476597 0.64235701 19.90282168 2.24871304 27 9 C28.43589744 14.12820513 28.43589744 14.12820513 27 17 C21.94325291 19.11463969 16.78347422 20.70341279 11.52734375 22.2421875 C8.32693522 23.20181541 5.16777654 24.2671468 2.0078125 25.3515625 C1.34523438 25.56554687 0.68265625 25.77953125 0 26 C-0.57878906 26.19078125 -1.15757812 26.3815625 -1.75390625 26.578125 C-5.17602397 27.22088798 -8.59418512 27.14373077 -12.0625 27.125 C-12.78244141 27.12886719 -13.50238281 27.13273437 -14.24414062 27.13671875 C-17.42708639 27.13080799 -19.95947862 27.01350713 -23 26 C-24.56118428 25.93259135 -26.1250252 25.91485544 -27.6875 25.9375 C-28.49574219 25.94652344 -29.30398438 25.95554688 -30.13671875 25.96484375 C-30.75160156 25.97644531 -31.36648438 25.98804688 -32 26 C-27.25 21.125 -27.25 21.125 -25 20 C-24.34 19.484375 -23.68 18.96875 -23 18.4375 C-21 17 -21 17 -19 17 C-19 16.34 -19 15.68 -19 15 C-16.08517222 14.19032562 -14.53886783 13.78154007 -11.6875 14.9375 C-11.130625 15.288125 -10.57375 15.63875 -10 16 C-10 16.66 -10 17.32 -10 18 C-1.70018693 17.97369314 5.39920589 16.88839903 13.1875 14.125 C13.91767334 13.86831543 14.64784668 13.61163086 15.40014648 13.34716797 C18.84945711 12.0590907 21.70198575 10.96346239 24 8 C17.49555105 5.46436736 11.79645905 4.58071294 4.8203125 4.30859375 C2 4 2 4 -1 2 C-0.67 1.34 -0.34 0.68 0 0 Z " fill="#EFBB89" transform="translate(305,222)"/>
<path d="M0 0 C0.66 0.70125 1.32 1.4025 2 2.125 C4.87109156 5.02918771 8.0876791 7.32944617 11.42578125 9.66796875 C11.94527344 10.10753906 12.46476563 10.54710937 13 11 C13 11.66 13 12.32 13 13 C13.56460938 13.20882813 14.12921875 13.41765625 14.7109375 13.6328125 C17.85540076 15.51090489 19.47027731 17.92756997 21.625 20.875 C22.40101563 21.92429687 23.17703125 22.97359375 23.9765625 24.0546875 C25.54982279 26.34472274 26.8662572 28.47650796 28 31 C34.05624947 28.34115877 38.34364259 24.39213714 43.19921875 20.01953125 C48.97682386 15.1051337 48.97682386 15.1051337 52.12890625 14.78125 C54.0625 15.0625 54.0625 15.0625 57 16 C56.59007812 16.53109375 56.18015625 17.0621875 55.7578125 17.609375 C55.21898437 18.31578125 54.68015625 19.0221875 54.125 19.75 C53.59132812 20.44609375 53.05765625 21.1421875 52.5078125 21.859375 C50.26470221 25.04389427 49 27.05567463 49 31 C48.9375 33.5 48.9375 33.5 48 36 C43.39540525 38.87787172 39.61235239 39.56306799 34.25390625 38.68359375 C25.76861098 36.11006399 19.90412671 27.94751284 15 21 C15 20.34 15 19.68 15 19 C14.34 19 13.68 19 13 19 C11.7734375 17.71484375 11.7734375 17.71484375 10.375 15.9375 C7.47315553 12.40668432 4.27649527 9.55203783 0.734375 6.67578125 C-1.0968652 4.90640727 -2.00626435 3.32716666 -3 1 C-2.01 1.33 -1.02 1.66 0 2 C0 1.34 0 0.68 0 0 Z " fill="#F28C97" transform="translate(188,300)"/>
<path d="M0 0 C0.8971875 0.9590625 0.8971875 0.9590625 1.8125 1.9375 C4.86280409 4.813501 7.48443545 4.5232247 11.5625 4.62890625 C14.50966022 5.0775925 15.88275488 5.92160341 18 8 C18.25 11.1875 18.25 11.1875 18 14 C17.34 14 16.68 14 16 14 C16 14.66 16 15.32 16 16 C17.98 16.33 19.96 16.66 22 17 C22 18.32 22 19.64 22 21 C23.32 21 24.64 21 26 21 C26 21.99 26 22.98 26 24 C21.78662452 24.09159512 19.83516983 23.70709267 16.5546875 20.9296875 C15.29011719 19.69605469 15.29011719 19.69605469 14 18.4375 C10.20713145 14.66702718 10.20713145 14.66702718 5.0625 13.5 C4.051875 13.665 3.04125 13.83 2 14 C1.01 13.67 0.02 13.34 -1 13 C-1 11.02 -1 9.04 -1 7 C-7.00858244 8.58559814 -11.3085693 10.73743172 -16.13671875 14.63671875 C-18.58583359 16.42862877 -21.07339083 17.26834771 -24 18 C-24.92521401 15.08201735 -25.44646132 12.96699919 -24.12890625 10.11328125 C-21.55966914 6.29544293 -19.52543775 4.26291286 -15 3 C-13.70798793 2.45915774 -12.41635158 1.91741742 -11.125 1.375 C-7.28463958 -0.03796279 -4.1168399 -0.55418999 0 0 Z " fill="#E7678D" transform="translate(237,252)"/>
<path d="M0 0 C0 0.66 0 1.32 0 2 C-6.9851457 4.76997157 -13.87066801 7.41303689 -21.171875 9.2265625 C-21.77515625 9.48179687 -22.3784375 9.73703125 -23 10 C-23.33 10.99 -23.66 11.98 -24 13 C-26.28453466 14.63307381 -28.5598022 16.14076798 -30.9375 17.625 C-38.86521293 22.74229493 -46.27187557 28.17272233 -51.875 35.875 C-55.63724517 40.5079362 -61.33750892 41.2258313 -67 42 C-68.99961297 42.03934424 -71.00063966 42.05057906 -73 42 C-71.61297172 37.83891515 -68.70386423 36.88054917 -65 35 C-64.29875 34.690625 -63.5975 34.38125 -62.875 34.0625 C-60.74645143 32.85632248 -59.24148922 31.32130866 -57.5546875 29.56640625 C-55.57825592 27.57507695 -53.51949274 25.69311967 -51.4375 23.8125 C-50.69371094 23.13832031 -49.94992188 22.46414063 -49.18359375 21.76953125 C-47.17203853 20.13941584 -45.31457959 19.11772433 -43 18 C-42.443125 17.360625 -41.88625 16.72125 -41.3125 16.0625 C-38.53390921 13.5842974 -36.19283481 12.96539543 -32.67578125 11.90625 C-29.57848287 10.85723799 -26.70476448 9.52556551 -23.75 8.125 C-6.4640625 0 -6.4640625 0 0 0 Z " fill="#EFC98B" transform="translate(232,242)"/>
<path d="M0 0 C0.495 1.485 0.495 1.485 1 3 C-4.85812132 7.65986923 -11.03949792 10.31409197 -18 13 C-17.65066406 13.50789062 -17.30132812 14.01578125 -16.94140625 14.5390625 C-12 22.01416431 -12 22.01416431 -12 27 C-13.6258348 30.67952087 -15.47979284 33.05462236 -19 35 C-25.4534408 37.04358959 -31.61097785 37.16991506 -38.32714844 37.0144043 C-42.03906536 36.93695947 -45.39205411 37.09801353 -49 38 C-49 36.68 -49 35.36 -49 34 C-45.98264721 32.49132361 -43.39803826 33.20200267 -40.0625 33.5 C-33.59477267 34.02407258 -27.44736846 33.87126601 -21 33 C-20.67 31.68 -20.34 30.36 -20 29 C-20.66 28.67 -21.32 28.34 -22 28 C-22.625 25.4375 -22.625 25.4375 -23 23 C-23.66 23 -24.32 23 -25 23 C-26.83744903 19.32510193 -26.3113038 15.32304117 -25.390625 11.41015625 C-24 9 -24 9 -21.06640625 7.671875 C-19.91011719 7.36765625 -18.75382812 7.0634375 -17.5625 6.75 C-15.83193359 6.27820313 -15.83193359 6.27820313 -14.06640625 5.796875 C-13.05449219 5.53390625 -12.04257812 5.2709375 -11 5 C-7.72226496 4.24849977 -7.72226496 4.24849977 -6 1 C-3 0 -3 0 0 0 Z " fill="#EE9498" transform="translate(331,239)"/>
<path d="M0 0 C10.15317287 -0.63019694 10.15317287 -0.63019694 13.6875 2 C14.120625 2.66 14.55375 3.32 15 4 C14.67 4.66 14.34 5.32 14 6 C13.63261719 5.51917969 13.26523438 5.03835937 12.88671875 4.54296875 C10.25159557 2.38795083 8.17494364 2.49327654 4.8125 2.3125 C3.72582031 2.24675781 2.63914063 2.18101562 1.51953125 2.11328125 C0.68808594 2.07589844 -0.14335937 2.03851563 -1 2 C-0.67 1.34 -0.34 0.68 0 0 Z M-1 3 C-1.94875 3.2475 -2.8975 3.495 -3.875 3.75 C-7.07084181 4.62427634 -7.07084181 4.62427634 -7.91015625 6.84765625 C-9.31820088 9.62841822 -11.07203616 10.82842136 -13.5625 12.6875 C-17.14681716 15.45416088 -20.36933739 18.2923248 -23.5 21.5625 C-30.59124929 28.79059796 -39.21712754 34.99950238 -49 38 C-51.3203125 37.625 -51.3203125 37.625 -53 37 C-52.34 37 -51.68 37 -51 37 C-50.7628125 36.443125 -50.525625 35.88625 -50.28125 35.3125 C-44.25828676 24.44178586 -32.01292025 17.628119 -21.81835938 11.26757812 C-19.95801233 10.0524905 -19.95801233 10.0524905 -18.44921875 8.43066406 C-16.17088296 6.18149834 -13.46420573 5.38494364 -10.5 4.25 C-9.3553125 3.80140625 -8.210625 3.3528125 -7.03125 2.890625 C-4 2 -4 2 -1 3 Z " fill="#DCC393" transform="translate(228,244)"/>
<path d="M0 0 C0.99 0.33 1.98 0.66 3 1 C8.27869631 12.95677855 4.43795911 27.02927489 1 39 C0.67 39.66 0.34 40.32 0 41 C-0.37677003 45.99220285 -0.07396361 48.98020143 3 53 C3.66 53.33 4.32 53.66 5 54 C5 54.66 5 55.32 5 56 C0.49710965 54.74337944 -2.5433334 53.16038089 -6 50 C-7.17635297 47.64729407 -7.13359359 46.179248 -7.125 43.5625 C-7.12757813 42.78003906 -7.13015625 41.99757812 -7.1328125 41.19140625 C-7 39 -7 39 -6 36 C-5.76800572 32.74348773 -5.61902269 29.48815107 -5.4765625 26.2265625 C-5 23 -5 23 -3.53515625 20.66796875 C-1.32075155 16.81952495 -1.18842218 13.05716425 -0.8125 8.6875 C-0.73064453 7.85154297 -0.64878906 7.01558594 -0.56445312 6.15429688 C-0.36527231 4.10390612 -0.18112718 2.05206438 0 0 Z " fill="#F7D7BB" transform="translate(291,143)"/>
<path d="M0 0 C1.04285156 -0.01675781 2.08570313 -0.03351563 3.16015625 -0.05078125 C5.9375 0.3125 5.9375 0.3125 7.796875 1.6640625 C9.36178135 3.92567374 9.15516728 5.62793686 8.9375 8.3125 C11.37137753 9.52943876 13.35588846 9.63209896 16.0625 9.875 C16.97257812 9.95878906 17.88265625 10.04257813 18.8203125 10.12890625 C19.86832031 10.21978516 19.86832031 10.21978516 20.9375 10.3125 C21.4325 12.2925 21.4325 12.2925 21.9375 14.3125 C21.380625 13.99023438 20.82375 13.66796875 20.25 13.3359375 C17.66842642 12.19341676 15.74522131 12.04878164 12.9375 11.9375 C8.39308071 11.585888 7.05598563 10.64605361 3.9375 7.3125 C-1.04977802 6.64113565 -4.68316076 7.70167195 -9.203125 9.59375 C-11.0625 10.3125 -11.0625 10.3125 -13.9375 10.75 C-14.989375 11.0284375 -14.989375 11.0284375 -16.0625 11.3125 C-17.12966704 13.11182579 -17.12966704 13.11182579 -18.0625 15.3125 C-18.908125 16.09625 -19.75375 16.88 -20.625 17.6875 C-23.32890685 20.09929741 -23.32890685 20.09929741 -23.5 23.375 C-24.0625 26.3125 -24.0625 26.3125 -26.875 28.75 C-30.0625 30.3125 -30.0625 30.3125 -32.125 30 C-32.764375 29.773125 -33.40375 29.54625 -34.0625 29.3125 C-36.74399993 29.69817131 -36.74399993 29.69817131 -39.0625 30.3125 C-39.0625 30.9725 -39.0625 31.6325 -39.0625 32.3125 C-42.3625 32.9725 -45.6625 33.6325 -49.0625 34.3125 C-47.73396708 31.65543416 -46.53423151 31.5700915 -43.8125 30.4375 C-36.93484142 27.12676464 -31.94473559 21.96713123 -26.52539062 16.71484375 C-23.47789145 13.79347605 -20.26020125 11.06646738 -17.0625 8.3125 C-16.43601563 7.75691406 -15.80953125 7.20132813 -15.1640625 6.62890625 C-14.55304688 6.09136719 -13.94203125 5.55382812 -13.3125 5 C-12.78140625 4.52949219 -12.2503125 4.05898437 -11.703125 3.57421875 C-7.84052316 0.603694 -4.8739065 0.01811861 0 0 Z " fill="#DE9D98" transform="translate(233.0625,245.6875)"/>
<path d="M0 0 C0.99 0.33 1.98 0.66 3 1 C0.03 3.64 -2.94 6.28 -6 9 C-4.35 8.67 -2.7 8.34 -1 8 C-0.67 9.65 -0.34 11.3 0 13 C0.99 13.33 1.98 13.66 3 14 C1.11204204 15.80063614 -0.78456911 17.59030514 -2.6875 19.375 C-3.21794922 19.88289063 -3.74839844 20.39078125 -4.29492188 20.9140625 C-7.42520052 23.83309535 -9.97041791 25.44625123 -14 27 C-14.33 27.99 -14.66 28.98 -15 30 C-15.66 30 -16.32 30 -17 30 C-17 30.66 -17 31.32 -17 32 C-17.99 31.67 -18.98 31.34 -20 31 C-20.55226255 22.16379923 -17.66823885 16.01143355 -12.10546875 9.19140625 C-8.571881 5.51359043 -4.57448998 2.28724499 0 0 Z " fill="#E9C8A5" transform="translate(159,243)"/>
<path d="M0 0 C0 1.98 0 3.96 0 6 C0.66 6 1.32 6 2 6 C0.19360499 17.94345876 0.19360499 17.94345876 -3 23 C-3.66 23.33 -4.32 23.66 -5 24 C-5.66 21.36 -6.32 18.72 -7 16 C-7.45375 16.969375 -7.9075 17.93875 -8.375 18.9375 C-10 22 -10 22 -12 23 C-12.66 20.69 -13.32 18.38 -14 16 C-15.98 16.66 -17.96 17.32 -20 18 C-19.01 16.515 -19.01 16.515 -18 15 C-18 13.9275 -18 12.855 -18 11.75 C-16.45045238 5.93919644 -11.99804805 3.94394178 -7 1 C-4.53721199 -0.231394 -2.7204945 -0.07159196 0 0 Z " fill="#E98A7B" transform="translate(236,259)"/>
<path d="M0 0 C4.89623133 -0.3727731 7.34562443 0.38469989 11.3125 3.25 C12.17488281 3.85328125 13.03726563 4.4565625 13.92578125 5.078125 C16.18522485 7.17162076 16.39048265 8.10017505 17 11 C19.87064083 12.26248906 19.87064083 12.26248906 23 13 C23.99 13.33 24.98 13.66 26 14 C27.89891584 13.3163843 27.89891584 13.3163843 29.8125 12.1875 C33.13466423 10.41281338 36.3803904 9.08588288 40 8 C40.66 8.66 41.32 9.32 42 10 C40.50047375 10.60534154 39.00034778 11.2091975 37.5 11.8125 C36.6646875 12.14894531 35.829375 12.48539063 34.96875 12.83203125 C33.9890625 13.21746094 33.009375 13.60289062 32 14 C30.22109375 14.75990234 30.22109375 14.75990234 28.40625 15.53515625 C23.08909035 17.51779404 17.61103954 18.01389668 12 18.625 C10.9584375 18.74617188 9.916875 18.86734375 8.84375 18.9921875 C6.82336552 19.22687863 4.8025433 19.45783972 2.78125 19.68457031 C-0.81663836 20.09261734 -4.40811535 20.54238008 -8 21 C-8.99 19.68 -9.98 18.36 -11 17 C-4.04567778 14.95461111 2.77875787 14.41830366 10 14 C10 11.12154273 8.60170071 10.22546869 6.6875 8.125 C4.30983769 5.50309146 2.08517629 2.86150347 0 0 Z " fill="#ECB196" transform="translate(190,217)"/>
<path d="M0 0 C1.875 0.3125 1.875 0.3125 4 1 C7.11398881 5.67098321 6.35668503 10.52597665 6 16 C5.18782065 19.31119273 4.04624133 21.9070254 2.53125 24.953125 C0.40735335 29.91494779 -0.0541782 35.11828906 -0.6875 40.4375 C-0.81705078 41.45521484 -0.94660156 42.47292969 -1.08007812 43.52148438 C-1.39594479 46.01332136 -1.7023204 48.50593633 -2 51 C-2.99 51 -3.98 51 -5 51 C-9.06813119 42.86373763 -4.2742152 25.28043388 -1.875 16.6875 C-0.99291987 12.97016229 -0.87071372 9.86448578 -1.02734375 6.078125 C-0.99872377 3.90300671 -0.60508606 2.08262178 0 0 Z " fill="#F1B28C" transform="translate(285,140)"/>
<path d="M0 0 C0 1.98 0 3.96 0 6 C-0.88558594 6.17208984 -0.88558594 6.17208984 -1.7890625 6.34765625 C-4.1706174 7.05034118 -5.44465486 7.89584426 -7.375 9.4375 C-11.81939419 12.89425104 -16.38945719 16.14921903 -20.98779297 19.39624023 C-23.66899402 21.29877362 -26.25922608 23.21331016 -28.80078125 25.3046875 C-31 27 -31 27 -33 27 C-33.185625 27.598125 -33.37125 28.19625 -33.5625 28.8125 C-35.66448971 32.01117999 -38.40735155 33.09174618 -42 34 C-45.02066851 34.22535146 -47.97829018 34.18500264 -51 34 C-51 33.01 -51 32.02 -51 31 C-50.34773437 30.81824219 -49.69546875 30.63648438 -49.0234375 30.44921875 C-42.54661142 28.58641479 -36.80272187 26.90892457 -32 22 C-29.99468961 20.22109562 -27.96624299 18.47084622 -25.9375 16.71875 C-24.02097243 15.06229377 -24.02097243 15.06229377 -22.44140625 13.390625 C-20.56223345 11.57765612 -18.38173028 10.49342683 -16.10546875 9.24609375 C-12.66536485 7.21011389 -9.4684817 4.8335108 -6.234375 2.48828125 C-4.24468926 1.16298358 -2.49412072 0 0 0 Z " fill="#D6A99D" transform="translate(300,210)"/>
<path d="M0 0 C1.32 0 2.64 0 4 0 C4.66 2.97 5.32 5.94 6 9 C6.66 9 7.32 9 8 9 C8 9.66 8 10.32 8 11 C8.99 11.33 9.98 11.66 11 12 C11.33 14.31 11.66 16.62 12 19 C12.66 19 13.32 19 14 19 C14 21.31 14 23.62 14 26 C12.37509046 26.02698189 10.75005367 26.04638757 9.125 26.0625 C8.22007812 26.07410156 7.31515625 26.08570313 6.3828125 26.09765625 C4 26 4 26 2 25 C2 23.35 2 21.7 2 20 C1.23429688 19.92523438 0.46859375 19.85046875 -0.3203125 19.7734375 C-3 19 -3 19 -4.6171875 17.0390625 C-5.03226563 16.24242187 -5.44734375 15.44578125 -5.875 14.625 C-6.30554688 13.83351562 -6.73609375 13.04203125 -7.1796875 12.2265625 C-8 10 -8 10 -7 7 C-4.5 8.5625 -4.5 8.5625 -2 11 C-1.6875 14.75 -1.6875 14.75 -2 18 C-0.68 18 0.64 18 2 18 C1.69964844 17.44570312 1.39929688 16.89140625 1.08984375 16.3203125 C0.51943359 15.23363281 0.51943359 15.23363281 -0.0625 14.125 C-0.44535156 13.40570313 -0.82820312 12.68640625 -1.22265625 11.9453125 C-1.47917969 11.30335938 -1.73570312 10.66140625 -2 10 C-1.67 9.34 -1.34 8.68 -1 8 C-0.01 9.485 -0.01 9.485 1 11 C0.67 7.37 0.34 3.74 0 0 Z " fill="#F18D92" transform="translate(228,201)"/>
<path d="M0 0 C-5.75586986 9.09798784 -16.2202469 11.7400823 -26 15 C-26.99 15 -27.98 15 -29 15 C-29 18.3 -29 21.6 -29 25 C-30.32 24.67 -31.64 24.34 -33 24 C-33 23.34 -33 22.68 -33 22 C-33.66 22 -34.32 22 -35 22 C-37 19 -37 19 -37 16 C-36.34 16 -35.68 16 -35 16 C-35 15.34 -35 14.68 -35 14 C-34.34 14 -33.68 14 -33 14 C-32.91363281 13.38511719 -32.82726562 12.77023437 -32.73828125 12.13671875 C-32 10 -32 10 -30.29296875 8.76953125 C-29.59816406 8.45371094 -28.90335938 8.13789063 -28.1875 7.8125 C-27.50042969 7.48894531 -26.81335938 7.16539062 -26.10546875 6.83203125 C-24.07974117 6.03151182 -22.11898815 5.49066734 -20 5 C-17.24913618 4.10436992 -14.51074625 3.18408522 -11.7890625 2.203125 C-4.34029601 -0.42002865 -4.34029601 -0.42002865 0 0 Z " fill="#E88099" transform="translate(177,259)"/>
<path d="M0 0 C0.391875 0.66 0.78375 1.32 1.1875 2 C2.0846875 2.99 2.0846875 2.99 3 4 C3.76828125 3.94457031 4.5365625 3.88914062 5.328125 3.83203125 C8 4 8 4 10.31640625 6.01171875 C11.05761719 6.89472656 11.79882812 7.77773438 12.5625 8.6875 C13.30628906 9.55761719 14.05007813 10.42773438 14.81640625 11.32421875 C16.89399928 13.87010646 18.95573439 16.42728478 21 19 C19.68 19 18.36 19 17 19 C17 20.98 17 22.96 17 25 C16.01 25 15.02 25 14 25 C14 24.34 14 23.68 14 23 C13.34 23 12.68 23 12 23 C10.9790625 21.576875 10.9790625 21.576875 9.9375 20.125 C6.76801954 16.07722978 2.9017192 15.61938935 -2 15 C-2 13.68 -2 12.36 -2 11 C-4.97 10.505 -4.97 10.505 -8 10 C-8 9.34 -8 8.68 -8 8 C-7.34 8 -6.68 8 -6 8 C-6 6.02 -6 4.04 -6 2 C-5.01 2.66 -4.02 3.32 -3 4 C-3.33 5.65 -3.66 7.3 -4 9 C-3.195625 9.12375 -2.39125 9.2475 -1.5625 9.375 C-0.716875 9.58125 0.12875 9.7875 1 10 C1.33 10.66 1.66 11.32 2 12 C2.99 12.33 3.98 12.66 5 13 C4.67 11.68 4.34 10.36 4 9 C3.34 9 2.68 9 2 9 C0.50178941 5.62902617 0 3.79557881 0 0 Z " fill="#ECAE8C" transform="translate(261,258)"/>
<path d="M0 0 C-1.30613942 3.91841827 -2.83129848 6.32640809 -6 9 C-6.66 9 -7.32 9 -8 9 C-8.2784375 9.8353125 -8.2784375 9.8353125 -8.5625 10.6875 C-11.0325587 14.66107269 -14.97869198 17.24158627 -19.33203125 18.875 C-22.66879424 20.28200987 -25.45367873 22.27228134 -28.375 24.375 C-41.69220994 33.71645001 -41.69220994 33.71645001 -49 33 C-49.66 32.67 -50.32 32.34 -51 32 C-50.67 30.68 -50.34 29.36 -50 28 C-49.43152344 28.03480469 -48.86304688 28.06960937 -48.27734375 28.10546875 C-42.78339207 28.29807807 -38.91504939 27.74108524 -34 25 C-33.2884375 24.26910156 -32.576875 23.53820312 -31.84375 22.78515625 C-28.26227671 19.27747705 -24.33995249 16.50713312 -20.25 13.625 C-14.5593105 9.57616369 -8.9361173 5.50320724 -3.53125 1.07421875 C-2 0 -2 0 0 0 Z " fill="#EA7B93" transform="translate(299,215)"/>
<path d="M0 0 C0.66 0.33 1.32 0.66 2 1 C-3.84863558 5.15560949 -10.17656702 8.72552234 -17 11 C-17.2475 11.598125 -17.495 12.19625 -17.75 12.8125 C-19.33078585 15.57887523 -21.3128382 16.29175723 -24.06640625 17.734375 C-27.06551464 19.69742776 -29.09371352 22.36174309 -31.37109375 25.09765625 C-34.52646631 28.78270766 -37.29530659 30.97084832 -42 32 C-45.66533601 33.82879056 -45.66533601 33.82879056 -48 37 C-47.25234375 36.84402344 -46.5046875 36.68804687 -45.734375 36.52734375 C-44.25710937 36.23537109 -44.25710937 36.23537109 -42.75 35.9375 C-41.28820312 35.64166016 -41.28820312 35.64166016 -39.796875 35.33984375 C-37.131881 35.01602465 -35.51128277 35.14496801 -33 36 C-36.70416126 38.37590142 -39.92984573 38.20500286 -44.25 38.125 C-46.14492187 38.09792969 -46.14492187 38.09792969 -48.078125 38.0703125 C-49.52445313 38.03550781 -49.52445313 38.03550781 -51 38 C-51.33 36.68 -51.66 35.36 -52 34 C-47.78620141 31.12802554 -43.86611624 28.88683172 -39 27.3125 C-33.63299349 25.29884518 -31.19026174 22.00628108 -27.8671875 17.46875 C-21.56540068 9.1366804 -12.9083358 5.13214208 -3.2578125 1.83203125 C-1.0624151 1.20207689 -1.0624151 1.20207689 0 0 Z " fill="#F3B38A" transform="translate(207,247)"/>
<path d="M0 0 C0.99 0 1.98 0 3 0 C4.73830497 3.00939753 5.251248 5.15942665 5.1875 8.625 C5.17783203 9.78902344 5.17783203 9.78902344 5.16796875 10.9765625 C5 13 5 13 4 15 C4.83402344 15.09796875 5.66804688 15.1959375 6.52734375 15.296875 C15.0171784 16.42496299 21.85590699 18.23727133 29 23 C29 23.66 29 24.32 29 25 C29.66 25 30.32 25 31 25 C32.01911045 28.89114901 32.16782969 30.60596507 30.5625 34.375 C30.046875 35.24125 29.53125 36.1075 29 37 C28.01 36.505 28.01 36.505 27 36 C27.226875 34.948125 27.45375 33.89625 27.6875 32.8125 C28.22272706 29.14389287 28.22272706 29.14389287 27.1875 26.3125 C20.80403203 19.56426243 9.69836833 18.6544447 1 17 C0.71382813 17.62390625 0.42765625 18.2478125 0.1328125 18.890625 C-1.19584023 21.36466802 -2.68676698 22.45784465 -5 24 C-4.42655063 21.13275314 -4.1385485 20.1385485 -2 18 C0.77105257 12.67105275 1.39945522 8.99182824 1 3 C0.67 2.01 0.34 1.02 0 0 Z " fill="#F4CCA5" transform="translate(304,205)"/>
<path d="M0 0 C0.598125 0.495 1.19625 0.99 1.8125 1.5 C3.97029994 3.28276418 3.97029994 3.28276418 7 3 C8.14785376 5.43656685 9.29335402 7.87419281 10.4375 10.3125 C10.76298828 11.00279297 11.08847656 11.69308594 11.42382812 12.40429688 C14.08209843 18.07710051 15.12000002 21.91999744 15.0625 28.1875 C15.05347656 29.45980469 15.04445313 30.73210937 15.03515625 32.04296875 C15.02355469 33.01878906 15.01195312 33.99460937 15 35 C13.515 35.495 13.515 35.495 12 36 C11.67 31.38 11.34 26.76 11 22 C10.34 22 9.68 22 9 22 C8.566875 20.906875 8.13375 19.81375 7.6875 18.6875 C6.47203198 15.8399951 5.29315167 14.1020557 3 12 C-0.0496128 7.9338496 -0.29586132 5.02964252 0 0 Z " fill="#F7D7BA" transform="translate(279,278)"/>
<path d="M0 0 C7.19636149 1.99623966 13.21562119 5.17428004 19.5625 9.0625 C20.47580078 9.60455078 21.38910156 10.14660156 22.33007812 10.70507812 C27.2902528 13.70641044 27.2902528 13.70641044 29 15 C29 15.66 29 16.32 29 17 C29.598125 17.268125 30.19625 17.53625 30.8125 17.8125 C32.99721913 18.99849039 34.29470795 20.22056482 36 22 C36.99 22.66 37.98 23.32 39 24 C37.23828125 24.703125 37.23828125 24.703125 35 25 C33.10546875 23.671875 33.10546875 23.671875 31.1875 21.75 C27.61339179 18.39047239 24.60289427 16.63019172 20 15 C20 14.34 20 13.68 20 13 C19.0409375 12.8453125 19.0409375 12.8453125 18.0625 12.6875 C14.70761358 11.93436223 11.54338156 10.87631882 8.29296875 9.765625 C5.22084383 8.73983882 2.1212841 7.8633339 -1 7 C-0.649375 6.401875 -0.29875 5.80375 0.0625 5.1875 C1.33304698 2.89186786 1.33304698 2.89186786 0 0 Z " fill="#F4BE94" transform="translate(193,175)"/>
<path d="M0 0 C1.36125 0.1546875 1.36125 0.1546875 2.75 0.3125 C1.32265219 2.21563042 -0.10511748 4.11842088 -1.53515625 6.01953125 C-2.63474163 7.48981967 -3.72662512 8.9659184 -4.80859375 10.44921875 C-10.68145161 18.45766129 -10.68145161 18.45766129 -14.25 21.3125 C-17.5625 21.625 -17.5625 21.625 -20.25 21.3125 C-21.375 16.5625 -21.375 16.5625 -20.25 14.3125 C-18.55625803 13.34939182 -16.86112058 12.38858106 -15.15625 11.4453125 C-11.17118787 9.07714033 -7.95316205 6.30132163 -5.25 2.5 C-3.25 0.3125 -3.25 0.3125 0 0 Z " fill="#F3AF88" transform="translate(242.25,315.6875)"/>
<path d="M0 0 C0.33 0 0.66 0 1 0 C1.10807131 1.93627769 1.1856225 3.87427756 1.25 5.8125 C1.29640625 6.89144531 1.3428125 7.97039062 1.390625 9.08203125 C1 12 1 12 -0.87890625 13.8203125 C-2.29382606 14.60724764 -3.7311674 15.35513845 -5.1875 16.0625 C-7.17892157 16.86702161 -7.17892157 16.86702161 -8 19 C-7.43152344 18.80664062 -6.86304688 18.61328125 -6.27734375 18.4140625 C-1.54635062 16.81863577 3.18794425 15.33099414 8 14 C7 17 7 17 3.875 18.625 C-6.59379051 22.60907412 -14.84799901 19.12229067 -24.9296875 15.6171875 C-27.26694965 14.86004032 -27.26694965 14.86004032 -30.875 14.5 C-34 14 -34 14 -37 11 C-31.06 10.505 -31.06 10.505 -25 10 C-24.67 10.66 -24.34 11.32 -24 12 C-24.33 12.66 -24.66 13.32 -25 14 C-24.01 14 -23.02 14 -22 14 C-21.67 13.34 -21.34 12.68 -21 12 C-20.46375 12.61875 -19.9275 13.2375 -19.375 13.875 C-16.68896977 16.2782902 -14.44585438 17.06022153 -11 18 C-11 17.01 -11 16.02 -11 15 C-9.3203125 13.61328125 -9.3203125 13.61328125 -7.125 12.3125 C-6.40570313 11.87550781 -5.68640625 11.43851562 -4.9453125 10.98828125 C-3 10 -3 10 -1 10 C-0.67 6.7 -0.34 3.4 0 0 Z " fill="#F48992" transform="translate(281,303)"/>
<path d="M0 0 C0.66 0.70125 1.32 1.4025 2 2.125 C4.87109156 5.02918771 8.0876791 7.32944617 11.42578125 9.66796875 C11.94527344 10.10753906 12.46476563 10.54710937 13 11 C13 11.66 13 12.32 13 13 C13.57234375 13.21398437 14.1446875 13.42796875 14.734375 13.6484375 C17.77465229 15.46212016 19.23223641 17.73287219 21.25 20.625 C21.95640625 21.62789063 22.6628125 22.63078125 23.390625 23.6640625 C23.92171875 24.43492187 24.4528125 25.20578125 25 26 C24.67 26.66 24.34 27.32 24 28 C21.66471585 27.82701599 20.30822418 27.29774631 18.62109375 25.66796875 C15 21.42788462 15 21.42788462 15 19 C14.34 19 13.68 19 13 19 C11.7734375 17.71484375 11.7734375 17.71484375 10.375 15.9375 C7.47315553 12.40668432 4.27649527 9.55203783 0.734375 6.67578125 C-1.0968652 4.90640727 -2.00626435 3.32716666 -3 1 C-2.01 1.33 -1.02 1.66 0 2 C0 1.34 0 0.68 0 0 Z " fill="#EB869B" transform="translate(188,300)"/>
<path d="M0 0 C0.66 0.33 1.32 0.66 2 1 C1.154375 1.70125 0.30875 2.4025 -0.5625 3.125 C-8.12562369 9.4129766 -8.12562369 9.4129766 -15.1875 16.25 C-21.99624409 23.21543067 -30.62344919 29.12412499 -40 32 C-42.3203125 31.625 -42.3203125 31.625 -44 31 C-43.27296875 30.59910156 -42.5459375 30.19820313 -41.796875 29.78515625 C-34.97212075 25.92654519 -28.91225959 21.81821325 -22.7890625 16.91796875 C-20 15 -20 15 -16.7734375 13.98828125 C-13.8962226 13.29802848 -13.8962226 13.29802848 -12.8671875 11.06640625 C-12.43792969 10.04353516 -12.43792969 10.04353516 -12 9 C-10.1953125 7.40234375 -10.1953125 7.40234375 -8.125 5.9375 C-7.44695312 5.45152344 -6.76890625 4.96554688 -6.0703125 4.46484375 C-5.38710937 3.98144531 -4.70390625 3.49804688 -4 3 C-2.66389788 2.0037024 -1.329747 1.00476399 0 0 Z " fill="#D8AD9C" transform="translate(219,250)"/>
<path d="M0 0 C2.62937739 0.19418556 3.69231928 0.65251153 5.44921875 2.63671875 C10 10.17350158 10 10.17350158 10 15 C8.75 17.875 8.75 17.875 7 20 C6.01 20 5.02 20 4 20 C3.01 16.7 2.02 13.4 1 10 C0.34 10 -0.32 10 -1 10 C-1.9765625 3.9453125 -1.9765625 3.9453125 -2 2 C-1.34 1.34 -0.68 0.68 0 0 Z " fill="#F6D5B8" transform="translate(309,251)"/>
<path d="M0 0 C5.875 3.75 5.875 3.75 7 6 C7.58507584 13.13792521 7.58507584 13.13792521 5.30859375 16.4921875 C2.94412065 19.06070142 0.50591736 21.17303784 -2.25 23.3125 C-3.14203125 24.00988281 -4.0340625 24.70726562 -4.953125 25.42578125 C-5.62859375 25.94527344 -6.3040625 26.46476562 -7 27 C-7.33 26.34 -7.66 25.68 -8 25 C-7.21625 24.278125 -6.4325 23.55625 -5.625 22.8125 C-3.13744038 20.14725755 -2.12997851 18.38993552 -1 15 C-0.67 14.67 -0.34 14.34 0 14 C0.04063832 12.33382885 0.042721 10.66611905 0 9 C-2.31 9.66 -4.62 10.32 -7 11 C-7 10.34 -7 9.68 -7 9 C-5.02 8.34 -3.04 7.68 -1 7 C-0.67 4.69 -0.34 2.38 0 0 Z " fill="#EEB98C" transform="translate(299,202)"/>
<path d="M0 0 C0.66 3.63 1.32 7.26 2 11 C2.99 9.02 3.98 7.04 5 5 C5.66 5 6.32 5 7 5 C5.1875 19.75892857 5.1875 19.75892857 4 24 C3.34 24 2.68 24 2 24 C1.87625 23.195625 1.7525 22.39125 1.625 21.5625 C1.41875 20.716875 1.2125 19.87125 1 19 C0.34 18.67 -0.32 18.34 -1 18 C-1.33333333 15.66666667 -1.66666667 13.33333333 -2 11 C-2.66 10.67 -3.32 10.34 -4 10 C-4 9.34 -4 8.68 -4 8 C-4.66 8 -5.32 8 -6 8 C-6.33 6.02 -6.66 4.04 -7 2 C-4.35261084 0.5393715 -3.10551666 0 0 0 Z " fill="#E0BAA1" transform="translate(240,202)"/>
<path d="M0 0 C1.59134766 -0.00386719 1.59134766 -0.00386719 3.21484375 -0.0078125 C6.0625 0.125 6.0625 0.125 9.0625 1.125 C9.0625 2.775 9.0625 4.425 9.0625 6.125 C11.49637753 7.34193876 13.48088846 7.44459896 16.1875 7.6875 C17.09757812 7.77128906 18.00765625 7.85507813 18.9453125 7.94140625 C19.64398438 8.00199219 20.34265625 8.06257812 21.0625 8.125 C21.5575 10.105 21.5575 10.105 22.0625 12.125 C21.505625 11.80273438 20.94875 11.48046875 20.375 11.1484375 C17.79342642 10.00591676 15.87022131 9.86128164 13.0625 9.75 C8.51808071 9.398388 7.18098563 8.45855361 4.0625 5.125 C-0.92477802 4.45363565 -4.55816076 5.51417195 -9.078125 7.40625 C-10.9375 8.125 -10.9375 8.125 -13.8125 8.5625 C-16.12521187 8.9091795 -16.12521187 8.9091795 -17.125 11.125 C-17.393125 11.785 -17.66125 12.445 -17.9375 13.125 C-18.9275 13.62 -18.9275 13.62 -19.9375 14.125 C-16.56257609 5.84109585 -8.73599767 -0.02117818 0 0 Z " fill="#EB8A90" transform="translate(232.9375,247.875)"/>
<path d="M0 0 C0.53625 0.268125 1.0725 0.53625 1.625 0.8125 C1.93489666 3.92234012 1.91070433 5.39396171 0.12109375 8.015625 C-4.31103233 12.42252076 -7.01307608 14.8125 -13.375 14.8125 C-12.71042832 8.99749776 -9.54631126 5.76032197 -5.375 1.9375 C-2.375 -0.1875 -2.375 -0.1875 0 0 Z " fill="#F6DABB" transform="translate(157.375,251.1875)"/>
<path d="M0 0 C-2 3 -2 3 -3.8828125 3.58984375 C-4.99269531 3.76193359 -4.99269531 3.76193359 -6.125 3.9375 C-10.10561593 4.70957495 -13.19509089 5.93503919 -16.7421875 7.859375 C-20.55446385 9.78530007 -24.57108031 11.23176407 -28.55859375 12.75390625 C-31.32497082 13.80620588 -31.32497082 13.80620588 -32 17 C-32.66 17 -33.32 17 -34 17 C-34.33 17.66 -34.66 18.32 -35 19 C-35.66 18.67 -36.32 18.34 -37 18 C-37 17.34 -37 16.68 -37 16 C-36.34 16 -35.68 16 -35 16 C-35 15.34 -35 14.68 -35 14 C-34.34 14 -33.68 14 -33 14 C-32.91363281 13.38511719 -32.82726562 12.77023437 -32.73828125 12.13671875 C-32 10 -32 10 -30.29296875 8.76953125 C-29.59816406 8.45371094 -28.90335938 8.13789063 -28.1875 7.8125 C-27.50042969 7.48894531 -26.81335938 7.16539062 -26.10546875 6.83203125 C-24.07974117 6.03151182 -22.11898815 5.49066734 -20 5 C-17.24913618 4.10436992 -14.51074625 3.18408522 -11.7890625 2.203125 C-4.34029601 -0.42002865 -4.34029601 -0.42002865 0 0 Z " fill="#D3A69C" transform="translate(177,259)"/>
<path d="M0 0 C0.66 0.33 1.32 0.66 2 1 C2 1.66 2 2.32 2 3 C2.99 3 3.98 3 5 3 C5.66 4.65 6.32 6.3 7 8 C7.66 8 8.32 8 9 8 C10.61949011 10.57213134 11.04408751 11.67669159 10.625 14.75 C10.41875 15.4925 10.2125 16.235 10 17 C5.95558096 17 2.94744509 15.71316099 0 13 C-1.6186404 8.73995191 -1.21871997 4.33322655 0 0 Z " fill="#F4D5B3" transform="translate(158,182)"/>
<path d="M0 0 C0.66 0.33 1.32 0.66 2 1 C2 2.32 2 3.64 2 5 C2.66 5 3.32 5 4 5 C5.63488196 8.26976393 5.4527421 11.85864274 5.71875 15.46875 C5.85132612 17.99074004 5.85132612 17.99074004 7 20 C6.67 20.66 6.34 21.32 6 22 C5.34 22 4.68 22 4 22 C3.67 22.66 3.34 23.32 3 24 C3 23.34 3 22.68 3 22 C2.40832031 22.28875 1.81664062 22.5775 1.20703125 22.875 C-6.64147627 26.56239016 -6.64147627 26.56239016 -11 26 C-10.01 25.34 -9.02 24.68 -8 24 C-3.87114659 21.10980262 -2.08289477 18.56253141 0 14 C0.66 13.34 1.32 12.68 2 12 C1.79856185 9.08431852 1.79856185 9.08431852 1.125 5.875 C0.81949219 4.23144531 0.81949219 4.23144531 0.5078125 2.5546875 C0.34023438 1.71164062 0.17265625 0.86859375 0 0 Z " fill="#F0CA92" transform="translate(286,295)"/>
<path d="M0 0 C0.66 0 1.32 0 2 0 C0.63088196 3.1489715 -0.8752136 5.0478487 -3.5 7.25 C-4.41265625 8.03117188 -4.41265625 8.03117188 -5.34375 8.828125 C-7 10 -7 10 -9 10 C-9 10.66 -9 11.32 -9 12 C-9.66386719 12.24234375 -10.32773437 12.4846875 -11.01171875 12.734375 C-16.05182821 14.64740925 -19.80431637 16.56716794 -24 20 C-24.99 19.67 -25.98 19.34 -27 19 C-22.58404667 14.14245134 -17.42189731 10.66108822 -12 7 C-11.40445312 6.58234375 -10.80890625 6.1646875 -10.1953125 5.734375 C-7.24449321 3.68561964 -4.36214056 2.24879506 -1 1 C-0.67 0.67 -0.34 0.34 0 0 Z " fill="#EC9197" transform="translate(295,227)"/>
<path d="M0 0 C0.66 0.33 1.32 0.66 2 1 C1.2059375 1.68964844 0.411875 2.37929687 -0.40625 3.08984375 C-6.27110255 8.09676891 -6.27110255 8.09676891 -9.73046875 14.734375 C-9.74876096 17.43064012 -9.74876096 17.43064012 -9 21 C-2.12397098 17.06372252 2.83990038 12.17382585 7.93359375 6.1953125 C8.61550781 5.47085938 9.29742187 4.74640625 10 4 C10.66 4 11.32 4 12 4 C10.40370008 7.94874191 7.67066525 10.62687524 4.6875 13.5625 C4.21376953 14.04396484 3.74003906 14.52542969 3.25195312 15.02148438 C-0.33805218 18.59184533 -3.61384239 21.84092283 -8.8125 22.1875 C-9.534375 22.125625 -10.25625 22.06375 -11 22 C-12.86287728 18.27424544 -12.55855284 14.05753329 -12 10 C-8.8692583 5.73080678 -4.34201623 2.97981506 0 0 Z " fill="#F3D3B0" transform="translate(268,213)"/>
<path d="M0 0 C2 0 2 0 4.375 2.3125 C5.24125 3.199375 6.1075 4.08625 7 5 C7.763125 5.556875 8.52625 6.11375 9.3125 6.6875 C9.869375 7.120625 10.42625 7.55375 11 8 C11 8.66 11 9.32 11 10 C11.53625 10.268125 12.0725 10.53625 12.625 10.8125 C15.41666667 12.20833333 18.20833333 13.60416667 21 15 C21 15.66 21 16.32 21 17 C16.48281619 18.36884358 13.41225737 17.47075246 9 16 C9 15.278125 9 14.55625 9 13.8125 C7.62475725 9.94462977 5.35705643 9.13783805 1.8125 7.30859375 C0 6 0 6 -0.8125 3.97265625 C-1 2 -1 2 0 0 Z " fill="#DCA39B" transform="translate(197,213)"/>
<path d="M0 0 C0.66 0.33 1.32 0.66 2 1 C1.030625 1.86625 0.06125 2.7325 -0.9375 3.625 C-3.91504038 6.56751049 -4.79692286 8.73538008 -5 13 C-4.34 13 -3.68 13 -3 13 C-2.896875 12.05125 -2.79375 11.1025 -2.6875 10.125 C-2 7 -2 7 1 5 C0.91621094 5.66386719 0.83242188 6.32773438 0.74609375 7.01171875 C-0.05425042 13.54720848 -0.05425042 13.54720848 1 20 C1.66 20 2.32 20 3 20 C3.33 21.32 3.66 22.64 4 24 C2.0625 23.625 2.0625 23.625 0 23 C-0.33 22.34 -0.66 21.68 -1 21 C-3.02463255 20.34786708 -3.02463255 20.34786708 -5 20 C-4.95875 19.21625 -4.9175 18.4325 -4.875 17.625 C-4.71271266 14.83883881 -4.71271266 14.83883881 -7 13 C-7.4375 9.6875 -7.4375 9.6875 -7 6 C-4.8272578 3.36983839 -3.05326212 1.52663106 0 0 Z " fill="#EFC68C" transform="translate(262,247)"/>
<path d="M0 0 C1.98 0 3.96 0 6 0 C6.33 0.99 6.66 1.98 7 3 C6.01 3.66 5.02 4.32 4 5 C2.73142891 7.24093103 2.73142891 7.24093103 1.625 9.8125 C-0.41955097 14.10667848 -2.40478486 16.91838703 -6 20 C-6.33 19.34 -6.66 18.68 -7 18 C-6.0625 15.875 -6.0625 15.875 -5 14 C-5.66 13.67 -6.32 13.34 -7 13 C-5.87672229 11.54033966 -4.75131706 10.08231636 -3.625 8.625 C-2.99851563 7.81289063 -2.37203125 7.00078125 -1.7265625 6.1640625 C0 4 0 4 2 2 C1.34 1.34 0.68 0.68 0 0 Z " fill="#E79498" transform="translate(242,315)"/>
<path d="M0 0 C3.40013186 0.5765441 4.92670485 1.60997661 7.25 4.125 C10.43074024 7.47785822 13.80704727 10.41921391 17.3984375 13.32421875 C19.19658291 15.20569285 19.61247353 16.45893355 20 19 C11.99539261 15.36657222 5.26674656 8.92992968 0 2 C0 1.34 0 0.68 0 0 Z " fill="#ED8E9C" transform="translate(168,207)"/>
<path d="M0 0 C-0.03480469 1.12148438 -0.03480469 1.12148438 -0.0703125 2.265625 C-0.08835938 3.25046875 -0.10640625 4.2353125 -0.125 5.25 C-0.14820313 6.22453125 -0.17140625 7.1990625 -0.1953125 8.203125 C0.00430847 11.06169722 0.6569378 12.52538147 2 15 C2 15.99 2 16.98 2 18 C-0.3125 17.5625 -0.3125 17.5625 -3 16 C-5.1407632 11.64913715 -6.23063028 6.77009224 -7 2 C-2.25 0 -2.25 0 0 0 Z " fill="#E8939D" transform="translate(186,284)"/>
<path d="M0 0 C0.33 0.66 0.66 1.32 1 2 C1.99 2.33 2.98 2.66 4 3 C4.33 5.31 4.66 7.62 5 10 C5.66 10 6.32 10 7 10 C7 12.31 7 14.62 7 17 C4.1875 16.8125 4.1875 16.8125 1 16 C-1.27863153 13.11373339 -2 11.6952982 -2 8 C-1.34 7.67 -0.68 7.34 0 7 C0 4.69 0 2.38 0 0 Z " fill="#C28893" transform="translate(235,210)"/>
<path d="M0 0 C0.5775 0.226875 1.155 0.45375 1.75 0.6875 C1.0075 1.079375 0.265 1.47125 -0.5 1.875 C-3.32024949 3.52494688 -3.32024949 3.52494688 -5.0625 6 C-7.94740147 9.54430752 -11.32185777 12.34029386 -15.25 14.6875 C-16.24 14.6875 -17.23 14.6875 -18.25 14.6875 C-18.58 16.3375 -18.91 17.9875 -19.25 19.6875 C-19.91 19.3575 -20.57 19.0275 -21.25 18.6875 C-21.25 17.0375 -21.25 15.3875 -21.25 13.6875 C-20.7034375 13.44902344 -20.156875 13.21054687 -19.59375 12.96484375 C-16.66837853 11.3705163 -14.30461667 9.3870351 -11.75 7.25 C-2.61858622 -0.36369253 -2.61858622 -0.36369253 0 0 Z " fill="#F59B8C" transform="translate(240.25,315.3125)"/>
<path d="M0 0 C-0.83402344 0.23332031 -1.66804688 0.46664062 -2.52734375 0.70703125 C-10.8287039 3.39807927 -15.10604976 6.50542269 -20.09765625 13.671875 C-22 16 -22 16 -24.24609375 16.828125 C-24.82488281 16.88484375 -25.40367187 16.9415625 -26 17 C-26 16.34 -26 15.68 -26 15 C-25.34 14.67 -24.68 14.34 -24 14 C-22.62617602 11.77571356 -21.27875129 9.56243624 -20.1171875 7.21875 C-18.21088145 3.88624461 -16.77467458 2.31199223 -13.1484375 0.8515625 C-4.31672532 -1.49066774 -4.31672532 -1.49066774 0 0 Z " fill="#EDAB94" transform="translate(203,243)"/>
<path d="M0 0 C0.804375 0.4125 1.60875 0.825 2.4375 1.25 C4.36760258 2.19812057 6.30949701 3.12790438 8.296875 3.94921875 C15.90849168 7.09585114 15.90849168 7.09585114 18 11 C14.27566618 9.7874262 10.62197194 8.49140021 7 7 C7 7.66 7 8.32 7 9 C8.32 9.66 9.64 10.32 11 11 C10.67 11.99 10.34 12.98 10 14 C6.08402356 12.69467452 5.46169654 11.02734726 3.3125 7.5625 C2.68988281 6.57378906 2.06726563 5.58507812 1.42578125 4.56640625 C0 2 0 2 0 0 Z " fill="#E89C9D" transform="translate(159,195)"/>
<path d="M0 0 C0.66 0 1.32 0 2 0 C1.38577028 3.92734763 -0.54684934 6.46110295 -2.875 9.625 C-3.92300781 11.06746094 -3.92300781 11.06746094 -4.9921875 12.5390625 C-7 15 -7 15 -10 17 C-12.6875 17.125 -12.6875 17.125 -15 17 C-13.95342395 14.24084497 -13.29251669 13.16546398 -10.6796875 11.6875 C-7.61234682 9.75588021 -5.97224487 7.70747717 -3.8125 4.8125 C-2.58644605 3.17385429 -1.32536013 1.55941931 0 0 Z " fill="#F2C28C" transform="translate(239,318)"/>
<path d="M0 0 C5.349198 1.53833145 10.0202099 2.89182957 14 7 C14 7.99 14 8.98 14 10 C14.66 10.66 15.32 11.32 16 12 C15.34 12.66 14.68 13.32 14 14 C13.01 14 12.02 14 11 14 C11 13.34 11 12.68 11 12 C9.85356979 10.81985125 8.70039453 9.64539906 7.51171875 8.5078125 C4.82896747 5.83199339 2.4332419 2.90149463 0 0 Z " fill="#F0C6A6" transform="translate(193,218)"/>
<path d="M0 0 C0.66 0 1.32 0 2 0 C2.33 0.66 2.66 1.32 3 2 C3.99 2.33 4.98 2.66 6 3 C5.67 3.99 5.34 4.98 5 6 C4.01 6 3.02 6 2 6 C2.66 7.65 3.32 9.3 4 11 C2.35 11.33 0.7 11.66 -1 12 C-4.07692308 7.56923077 -4.07692308 7.56923077 -3.6875 4.6875 C-3.460625 4.130625 -3.23375 3.57375 -3 3 C-2.34 3 -1.68 3 -1 3 C-0.67 2.01 -0.34 1.02 0 0 Z " fill="#E3947F" transform="translate(265,251)"/>
<path d="M0 0 C1.06476563 0.09925781 2.12953125 0.19851563 3.2265625 0.30078125 C4.34804688 0.40777344 5.46953125 0.51476562 6.625 0.625 C8.87475291 0.81544184 11.12474409 1.00309661 13.375 1.1875 C16 1.40625 16 1.40625 18.625 1.625 C18.625 1.955 18.625 2.285 18.625 2.625 C13.59504453 3.88248887 8.64384776 3.6806983 3.5078125 3.5859375 C-0.26322833 3.54324647 -3.71003799 3.7087595 -7.375 4.625 C-7.375 3.305 -7.375 1.985 -7.375 0.625 C-4.69598964 -0.71450518 -2.97613158 -0.28902065 0 0 Z " fill="#EC8B95" transform="translate(289.375,272.375)"/>
<path d="M0 0 C1.4606285 2.64738916 2 3.89448334 2 7 C2.66 7 3.32 7 4 7 C7 13.625 7 13.625 7 17 C7.66 17.33 8.32 17.66 9 18 C5.36804504 20.42130331 3.61650652 20.21022785 -0.6875 20.125 C-1.86699219 20.10695313 -3.04648437 20.08890625 -4.26171875 20.0703125 C-5.16535156 20.04710937 -6.06898438 20.02390625 -7 20 C-7 19.67 -7 19.34 -7 19 C-3.37 18.67 0.26 18.34 4 18 C4.33 16.68 4.66 15.36 5 14 C4.34 13.67 3.68 13.34 3 13 C2.375 10.4375 2.375 10.4375 2 8 C1.34 8 0.68 8 0 8 C0 5.36 0 2.72 0 0 Z " fill="#ED9B9F" transform="translate(306,254)"/>
<path d="M0 0 C1.875 0.3125 1.875 0.3125 4 1 C7.11398881 5.67098321 6.35668503 10.52597665 6 16 C5.1875 19.3125 5.1875 19.3125 4 22 C3.60361328 22.94552734 3.60361328 22.94552734 3.19921875 23.91015625 C2.48427898 25.61449133 1.74434736 27.30830146 1 29 C-0.17106449 25.59538204 0.20040207 23.77491529 1.4375 20.4375 C3.25687602 14.88840314 3.29718009 9.78950833 3 4 C2.01 3.67 1.02 3.34 0 3 C0 2.01 0 1.02 0 0 Z " fill="#F3BC90" transform="translate(285,140)"/>
<path d="M0 0 C0.66 0.66 1.32 1.32 2 2 C1.67 2.66 1.34 3.32 1 4 C1.99 4 2.98 4 4 4 C4.33 3.34 4.66 2.68 5 2 C5.53625 2.61875 6.0725 3.2375 6.625 3.875 C9.31103023 6.2782902 11.55414562 7.06022153 15 8 C15 8.33 15 8.66 15 9 C10.0912775 8.47779548 5.85728423 7.33671522 1.2109375 5.6875 C-1.23909769 4.85602635 -1.23909769 4.85602635 -4.875 4.5 C-8.25907284 3.95854835 -8.82997434 3.44290314 -11 1 C-9.20991533 0.77848451 -7.41781838 0.57317787 -5.625 0.375 C-4.62726563 0.25898438 -3.62953125 0.14296875 -2.6015625 0.0234375 C-1.74304688 0.01570313 -0.88453125 0.00796875 0 0 Z " fill="#F07099" transform="translate(255,313)"/>
<path d="M0 0 C2.59269983 0.01747888 5.0525154 0.13768592 7.625 0.375 C8.33140625 0.43171875 9.0378125 0.4884375 9.765625 0.546875 C11.51121361 0.68840921 13.25573673 0.84297387 15 1 C14.67 1.99 14.34 2.98 14 4 C11.09458095 4.96847302 9.03362546 5.19582812 6 5.25 C5.13375 5.27578125 4.2675 5.3015625 3.375 5.328125 C0.57096806 4.94072585 -0.26286782 4.17141522 -2 2 C-1.34 1.34 -0.68 0.68 0 0 Z " fill="#E98394" transform="translate(296,233)"/>
<path d="M0 0 C-0.33 0.99 -0.66 1.98 -1 3 C-2.01320312 3.12117187 -3.02640625 3.24234375 -4.0703125 3.3671875 C-5.4219151 3.53613783 -6.77347542 3.70542669 -8.125 3.875 C-8.79015625 3.95363281 -9.4553125 4.03226563 -10.140625 4.11328125 C-14.31405457 4.64518894 -18.03742884 5.61770774 -22 7 C-24.875 7.125 -24.875 7.125 -27 7 C-24.73950945 4.38365004 -23.09824003 3.51616604 -19.7265625 2.83203125 C-18.9015625 2.66123047 -18.0765625 2.49042969 -17.2265625 2.31445312 C-15.93878906 2.06598633 -15.93878906 2.06598633 -14.625 1.8125 C-13.34882813 1.54663086 -13.34882813 1.54663086 -12.046875 1.27539062 C-7.98671496 0.45640196 -4.16449973 -0.24849896 0 0 Z " fill="#F4BA8F" transform="translate(215,238)"/>
<path d="M0 0 C0.99 0.33 1.98 0.66 3 1 C-2.75 6 -2.75 6 -5 6 C-5.185625 6.598125 -5.37125 7.19625 -5.5625 7.8125 C-7.66448971 11.01117999 -10.40735155 12.09174618 -14 13 C-17.02066851 13.22535146 -19.97829018 13.18500264 -23 13 C-23 12.34 -23 11.68 -23 11 C-22.02160156 10.81824219 -22.02160156 10.81824219 -21.0234375 10.6328125 C-10.5699181 8.89717572 -10.5699181 8.89717572 -3 2 C-2.01 1.34 -1.02 0.68 0 0 Z " fill="#D4949C" transform="translate(272,231)"/>
<path d="M0 0 C0.99 0.33 1.98 0.66 3 1 C3.35368021 8.12600133 2.95671348 13.47059106 0 20 C-0.66 20 -1.32 20 -2 20 C-1.855625 18.741875 -1.71125 17.48375 -1.5625 16.1875 C-0.96183814 10.79870505 -0.47449461 5.40116209 0 0 Z " fill="#F89894" transform="translate(286,143)"/>
<path d="M0 0 C5.81261371 1.73982995 10.83169994 3.8110489 16 7 C16 7.99 16 8.98 16 10 C5.80319149 8.11170213 5.80319149 8.11170213 2 5 C0.6875 2.3125 0.6875 2.3125 0 0 Z " fill="#F2C994" transform="translate(193,175)"/>
<path d="M0 0 C-5.0805208 4.35473211 -9.14195678 6.14279206 -15.8125 6.625 C-16.78832031 6.69976562 -17.76414063 6.77453125 -18.76953125 6.8515625 C-19.87361328 6.92503906 -19.87361328 6.92503906 -21 7 C-18.77282032 4.77282032 -17.1079858 4.12090609 -14.1875 3 C-13.33542969 2.67 -12.48335937 2.34 -11.60546875 2 C-10.31576172 1.505 -10.31576172 1.505 -9 1 C-8.11570313 0.62101562 -7.23140625 0.24203125 -6.3203125 -0.1484375 C-3.70917328 -1.10673439 -2.56669353 -0.95062723 0 0 Z " fill="#D38C9C" transform="translate(174,263)"/>
<path d="M0 0 C-2.70046312 3.50357483 -6.03486667 4.08267095 -10.1875 5.1875 C-11.45980469 5.53167969 -12.73210937 5.87585938 -14.04296875 6.23046875 C-15.50669922 6.61138672 -15.50669922 6.61138672 -17 7 C-17 4 -17 4 -15 2 C-12.79296875 1.11328125 -12.79296875 1.11328125 -10.1875 0.3125 C-9.33542969 0.04050781 -8.48335937 -0.23148438 -7.60546875 -0.51171875 C-4.74216525 -1.04831986 -2.79320318 -0.74719439 0 0 Z " fill="#DDBF92" transform="translate(180,256)"/>
<path d="M0 0 C0.5671875 0.32484375 1.134375 0.6496875 1.71875 0.984375 C8.98115864 4.21763912 18.54280003 1.43506254 26 0 C22.10829803 3.89170197 17.70212838 4.91051042 12.359375 5.19140625 C8.90137186 5.18790625 5.45537132 5.13103234 2 5 C2 4.34 2 3.68 2 3 C1.01 2.67 0.02 2.34 -1 2 C-0.67 1.34 -0.34 0.68 0 0 Z " fill="#F1A18B" transform="translate(293,235)"/>
<path d="M0 0 C0.66 0 1.32 0 2 0 C3.25664978 2.90600261 4 4.79604584 4 8 C3.34 8 2.68 8 2 8 C2.495 8.94875 2.99 9.8975 3.5 10.875 C5 14 5 14 5 16 C5.66 16 6.32 16 7 16 C7.33 15.34 7.66 14.68 8 14 C8 14.99 8 15.98 8 17 C4.625 17.125 4.625 17.125 1 17 C0.34 16.34 -0.32 15.68 -1 15 C-0.34 15 0.32 15 1 15 C0.835 14.195625 0.67 13.39125 0.5 12.5625 C-0.09247348 8.34112648 -0.08506709 4.25335455 0 0 Z " fill="#DE9D8C" transform="translate(231,210)"/>
<path d="M0 0 C-0.5625 2.3125 -0.5625 2.3125 -2 5 C-4.30965848 6.05352843 -6.6429774 7.05719096 -9 8 C-9.33 8.99 -9.66 9.98 -10 11 C-10.66 11 -11.32 11 -12 11 C-12.33 11.66 -12.66 12.32 -13 13 C-13.66 12.67 -14.32 12.34 -15 12 C-15 11.34 -15 10.68 -15 10 C-14.34 10 -13.68 10 -13 10 C-13 9.34 -13 8.68 -13 8 C-12.34 8 -11.68 8 -11 8 C-10.91621094 7.38640625 -10.83242187 6.7728125 -10.74609375 6.140625 C-10 4 -10 4 -8.22265625 2.734375 C-7.50980469 2.40953125 -6.79695312 2.0846875 -6.0625 1.75 C-5.35222656 1.41484375 -4.64195312 1.0796875 -3.91015625 0.734375 C-2 0 -2 0 0 0 Z " fill="#DFABA0" transform="translate(155,265)"/>
<path d="M0 0 C2.67927341 4.01891012 2.15601248 6.24161923 2 11 C1.01 11.33 0.02 11.66 -1 12 C-1.33 10.68 -1.66 9.36 -2 8 C-2.45375 8.969375 -2.9075 9.93875 -3.375 10.9375 C-5 14 -5 14 -7 15 C-6.14422708 9.18074417 -3.67286149 4.54735232 0 0 Z " fill="#E87385" transform="translate(231,267)"/>
<path d="M0 0 C4.875 2.875 4.875 2.875 6 4 C6.04092937 6.33297433 6.04241723 8.66705225 6 11 C7.32 11 8.64 11 10 11 C10.33 10.34 10.66 9.68 11 9 C11.33 11.64 11.66 14.28 12 17 C11.34 17 10.68 17 10 17 C10 15.68 10 14.36 10 13 C9.23300781 12.92523438 8.46601563 12.85046875 7.67578125 12.7734375 C5 12 5 12 3.41796875 10.0390625 C3.01191406 9.24242187 2.60585937 8.44578125 2.1875 7.625 C1.76855469 6.83351562 1.34960938 6.04203125 0.91796875 5.2265625 C0 3 0 3 0 0 Z " fill="#D59198" transform="translate(220,208)"/>
<path d="M0 0 C0.33 0 0.66 0 1 0 C1.49286937 7.26982316 1.49286937 7.26982316 -0.6875 10.5 C-3.05560903 13.06011787 -5.496901 15.17522578 -8.25 17.3125 C-9.14203125 18.00988281 -10.0340625 18.70726562 -10.953125 19.42578125 C-11.62859375 19.94527344 -12.3040625 20.46476562 -13 21 C-13.33 20.34 -13.66 19.68 -14 19 C-12.92807816 17.6781638 -11.84197305 16.36782073 -10.75 15.0625 C-10.14671875 14.33160156 -9.5434375 13.60070312 -8.921875 12.84765625 C-7 11 -7 11 -4.875 10.5625 C-4.25625 10.376875 -3.6375 10.19125 -3 10 C-1.85706445 7.68684675 -1.85706445 7.68684675 -1.25 4.9375 C-1.00765625 4.01839844 -0.7653125 3.09929687 -0.515625 2.15234375 C-0.34546875 1.44207031 -0.1753125 0.73179687 0 0 Z " fill="#E9C58E" transform="translate(305,208)"/>
<path d="M0 0 C-1.58220587 0.96019364 -3.16581331 1.91807798 -4.75 2.875 C-6.07257813 3.67550781 -6.07257813 3.67550781 -7.421875 4.4921875 C-9.58274093 5.75596666 -11.74570395 6.91498835 -14 8 C-14 8.99 -14 9.98 -14 11 C-10.37 11.33 -6.74 11.66 -3 12 C-3 12.33 -3 12.66 -3 13 C-6.96 13 -10.92 13 -15 13 C-15.66 11.35 -16.32 9.7 -17 8 C-5.70441189 -1.91807736 -5.70441189 -1.91807736 0 0 Z " fill="#F69690" transform="translate(170,273)"/>
<path d="M0 0 C-1.64699547 4.35277374 -2.80334555 7.28709948 -6.9375 9.75 C-10 11 -10 11 -13 10 C-13 9.34 -13 8.68 -13 8 C-11.02866014 6.62464661 -9.02318078 5.29788956 -7 4 C-6.0925 3.2575 -5.185 2.515 -4.25 1.75 C-2 0 -2 0 0 0 Z " fill="#E27897" transform="translate(180,259)"/>
<path d="M0 0 C0.66 0.33 1.32 0.66 2 1 C-2.75 5 -2.75 5 -5 5 C-5.33 5.99 -5.66 6.98 -6 8 C-8.328125 9.38671875 -8.328125 9.38671875 -11.25 10.6875 C-12.20390625 11.12449219 -13.1578125 11.56148437 -14.140625 12.01171875 C-16.97873633 12.99265067 -19.0266156 13.20075771 -22 13 C-22 12.34 -22 11.68 -22 11 C-20.39743892 10.49487756 -18.79288208 9.99608373 -17.1875 9.5 C-16.29417969 9.2215625 -15.40085938 8.943125 -14.48046875 8.65625 C-12 8 -12 8 -9 8 C-9 7.34 -9 6.68 -9 6 C-7.03125 4.4921875 -7.03125 4.4921875 -4.5 2.875 C-3.6646875 2.33617187 -2.829375 1.79734375 -1.96875 1.2421875 C-1.3190625 0.83226562 -0.669375 0.42234375 0 0 Z " fill="#DFC393" transform="translate(271,228)"/>
<path d="M0 0 C-9.49613298 3.02149686 -18.16256984 3.33706931 -28 3 C-28 2.01 -28 1.02 -28 0 C-26.28103516 0.01740234 -26.28103516 0.01740234 -24.52734375 0.03515625 C-22.99739748 0.04454242 -21.46744942 0.05364173 -19.9375 0.0625 C-19.18533203 0.07087891 -18.43316406 0.07925781 -17.65820312 0.08789062 C-14.06604871 0.10344108 -10.75925558 -0.03580302 -7.19140625 -0.56640625 C-4.31284011 -0.95749663 -2.6880623 -0.96770243 0 0 Z " fill="#F3AC85" transform="translate(313,246)"/>
<path d="M0 0 C0.99 0 1.98 0 3 0 C5.14336161 3.4766338 5.21277626 6.21229195 5.125 10.25 C5.10695313 11.32765625 5.08890625 12.4053125 5.0703125 13.515625 C5.04710937 14.33546875 5.02390625 15.1553125 5 16 C3.68 16 2.36 16 1 16 C1.01160156 15.09636719 1.02320313 14.19273437 1.03515625 13.26171875 C1.04417969 12.08222656 1.05320312 10.90273437 1.0625 9.6875 C1.07410156 8.51574219 1.08570313 7.34398437 1.09765625 6.13671875 C1.14899898 2.96940805 1.14899898 2.96940805 0 0 Z " fill="#F4CFAC" transform="translate(304,205)"/>
<path d="M0 0 C0.33 0.66 0.66 1.32 1 2 C0.37943989 3.68437744 -0.29289322 5.35008418 -1 7 C-1.13535156 7.60585937 -1.27070313 8.21171875 -1.41015625 8.8359375 C-2.13934956 11.511256 -3.29740651 13.78468961 -4.5625 16.25 C-5.01753906 17.14203125 -5.47257813 18.0340625 -5.94140625 18.953125 C-6.29074219 19.62859375 -6.64007813 20.3040625 -7 21 C-7.33 21 -7.66 21 -8 21 C-7.4943565 15.46640844 -6.04383132 11.43969425 -3.4375 6.5625 C-3.10814453 5.92634766 -2.77878906 5.29019531 -2.43945312 4.63476562 C-1.63546752 3.08505424 -0.81902334 1.54181678 0 0 Z " fill="#E3C296" transform="translate(245,169)"/>
<path d="M0 0 C2.3515625 0.03125 2.3515625 0.03125 4.375 0.5 C5.035 1.49 5.695 2.48 6.375 3.5 C1.24580814 5.60428384 -3.1860835 5.71755666 -8.625 5.5 C-6.27556398 1.41402431 -4.62498511 0.11916226 0 0 Z " fill="#F3B995" transform="translate(281.625,242.5)"/>
<path d="M0 0 C0.33 0.66 0.66 1.32 1 2 C0.67 2.66 0.34 3.32 0 4 C-0.17048367 7.83588262 0.12121475 11.2651627 1 15 C1.66 15 2.32 15 3 15 C3.33 16.32 3.66 17.64 4 19 C2.1875 18.9375 2.1875 18.9375 0 18 C-2.97639118 13.07355942 -3.24833267 9.56375038 -2.51953125 3.91796875 C-2 2 -2 2 0 0 Z " fill="#F4CDAF" transform="translate(262,252)"/>
<path d="M0 0 C3.25 -0.25 3.25 -0.25 7 0 C7.8971875 0.9590625 7.8971875 0.9590625 8.8125 1.9375 C11.87953217 4.82927318 14.56052015 4.52410352 18.66015625 4.62890625 C21.41625151 5.06601652 22.2747648 5.86749616 24 8 C23.48953125 7.83628906 22.9790625 7.67257812 22.453125 7.50390625 C19.18708172 6.83301519 16.0813253 6.9066544 12.75 6.9375 C10.85507813 6.95103516 10.85507813 6.95103516 8.921875 6.96484375 C7.95765625 6.97644531 6.9934375 6.98804688 6 7 C6 6.01 6 5.02 6 4 C6.66 4 7.32 4 8 4 C8 3.34 8 2.68 8 2 C5.36 1.67 2.72 1.34 0 1 C0 0.67 0 0.34 0 0 Z " fill="#F2738E" transform="translate(230,252)"/>
<path d="M0 0 C2 0 2 0 3.55078125 1.5390625 C4.42283203 2.57160156 4.42283203 2.57160156 5.3125 3.625 C5.93125 4.35203125 6.55 5.0790625 7.1875 5.828125 C8.0846875 6.90320313 8.0846875 6.90320313 9 8 C9.495 8.59296875 9.99 9.1859375 10.5 9.796875 C11.1496875 10.57804688 11.1496875 10.57804688 11.8125 11.375 C13.89909037 13.95944753 13.89909037 13.95944753 16 16 C11.6914227 15.52126919 9.84188778 13.10624944 7 10 C6.071875 8.99066406 6.071875 8.99066406 5.125 7.9609375 C0 2.27797379 0 2.27797379 0 0 Z " fill="#ED9697" transform="translate(187,215)"/>
<path d="M0 0 C-0.69867188 0.38671875 -1.39734375 0.7734375 -2.1171875 1.171875 C-3.48230469 1.95304687 -3.48230469 1.95304687 -4.875 2.75 C-5.77992188 3.26046875 -6.68484375 3.7709375 -7.6171875 4.296875 C-10.07970989 6.05697297 -10.94467523 7.21006094 -12 10 C-12.99 10 -13.98 10 -15 10 C-15 8.68 -15 7.36 -15 6 C-13.42578125 4.5859375 -13.42578125 4.5859375 -11.3125 3.375 C-10.22001953 2.74851562 -10.22001953 2.74851562 -9.10546875 2.109375 C-2.61788618 -1.30894309 -2.61788618 -1.30894309 0 0 Z " fill="#F68394" transform="translate(166,273)"/>
<path d="M0 0 C-14.66423358 7.5939781 -14.66423358 7.5939781 -21 7 C-21 6.34 -21 5.68 -21 5 C-20.10796875 4.73445312 -19.2159375 4.46890625 -18.296875 4.1953125 C-17.12640625 3.84210938 -15.9559375 3.48890625 -14.75 3.125 C-13.58984375 2.77695313 -12.4296875 2.42890625 -11.234375 2.0703125 C-8.10519027 1.14397063 -8.10519027 1.14397063 -5.828125 -0.1953125 C-3.50835893 -1.21640611 -2.33976342 -0.83562979 0 0 Z " fill="#F28798" transform="translate(328,243)"/>
<path d="M0 0 C0.66 0.33 1.32 0.66 2 1 C1.54109375 1.32871094 1.0821875 1.65742188 0.609375 1.99609375 C-4.51605961 5.96938234 -6.82968864 9.93391235 -9 16 C-9.66 16 -10.32 16 -11 16 C-11.5 13.5 -11.5 13.5 -11 10 C-7.8453425 6.02910245 -4.21064835 2.8070989 0 0 Z " fill="#E8A991" transform="translate(268,244)"/>
<path d="M0 0 C0.66 0.33 1.32 0.66 2 1 C2 1.66 2 2.32 2 3 C2.99 3 3.98 3 5 3 C4.67 3.66 4.34 4.32 4 5 C3.34 4.67 2.68 4.34 2 4 C2.43820891 8.55737263 2.85041169 11.57653445 6 15 C4.02 14.34 2.04 13.68 0 13 C-1.28571429 4.57142857 -1.28571429 4.57142857 0 0 Z " fill="#EAC8A7" transform="translate(158,182)"/>
<path d="M0 0 C1.98 0 3.96 0 6 0 C6.33 0.99 6.66 1.98 7 3 C6.01 3.66 5.02 4.32 4 5 C2.87330669 7.02556261 1.98486921 9.09736387 1.0625 11.22265625 C0 13 0 13 -3 14 C-1.68139111 9.38486888 0.21355437 5.90102388 3 2 C2.01 1.34 1.02 0.68 0 0 Z " fill="#EA9E9B" transform="translate(242,315)"/>
<path d="M0 0 C1.65 0.33 3.3 0.66 5 1 C4.67 4.3 4.34 7.6 4 11 C3.67 11 3.34 11 3 11 C3 9.35 3 7.7 3 6 C1.68 5.67 0.36 5.34 -1 5 C-0.67 3.35 -0.34 1.7 0 0 Z " fill="#F59C94" transform="translate(244,236)"/>
<path d="M0 0 C0.66 0 1.32 0 2 0 C2.2700558 7.8316181 1.23107719 15.27279225 0 23 C-0.33 23 -0.66 23 -1 23 C-1.0272367 20.47909222 -1.04695207 17.95848543 -1.0625 15.4375 C-1.07087891 14.73302734 -1.07925781 14.02855469 -1.08789062 13.30273438 C-1.10882603 8.75975202 -0.74800682 4.48215108 0 0 Z " fill="#F49991" transform="translate(282,167)"/>
<path d="M0 0 C1.0725 0.639375 2.145 1.27875 3.25 1.9375 C5.80822182 3.40601273 8.05340886 4.52854542 11 5 C11.33 4.34 11.66 3.68 12 3 C12.33 4.32 12.66 5.64 13 7 C8.375 9.125 8.375 9.125 5 8 C5 7.01 5 6.02 5 5 C4.360625 4.731875 3.72125 4.46375 3.0625 4.1875 C1 3 1 3 0 0 Z " fill="#DC7F9B" transform="translate(252,271)"/>
<path d="M0 0 C0.53625 0.268125 1.0725 0.53625 1.625 0.8125 C1.295 1.8025 0.965 2.7925 0.625 3.8125 C0.625 3.1525 0.625 2.4925 0.625 1.8125 C-5.20024699 4.81338482 -9.76332821 9.39499232 -13.375 14.8125 C-12.71042832 8.99749776 -9.54631126 5.76032197 -5.375 1.9375 C-2.375 -0.1875 -2.375 -0.1875 0 0 Z " fill="#F4D4AF" transform="translate(157.375,251.1875)"/>
<path d="M0 0 C0.99 0 1.98 0 3 0 C3 1.65 3 3.3 3 5 C5.43387753 6.21693876 7.41838846 6.31959896 10.125 6.5625 C11.03507813 6.64628906 11.94515625 6.73007813 12.8828125 6.81640625 C13.58148438 6.87699219 14.28015625 6.93757812 15 7 C15.33 8.32 15.66 9.64 16 11 C15.44570312 10.67902344 14.89140625 10.35804688 14.3203125 10.02734375 C10.99884778 8.5567289 7.83425788 8.60662017 4.2421875 8.44140625 C3.50226563 8.29574219 2.76234375 8.15007812 2 8 C-0.1519437 4.77208445 -0.20086443 3.71599191 0 0 Z " fill="#F3978B" transform="translate(239,249)"/>
<path d="M0 0 C-1.7015625 0.495 -1.7015625 0.495 -3.4375 1 C-5.40493425 1.72187368 -5.40493425 1.72187368 -7 3 C-7.969218 5.79200866 -7.95072091 7.99397579 -8 11 C-9.875 10.75 -9.875 10.75 -12 10 C-13.25 7.9375 -13.25 7.9375 -14 6 C-12.35 5.67 -10.7 5.34 -9 5 C-8.95875 4.38125 -8.9175 3.7625 -8.875 3.125 C-8 1 -8 1 -5.0625 -0.3125 C-2 -1 -2 -1 0 0 Z " fill="#E78E9B" transform="translate(154,271)"/>
<path d="M0 0 C1.60725635 3.21451269 1.05748185 6.43612536 1 10 C-0.65 10.66 -2.3 11.32 -4 12 C-4.50423019 6.70558305 -3.18923033 4.18586481 0 0 Z " fill="#EA798C" transform="translate(212,262)"/>
<path d="M0 0 C1.65 0 3.3 0 5 0 C5.66 1.65 6.32 3.3 7 5 C3.125 3.125 3.125 3.125 2 2 C1.82057837 5.94727588 1.90649311 8.5980513 4 12 C2 12 2 12 0.3125 10.5 C-1.65798148 6.74670195 -0.75538187 4.12026476 0 0 Z " fill="#F3C3A3" transform="translate(278,277)"/>
<path d="M0 0 C0.66 0.66 1.32 1.32 2 2 C1.09507812 2.88751953 1.09507812 2.88751953 0.171875 3.79296875 C-5.73010457 9.61233838 -5.73010457 9.61233838 -11 16 C-10.41135171 12.10586517 -8.53589895 9.87170398 -6.0625 6.875 C-5.35222656 6.00617188 -4.64195312 5.13734375 -3.91015625 4.2421875 C-2 2 -2 2 0 0 Z " fill="#F4D4AE" transform="translate(253,167)"/>
<path d="M0 0 C0.33 0 0.66 0 1 0 C1.66 2.64 2.32 5.28 3 8 C3.66 6.35 4.32 4.7 5 3 C5.33 3 5.66 3 6 3 C6 4.98 6 6.96 6 9 C4.35 9.33 2.7 9.66 1 10 C-0.5625 8.3125 -0.5625 8.3125 -2 6 C-1.58974359 1.58974359 -1.58974359 1.58974359 0 0 Z " fill="#DD7E92" transform="translate(229,274)"/>
<path d="M0 0 C-1.32064453 0.45439453 -1.32064453 0.45439453 -2.66796875 0.91796875 C-11.38092349 3.93269655 -11.38092349 3.93269655 -18 10 C-17.13997484 6.17235715 -16.69313945 4.44356883 -13.3203125 2.28515625 C-12.26585937 1.88167969 -11.21140625 1.47820312 -10.125 1.0625 C-9.07570312 0.64097656 -8.02640625 0.21945313 -6.9453125 -0.21484375 C-4.03982844 -0.98938261 -2.75267822 -1.07048597 0 0 Z " fill="#F6A495" transform="translate(203,243)"/>
<path d="M0 0 C0.33 0.99 0.66 1.98 1 3 C-2.90456127 6.53269829 -5.80177328 8.63855967 -11 10 C-7.84778899 5.58690458 -4.44536093 2.99206986 0 0 Z " fill="#E29F99" transform="translate(302,220)"/>
<path d="M0 0 C0.5775 0.226875 1.155 0.45375 1.75 0.6875 C0.69232422 1.30044922 0.69232422 1.30044922 -0.38671875 1.92578125 C-3.39421154 3.77623043 -6.2175321 5.78411998 -9.0625 7.875 C-10.03832031 8.59042969 -11.01414063 9.30585938 -12.01953125 10.04296875 C-12.75558594 10.58566406 -13.49164063 11.12835938 -14.25 11.6875 C-14.91 11.3575 -15.57 11.0275 -16.25 10.6875 C-14.66728767 9.41589334 -13.08380365 8.14524715 -11.5 6.875 C-10.61828125 6.16730469 -9.7365625 5.45960938 -8.828125 4.73046875 C-7.97734375 4.05628906 -7.1265625 3.38210938 -6.25 2.6875 C-5.528125 2.0996875 -4.80625 1.511875 -4.0625 0.90625 C-2.25 -0.3125 -2.25 -0.3125 0 0 Z " fill="#F68A91" transform="translate(240.25,315.3125)"/>
<path d="M0 0 C4.30764815 1.56641751 8.06171464 3.68336156 12 6 C12 6.66 12 7.32 12 8 C10.35 8.33 8.7 8.66 7 9 C6.5875 8.2575 6.175 7.515 5.75 6.75 C4.06254382 4.09828315 2.29127911 2.13325986 0 0 Z " fill="#E49491" transform="translate(206,222)"/>
<path d="M0 0 C2.0625 0.4375 2.0625 0.4375 4 1 C4 3.64 4 6.28 4 9 C3.34 9 2.68 9 2 9 C2 8.34 2 7.68 2 7 C1.34 7 0.68 7 0 7 C-0.38133299 5.0085944 -0.71325582 3.00720923 -1 1 C-0.67 0.67 -0.34 0.34 0 0 Z " fill="#D6B799" transform="translate(234,203)"/>
<path d="M0 0 C2.31 0 4.62 0 7 0 C7 1.65 7 3.3 7 5 C4.03 4.505 4.03 4.505 1 4 C0.67 2.68 0.34 1.36 0 0 Z " fill="#D77D9B" transform="translate(248,260)"/>
<path d="M0 0 C0.66 0.66 1.32 1.32 2 2 C1.9765625 4.1640625 1.9765625 4.1640625 1.625 6.625 C1.51414063 7.44226563 1.40328125 8.25953125 1.2890625 9.1015625 C1.19367188 9.72804687 1.09828125 10.35453125 1 11 C0.34 11 -0.32 11 -1 11 C-1.12375 10.21625 -1.2475 9.4325 -1.375 8.625 C-1.79117993 5.85942178 -1.79117993 5.85942178 -4 4 C-2.68 2.68 -1.36 1.36 0 0 Z " fill="#E09E91" transform="translate(243,215)"/>
<path d="M0 0 C0.66 0 1.32 0 2 0 C2.33 0.66 2.66 1.32 3 2 C3.99 2.33 4.98 2.66 6 3 C5.67 3.99 5.34 4.98 5 6 C3.35 6.33 1.7 6.66 0 7 C-0.38133299 5.0085944 -0.71325582 3.00720923 -1 1 C-0.67 0.67 -0.34 0.34 0 0 Z " fill="#E3AC84" transform="translate(265,251)"/>
<path d="M0 0 C-1 3 -1 3 -4.375 4.6875 C-8 6 -8 6 -11 6 C-11 5.34 -11 4.68 -11 4 C-9.5437455 3.32880451 -8.08492133 2.66318193 -6.625 2 C-5.81289063 1.62875 -5.00078125 1.2575 -4.1640625 0.875 C-2 0 -2 0 0 0 Z " fill="#EE9496" transform="translate(289,317)"/>
<path d="M0 0 C0.99 0.33 1.98 0.66 3 1 C-2.94 6.445 -2.94 6.445 -9 12 C-9.66 11.67 -10.32 11.34 -11 11 C-7.33333333 7.33333333 -3.66666667 3.66666667 0 0 Z " fill="#EDCDA4" transform="translate(159,256)"/>
<path d="M0 0 C0 0.99 0 1.98 0 3 C-1.36125 3.6496875 -1.36125 3.6496875 -2.75 4.3125 C-5.93777831 5.83388114 -5.93777831 5.83388114 -8.1875 7.75 C-8.785625 8.1625 -9.38375 8.575 -10 9 C-10.99 8.67 -11.98 8.34 -13 8 C-11.3990869 6.84962529 -9.79414775 5.70485184 -8.1875 4.5625 C-7.29417969 3.92441406 -6.40085937 3.28632813 -5.48046875 2.62890625 C-3 1 -3 1 0 0 Z " fill="#D8B897" transform="translate(299,210)"/>
<path d="M0 0 C0.99 0 1.98 0 3 0 C4.97568178 2.84498177 6.49901406 5.88256767 8 9 C4.18315774 7.44499019 1.80804268 4.96404505 -1 2 C-0.67 1.34 -0.34 0.68 0 0 Z " fill="#F07794" transform="translate(211,327)"/>
<path d="M0 0 C1.5625 1.25 1.5625 1.25 3 3 C2.6875 5.1875 2.6875 5.1875 2 7 C1.34 7 0.68 7 0 7 C-0.33 7.66 -0.66 8.32 -1 9 C-1 8.34 -1 7.68 -1 7 C-2.32 7.33 -3.64 7.66 -5 8 C-3.25 4.125 -3.25 4.125 -1 3 C-0.67 2.01 -0.34 1.02 0 0 Z " fill="#E3BEA4" transform="translate(290,310)"/>
<path d="M0 0 C-0.33 2.97 -0.66 5.94 -1 9 C-1.33 8.01 -1.66 7.02 -2 6 C-2.66 6 -3.32 6 -4 6 C-4.33 4.35 -4.66 2.7 -5 1 C-3 0 -3 0 0 0 Z " fill="#E2B3A7" transform="translate(184,285)"/>
<path d="M0 0 C0.33 1.32 0.66 2.64 1 4 C2.32 4 3.64 4 5 4 C5 4.99 5 5.98 5 7 C1.625 6.6875 1.625 6.6875 -2 6 C-2.66 5.01 -3.32 4.02 -4 3 C-2.68 3 -1.36 3 0 3 C0 2.01 0 1.02 0 0 Z " fill="#ED6C95" transform="translate(258,269)"/>
<path d="M0 0 C1.4606285 2.64738916 2 3.89448334 2 7 C2.66 7 3.32 7 4 7 C6 10 6 10 6 13 C5.01 12.67 4.02 12.34 3 12 C2.3125 9.9375 2.3125 9.9375 2 8 C1.34 8 0.68 8 0 8 C0 5.36 0 2.72 0 0 Z " fill="#E9B0A4" transform="translate(306,254)"/>
<path d="M0 0 C1.65 0.33 3.3 0.66 5 1 C4.01 1.495 4.01 1.495 3 2 C2.61781233 3.65614657 2.28604898 5.32457024 2 7 C1.67 7.66 1.34 8.32 1 9 C-0.32 8.67 -1.64 8.34 -3 8 C-3 7.34 -3 6.68 -3 6 C-2.01 5.67 -1.02 5.34 0 5 C0 3.35 0 1.7 0 0 Z " fill="#F1B887" transform="translate(270,251)"/>
<path d="M0 0 C0.66 0 1.32 0 2 0 C1 8.57142857 1 8.57142857 0 12 C-1.5625 10.8125 -1.5625 10.8125 -3 9 C-2.73865785 5.602552 -1.64391844 2.95905318 0 0 Z " fill="#EAB698" transform="translate(245,207)"/>
<path d="M0 0 C1.21386936 3.64160808 0.6674695 4.33165469 -0.9375 7.6875 C-1.31777344 8.49574219 -1.69804687 9.30398437 -2.08984375 10.13671875 C-2.39019531 10.75160156 -2.69054687 11.36648437 -3 12 C-3.33 12 -3.66 12 -4 12 C-4 8.7 -4 5.4 -4 2 C-3.67 2.66 -3.34 3.32 -3 4 C-2.34 4 -1.68 4 -1 4 C-0.67 2.68 -0.34 1.36 0 0 Z " fill="#F3D1AF" transform="translate(245,203)"/>
<path d="M0 0 C2.91280837 1.30574169 4.80294493 2.7074208 7 5 C7.99 5.66 8.98 6.32 10 7 C8.234375 7.68359375 8.234375 7.68359375 6 8 C4.078125 6.78515625 4.078125 6.78515625 2.25 5.0625 C1.63640625 4.49660156 1.0228125 3.93070313 0.390625 3.34765625 C-0.06828125 2.90292969 -0.5271875 2.45820313 -1 2 C-0.67 1.34 -0.34 0.68 0 0 Z " fill="#F3B38F" transform="translate(222,192)"/>
<path d="M0 0 C0.66 0.33 1.32 0.66 2 1 C2.59355614 3.64860427 2.74209269 6.29197322 3 9 C1.66666667 9 0.33333333 9 -1 9 C-1.125 2.25 -1.125 2.25 0 0 Z " fill="#DFBA9C" transform="translate(238,265)"/>
<path d="M0 0 C0.66 0.66 1.32 1.32 2 2 C-4.625 4.125 -4.625 4.125 -8 3 C-8.99 2.34 -9.98 1.68 -11 1 C-9.20991533 0.77848451 -7.41781838 0.57317787 -5.625 0.375 C-4.62726563 0.25898438 -3.62953125 0.14296875 -2.6015625 0.0234375 C-1.74304688 0.01570313 -0.88453125 0.00796875 0 0 Z " fill="#F47C9A" transform="translate(255,313)"/>
<path d="M0 0 C0.66 0 1.32 0 2 0 C1.88652381 1.97986082 1.7589065 3.95891598 1.625 5.9375 C1.55539063 7.03964844 1.48578125 8.14179688 1.4140625 9.27734375 C1.27742187 10.17582031 1.14078125 11.07429688 1 12 C0.01 12.495 0.01 12.495 -1 13 C-1 12.34 -1 11.68 -1 11 C-1.66 11 -2.32 11 -3 11 C-2.67 9.68 -2.34 8.36 -2 7 C-1.67 7 -1.34 7 -1 7 C-0.67 4.69 -0.34 2.38 0 0 Z " fill="#E3A2A0" transform="translate(184,284)"/>
<path d="M0 0 C0.52078125 0.32742187 1.0415625 0.65484375 1.578125 0.9921875 C4.74712009 2.31089836 7.3298619 2.19340276 10.75 2.125 C11.92046875 2.10695312 13.0909375 2.08890625 14.296875 2.0703125 C15.18890625 2.04710937 16.0809375 2.02390625 17 2 C14.22190605 4.77809395 12.43244797 4.29955703 8.5625 4.3125 C6.83193359 4.33763672 6.83193359 4.33763672 5.06640625 4.36328125 C2 4 2 4 0.08984375 2.48046875 C-0.26980469 1.99191406 -0.62945312 1.50335938 -1 1 C-0.67 0.67 -0.34 0.34 0 0 Z " fill="#F1908C" transform="translate(293,235)"/>
<path d="M0 0 C-0.33 0.66 -0.66 1.32 -1 2 C-1.66 2 -2.32 2 -3 2 C-3 2.66 -3 3.32 -3 4 C-4.32 4 -5.64 4 -7 4 C-7 2.68 -7 1.36 -7 0 C-4.3333581 -1.33332095 -2.83319697 -0.67102033 0 0 Z " fill="#F99697" transform="translate(230,236)"/>
<path d="M0 0 C0.33 0.99 0.66 1.98 1 3 C-1.57784846 5.64752004 -3.91648098 7.94432065 -7 10 C-7.66 9.34 -8.32 8.68 -9 8 C-8.43410156 7.50628906 -7.86820312 7.01257813 -7.28515625 6.50390625 C-6.55167969 5.86324219 -5.81820313 5.22257813 -5.0625 4.5625 C-4.33160156 3.92441406 -3.60070312 3.28632813 -2.84765625 2.62890625 C-1.87860647 1.77458541 -0.91348825 0.91348825 0 0 Z " fill="#F0AE9B" transform="translate(298,227)"/>
<path d="M0 0 C2.64 0.66 5.28 1.32 8 2 C8 2.99 8 3.98 8 5 C3.48279689 5.36625971 3.48279689 5.36625971 1.1875 3.625 C0 2 0 2 0 0 Z " fill="#E4578F" transform="translate(250,267)"/>
<path d="M0 0 C1.98 0.99 1.98 0.99 4 2 C3.37611108 5.61855575 2.8290723 6.1709277 0 9 C0 6.03 0 3.06 0 0 Z " fill="#F49C94" transform="translate(300,206)"/>
<path d="M0 0 C0.33 0.66 0.66 1.32 1 2 C1.66 2 2.32 2 3 2 C2.50168276 5.68754757 1.89932357 7.60490662 -1 10 C-1.66 9.67 -2.32 9.34 -3 9 C-2.34 8.34 -1.68 7.68 -1 7 C-0.59952556 4.67724823 -0.2602896 2.34260643 0 0 Z " fill="#EC8789" transform="translate(219,267)"/>
<path d="M0 0 C2.625 1.4375 2.625 1.4375 5 3 C4.34 3.66 3.68 4.32 3 5 C0.375 4.625 0.375 4.625 -2 4 C-2 3.01 -2 2.02 -2 1 C-1.34 0.67 -0.68 0.34 0 0 Z " fill="#C27A8F" transform="translate(240,261)"/>
<path d="M0 0 C3.63 0.66 7.26 1.32 11 2 C11 2.99 11 3.98 11 5 C3.375 3.375 3.375 3.375 0 0 Z " fill="#F3B183" transform="translate(271,260)"/>
<path d="M0 0 C-0.6875 2.375 -0.6875 2.375 -2 5 C-4.88231132 6.51700596 -7.82908279 7.29535173 -11 8 C-3.28571429 0 -3.28571429 0 0 0 Z " fill="#DA7F98" transform="translate(299,215)"/>
<path d="M0 0 C0.99 0.99 1.98 1.98 3 3 C3.66 2.01 4.32 1.02 5 0 C5.33 3.3 5.66 6.6 6 10 C5.67 9.34 5.34 8.68 5 8 C4.34 8 3.68 8 3 8 C0 2.25 0 2.25 0 0 Z " fill="#E99894" transform="translate(226,209)"/>
<path d="M0 0 C5.875 2.75 5.875 2.75 7 5 C6.34 5 5.68 5 5 5 C5 5.66 5 6.32 5 7 C4.01 6.67 3.02 6.34 2 6 C0.8125 2.9375 0.8125 2.9375 0 0 Z " fill="#E7B1A0" transform="translate(159,195)"/>
<path d="M0 0 C-1.12451727 2.9719385 -2.22293791 5.33440687 -4 8 C-4.66 8 -5.32 8 -6 8 C-5.42415568 5.61435923 -4.77772405 3.33317216 -4 1 C-2 0 -2 0 0 0 Z " fill="#E68C96" transform="translate(180,259)"/>
<path d="M0 0 C0.66 0.33 1.32 0.66 2 1 C-2.75 5 -2.75 5 -5 5 C-5.33 5.99 -5.66 6.98 -6 8 C-6.99 8.33 -7.98 8.66 -9 9 C-9 8.01 -9 7.02 -9 6 C-7.03125 4.39453125 -7.03125 4.39453125 -4.5 2.8125 C-3.6646875 2.28269531 -2.829375 1.75289062 -1.96875 1.20703125 C-1.3190625 0.80871094 -0.669375 0.41039062 0 0 Z " fill="#E3C3A1" transform="translate(271,228)"/>
<path d="M0 0 C0.66 0.33 1.32 0.66 2 1 C0.76265016 2.03613033 -0.49044637 3.05347802 -1.75 4.0625 C-2.79414063 4.91521484 -2.79414063 4.91521484 -3.859375 5.78515625 C-6 7 -6 7 -8.265625 6.68359375 C-8.83796875 6.45800781 -9.4103125 6.23242188 -10 6 C-8.3811004 4.96951963 -6.75467511 3.95085322 -5.125 2.9375 C-4.22007812 2.36902344 -3.31515625 1.80054688 -2.3828125 1.21484375 C-1.20332031 0.61349609 -1.20332031 0.61349609 0 0 Z " fill="#E1B199" transform="translate(185,275)"/>
<path d="M0 0 C0.20625 0.639375 0.4125 1.27875 0.625 1.9375 C1.89538209 4.34925077 1.89538209 4.34925077 5.125 4.75 C6.07375 4.8325 7.0225 4.915 8 5 C8 5.33 8 5.66 8 6 C2.375 6.25 2.375 6.25 -1 4 C-0.67 2.68 -0.34 1.36 0 0 Z " fill="#F3AF85" transform="translate(242,250)"/>
<path d="M0 0 C0.66 0.33 1.32 0.66 2 1 C2 2.66666667 2 4.33333333 2 6 C1.34 6 0.68 6 0 6 C0 5.34 0 4.68 0 4 C-1.32 4.99 -2.64 5.98 -4 7 C-4.33 6.01 -4.66 5.02 -5 4 C-3.35 2.68 -1.7 1.36 0 0 Z " fill="#EFB79A" transform="translate(267,247)"/>
<path d="M0 0 C0.33 0.99 0.66 1.98 1 3 C0.01 3.66 -0.98 4.32 -2 5 C-4.6875 4.125 -4.6875 4.125 -7 3 C-5.40442685 -0.19114631 -3.35905282 0 0 0 Z " fill="#E5A49C" transform="translate(331,239)"/>
<path d="M0 0 C4.67692308 1.47692308 4.67692308 1.47692308 6.3125 4.125 C6.539375 4.74375 6.76625 5.3625 7 6 C5.02 6 3.04 6 1 6 C0.67 4.02 0.34 2.04 0 0 Z " fill="#DDA88F" transform="translate(205,223)"/>
<path d="M0 0 C1 2 1 2 0.875 4.375 C-0.26735106 7.80205319 -2.08114387 8.97925345 -5 11 C-4.42655063 8.13275314 -4.1385485 7.1385485 -2 5 C-1.29289322 3.35008418 -0.62056011 1.68437744 0 0 Z " fill="#F0BDA8" transform="translate(304,218)"/>
<path d="M0 0 C-3.28804981 2.91227269 -5.59885603 4.49701212 -10 5 C-7.30888151 0.96332227 -4.89232235 -1.63077412 0 0 Z " fill="#EA7693" transform="translate(296,221)"/>
<path d="M0 0 C0.33 0 0.66 0 1 0 C1.33 3.63 1.66 7.26 2 11 C0.68 11 -0.64 11 -2 11 C-1.34 7.37 -0.68 3.74 0 0 Z " fill="#F6D6BC" transform="translate(307,210)"/>
<path d="M0 0 C6.52307692 1.47692308 6.52307692 1.47692308 8.9375 4.125 C9.288125 4.74375 9.63875 5.3625 10 6 C5.56909529 4.79157144 3.01887244 3.48331435 0 0 Z " fill="#E2AEA0" transform="translate(167,200)"/>
<path d="M0 0 C0.99 0 1.98 0 3 0 C3 2.31 3 4.62 3 7 C2.01 7 1.02 7 0 7 C0 4.69 0 2.38 0 0 Z " fill="#C46C7D" transform="translate(239,220)"/>
<path d="M0 0 C6.0546875 -0.1953125 6.0546875 -0.1953125 8 0 C8.66 0.66 9.32 1.32 10 2 C7 3 7 3 4 2 C3.01 2.33 2.02 2.66 1 3 C0.67 2.01 0.34 1.02 0 0 Z " fill="#EFCE9D" transform="translate(173,171)"/>
<path d="M0 0 C1.31223496 3.93670488 0.24296256 6.12488144 -1 10 C-1.66 10 -2.32 10 -3 10 C-2.69201674 8.51988629 -2.378482 7.04092675 -2.0625 5.5625 C-1.88847656 4.73878906 -1.71445313 3.91507812 -1.53515625 3.06640625 C-1 1 -1 1 0 0 Z " fill="#DFA99B" transform="translate(237,276)"/>
<path d="M0 0 C0.66 0.33 1.32 0.66 2 1 C-0.20979308 3.81939117 -2.40062046 6.53058944 -5 9 C-4.5206753 4.68607774 -3.2542015 2.83430453 0 0 Z " fill="#ED8997" transform="translate(244,317)"/>
<path d="M0 0 C2.875 0.3125 2.875 0.3125 6 1 C6.66 1.99 7.32 2.98 8 4 C5.6875 4.25 5.6875 4.25 3 4 C1.1875 2 1.1875 2 0 0 Z " fill="#E6979C" transform="translate(172,205)"/>
<path d="M0 0 C-1.45381897 0.69699552 -2.91322953 1.38233866 -4.375 2.0625 C-5.18710938 2.44535156 -5.99921875 2.82820313 -6.8359375 3.22265625 C-7.55007812 3.47917969 -8.26421875 3.73570312 -9 4 C-9.66 3.67 -10.32 3.34 -11 3 C-7.17860188 -0.1390056 -4.83859894 -1.61286631 0 0 Z " fill="#D7B39C" transform="translate(166,263)"/>
<path d="M0 0 C0 3.61029169 -0.96092582 6.55806676 -2 10 C-2.66 8.68 -3.32 7.36 -4 6 C-2.68 4.02 -1.36 2.04 0 0 Z " fill="#ED878B" transform="translate(212,262)"/>
<path d="M0 0 C0.66 0 1.32 0 2 0 C1.67 2.31 1.34 4.62 1 7 C0.34 7 -0.32 7 -1 7 C-1.04254356 5.00045254 -1.04080783 2.99958364 -1 1 C-0.67 0.67 -0.34 0.34 0 0 Z " fill="#E1B398" transform="translate(258,253)"/>
<path d="M0 0 C0.66 0.33 1.32 0.66 2 1 C2 1.66 2 2.32 2 3 C2.66 3.33 3.32 3.66 4 4 C1.36 4.33 -1.28 4.66 -4 5 C-2.68 3.35 -1.36 1.7 0 0 Z " fill="#F5C29F" transform="translate(277,243)"/>
<path d="M0 0 C4 0 4 0 5.625 1.375 C6.07875 1.91125 6.5325 2.4475 7 3 C7.66 3.66 8.32 4.32 9 5 C4.68607774 4.5206753 2.83430453 3.2542015 0 0 Z " fill="#ED8697" transform="translate(188,226)"/>
<path d="M0 0 C2.475 0.495 2.475 0.495 5 1 C5 1.66 5 2.32 5 3 C5.66 3.33 6.32 3.66 7 4 C6.34 4.66 5.68 5.32 5 6 C3.35 4.02 1.7 2.04 0 0 Z " fill="#F6D1B3" transform="translate(328,227)"/>
</svg>
