<?xml version="1.0" encoding="UTF-8"?>
<svg version="1.1" xmlns="http://www.w3.org/2000/svg" width="500" height="500">
<path d="M0 0 C3.26389762 5.04003468 5.62312604 10.43633663 8 15.9375 C9.3154441 18.96661835 10.64724858 21.98735389 12 25 C12.495 26.12752686 12.495 26.12752686 13 27.27783203 C13.33 27.99181152 13.66 28.70579102 14 29.44140625 C14.28875 30.07892822 14.5775 30.7164502 14.875 31.37329102 C16.81273876 34.17519061 19.21678495 34.82556267 22.4543457 35.54663086 C23.35241943 35.68464111 24.25049316 35.82265137 25.17578125 35.96484375 C26.16900391 36.12533203 27.16222656 36.28582031 28.18554688 36.45117188 C30.25814813 36.77351898 32.33106314 37.09385555 34.40429688 37.41210938 C40.85693457 38.45904671 46.52652065 39.61198295 52 43.375 C53 45 53 45 53.0625 47.25 C50.64925503 53.49604581 45.25477776 58.05891668 40 62 C39.34 62 38.68 62 38 62 C38 62.66 38 63.32 38 64 C36.28515625 65.4375 36.28515625 65.4375 34.0625 67 C31.01367363 69.04816804 31.01367363 69.04816804 29 72 C28.40746007 79.08808669 29.50651067 85.72265741 31 92.625 C32.33492699 98.84864608 33.45087327 104.61732523 33 111 C31 114 31 114 29.109375 114.5390625 C16.72232821 114.99024632 6.35497515 106.93654825 -2.96484375 99.625 C-6.86686269 97.53588818 -8.77719355 97.86327661 -13 99 C-15.43919566 100.14596971 -15.43919566 100.14596971 -17.625 101.6875 C-25.47929315 106.65189292 -33.6087719 111.23132297 -43 112 C-44.485 111.505 -44.485 111.505 -46 111 C-50.23134759 102.53730481 -46.1582156 90.42290791 -43.69091797 81.93017578 C-42.37976158 77.28538353 -41.48770337 73.75393246 -43 69 C-44.29341042 66.86084222 -44.29341042 66.86084222 -46.0625 65.0625 C-46.69285156 64.381875 -47.32320312 63.70125 -47.97265625 63 C-49.91352763 61.08530608 -51.91525438 59.31807526 -54 57.5625 C-59.33332865 52.98810505 -64.92327827 47.84448657 -66.0625 40.625 C-66 37 -66 37 -64 34 C-59.95546017 32.28862761 -56.37408726 31.72974405 -52.0078125 31.62109375 C-50.33138672 31.56985352 -50.33138672 31.56985352 -48.62109375 31.51757812 C-47.46738281 31.49115234 -46.31367188 31.46472656 -45.125 31.4375 C-38.01955394 31.24967325 -31.03664914 31.04598839 -24 30 C-23.73832031 29.15179688 -23.47664063 28.30359375 -23.20703125 27.4296875 C-20.0865698 18.56313361 -15.38957326 9.69939036 -10 2 C-9.34 2 -8.68 2 -8 2 C-8 1.34 -8 0.68 -8 0 C-4.92839759 -1.5358012 -3.23503763 -1.03521204 0 0 Z " fill="#411854" transform="translate(250,217)"/>
<path d="M0 0 C3.26389762 5.04003468 5.62312604 10.43633663 8 15.9375 C9.3154441 18.96661835 10.64724858 21.98735389 12 25 C12.495 26.12752686 12.495 26.12752686 13 27.27783203 C13.33 27.99181152 13.66 28.70579102 14 29.44140625 C14.28875 30.07892822 14.5775 30.7164502 14.875 31.37329102 C16.81273876 34.17519061 19.21678495 34.82556267 22.4543457 35.54663086 C23.35241943 35.68464111 24.25049316 35.82265137 25.17578125 35.96484375 C26.16900391 36.12533203 27.16222656 36.28582031 28.18554688 36.45117188 C30.25814813 36.77351898 32.33106314 37.09385555 34.40429688 37.41210938 C40.85693457 38.45904671 46.52652065 39.61198295 52 43.375 C53 45 53 45 53.0625 47.25 C50.64925503 53.49604581 45.25477776 58.05891668 40 62 C39.34 62 38.68 62 38 62 C38 62.66 38 63.32 38 64 C36.28515625 65.4375 36.28515625 65.4375 34.0625 67 C31.01367363 69.04816804 31.01367363 69.04816804 29 72 C28.40108125 79.14088734 29.5169971 85.85340871 31 92.8125 C31.37925706 94.6306276 31.75439976 96.44961934 32.125 98.26953125 C32.29257812 99.05948486 32.46015625 99.84943848 32.6328125 100.66333008 C33.02267378 103.14428904 33.06220407 105.4926763 33 108 C30.28959071 108.88382912 28.79143136 109.27464888 26 109 C22.36646422 107.06494505 19.24432317 104.51962968 16 102 C14.15153732 100.72088425 12.29756383 99.44968617 10.4375 98.1875 C6.12307692 95.24615385 6.12307692 95.24615385 5 93 C11.75 94.625 11.75 94.625 14 98 C15.95385067 98.78988145 15.95385067 98.78988145 18.125 99.1875 C19.40375 99.455625 20.6825 99.72375 22 100 C22 100.66 22 101.32 22 102 C22.99 102 23.98 102 25 102 C24.67 101.34 24.34 100.68 24 100 C23.72824182 97.40751328 23.55427432 94.81551489 23.37890625 92.21484375 C23.25386719 91.48394531 23.12882812 90.75304687 23 90 C22.34 89.67 21.68 89.34 21 89 C17.07179697 72.26876488 17.07179697 72.26876488 20.75 65.1875 C22.96069244 62.05568572 23.69744904 61.44486605 27 60 C27.9590625 58.7934375 27.9590625 58.7934375 28.9375 57.5625 C31.11275993 54.85990433 33.05918105 53.76449137 36 52 C38.27537692 49.42816686 38.27537692 49.42816686 40 47 C35.02936879 46.08702692 30.97063121 46.08702692 26 47 C25.67 46.01 25.34 45.02 25 44 C23.96875 44.268125 22.9375 44.53625 21.875 44.8125 C17.47317092 45.02549173 17.47317092 45.02549173 14.6875 42.625 C13.800625 41.75875 12.91375 40.8925 12 40 C11.34 39.67 10.68 39.34 10 39 C9.25390625 37.1796875 9.25390625 37.1796875 8.5625 34.875 C7.62373416 31.8671176 6.61270361 28.99526079 5.3125 26.125 C4 23 4 23 4 20 C3.34 20 2.68 20 2 20 C1.01 16.535 1.01 16.535 0 13 C-3.77107374 20.54214749 -2.1539577 31.45023937 -2.13037109 39.74365234 C-2.12494483 42.02317757 -2.13037998 44.30251149 -2.13671875 46.58203125 C-2.13605905 48.0338546 -2.13478013 49.48567783 -2.1328125 50.9375 C-2.13112061 52.90009766 -2.13112061 52.90009766 -2.12939453 54.90234375 C-2.21553316 57.91017926 -2.21553316 57.91017926 -1 60 C-1.33 60.99 -1.66 61.98 -2 63 C-2.94875 63.45375 -3.8975 63.9075 -4.875 64.375 C-8.43120594 66.22422709 -9.05488602 67.61719308 -11 71 C-15.05376344 74.11827957 -15.05376344 74.11827957 -18 73.75 C-18.66 73.5025 -19.32 73.255 -20 73 C-21.66394675 72.65334443 -23.33044171 72.31853415 -25 72 C-25.27714844 71.07316406 -25.55429688 70.14632812 -25.83984375 69.19140625 C-26.38318359 67.39509766 -26.38318359 67.39509766 -26.9375 65.5625 C-27.47697266 63.77005859 -27.47697266 63.77005859 -28.02734375 61.94140625 C-28.70889142 59.14132455 -28.70889142 59.14132455 -30 58 C-31.19625 57.95875 -32.3925 57.9175 -33.625 57.875 C-38.25176906 57.34810815 -40.17032521 55.35411072 -43.203125 51.98046875 C-45.10430716 49.88503536 -47.11657787 48.0445116 -49.25 46.1875 C-49.89453125 45.62417969 -50.5390625 45.06085938 -51.203125 44.48046875 C-55.34439673 41.06842096 -57.70249384 40.80009411 -63 41 C-63 40.34 -63 39.68 -63 39 C-64.485 39.495 -64.485 39.495 -66 40 C-65.9375 37.6875 -65.9375 37.6875 -65 35 C-58.68235349 31.25787131 -52.2522493 31.48828811 -45.0625 31.375 C-37.9733877 31.21488453 -31.01948079 31.0507689 -24 30 C-23.73832031 29.15179688 -23.47664063 28.30359375 -23.20703125 27.4296875 C-20.0865698 18.56313361 -15.38957326 9.69939036 -10 2 C-9.34 2 -8.68 2 -8 2 C-8 1.34 -8 0.68 -8 0 C-4.92839759 -1.5358012 -3.23503763 -1.03521204 0 0 Z " fill="#54198C" transform="translate(250,217)"/>
<path d="M0 0 C4.31102554 0.10514696 6.44987573 1.11918265 9.375 4.125 C9.9525 4.74890625 10.53 5.3728125 11.125 6.015625 C13.71221739 8.75376341 16.54626159 11.16145303 19.3984375 13.6171875 C20.28852819 14.38570483 21.16847119 15.16847119 22 16 C23.99595191 16.16096386 25.99261581 16.3187931 27.9921875 16.42578125 C30.82332383 17.23546421 31.53403904 18.48630811 33 21 C33.7734375 23.5078125 33.7734375 23.5078125 34.375 26.125 C35.40055372 30.02983928 35.40055372 30.02983928 38.3125 32.6875 C42.18077592 33.13729953 45.46586159 33.13639882 48.6875 30.75 C50.12170258 28.94061855 50.12170258 28.94061855 51.3125 26.4375 C53.47921109 23.30780621 55.37759808 22.88547602 59 22 C57.47987167 25.45483712 55.37385365 28.31495464 53.12109375 31.31640625 C51.81448821 33.11886765 51.81448821 33.11886765 51 36 C49.906875 36.70125 48.81375 37.4025 47.6875 38.125 C43.21569027 41.11540774 41.73552791 45.0521285 40 50 C41.299375 49.505 41.299375 49.505 42.625 49 C48.5629676 47.25426211 54.87784069 47.8471583 61 48 C61.33 48.99 61.66 49.98 62 51 C60.05673828 50.85111328 60.05673828 50.85111328 58.07421875 50.69921875 C52.35860184 50.70257495 48.59079354 52.88360566 43.8125 55.8125 C42.27787684 56.71575007 40.74273138 57.61811344 39.20703125 58.51953125 C38.48636475 58.9484668 37.76569824 59.37740234 37.02319336 59.81933594 C32.12626366 62.67701085 27.47829193 64.55290402 22 66 C20.515 66.495 20.515 66.495 19 67 C16.8125 66.0625 16.8125 66.0625 15 65 C14.43016159 57.02226226 16.55452613 49.66438364 18.5 42 C18.83809052 40.6395341 19.17533746 39.27885827 19.51171875 37.91796875 C20.33288952 34.60982366 21.16253276 31.3040501 22 28 C22.66 28 23.32 28 24 28 C22.1940695 22.46933785 19.93333758 19.69620995 15.46875 16.03125 C12.41942836 13.52231448 9.48756071 10.90177609 6.5625 8.25 C6.03019775 7.77788086 5.49789551 7.30576172 4.94946289 6.81933594 C2.46261144 4.56639426 1.08006908 3.24020724 0 0 Z " fill="#1F2050" transform="translate(190,257)"/>
<path d="M0 0 C4.73077618 2.25768914 6.05296905 4.48919326 7.9375 9.3125 C8.18491943 9.92262939 8.43233887 10.53275879 8.68725586 11.16137695 C9.73915313 13.75676502 10.75295798 16.36658301 11.77050781 18.97558594 C12.52150315 20.88504168 13.29143648 22.78607895 14.0625 24.6875 C14.50722656 25.82574219 14.95195312 26.96398437 15.41015625 28.13671875 C17.25160536 31.45313693 18.56082033 32.47683498 22 34 C24.57231172 34.70866667 24.57231172 34.70866667 27.2734375 35.0625 C28.2634375 35.21976563 29.2534375 35.37703125 30.2734375 35.5390625 C31.29695313 35.69117188 32.32046875 35.84328125 33.375 36 C47.88849558 38.17334071 47.88849558 38.17334071 54 42.375 C55 44 55 44 55.0625 46.25 C52.64925503 52.49604581 47.25477776 57.05891668 42 61 C41.34 61 40.68 61 40 61 C40 61.66 40 62.32 40 63 C38.28515625 64.4375 38.28515625 64.4375 36.0625 66 C33.01367363 68.04816804 33.01367363 68.04816804 31 71 C30.40108125 78.14088734 31.5169971 84.85340871 33 91.8125 C33.37925706 93.6306276 33.75439976 95.44961934 34.125 97.26953125 C34.29257812 98.05948486 34.46015625 98.84943848 34.6328125 99.66333008 C35.02267378 102.14428904 35.06220407 104.4926763 35 107 C32.28959071 107.88382912 30.79143136 108.27464888 28 108 C24.36646422 106.06494505 21.24432317 103.51962968 18 101 C16.15153732 99.72088425 14.29756383 98.44968617 12.4375 97.1875 C8.12307692 94.24615385 8.12307692 94.24615385 7 92 C13.75 93.625 13.75 93.625 16 97 C17.95385067 97.78988145 17.95385067 97.78988145 20.125 98.1875 C22.043125 98.5896875 22.043125 98.5896875 24 99 C24 99.66 24 100.32 24 101 C24.99 101 25.98 101 27 101 C26.505 100.01 26.505 100.01 26 99 C25.72824182 96.40751328 25.55427432 93.81551489 25.37890625 91.21484375 C25.25386719 90.48394531 25.12882812 89.75304687 25 89 C24.34 88.67 23.68 88.34 23 88 C19.07179697 71.26876488 19.07179697 71.26876488 22.75 64.1875 C24.96069244 61.05568572 25.69744904 60.44486605 29 59 C29.639375 58.195625 30.27875 57.39125 30.9375 56.5625 C33.11275993 53.85990433 35.05918105 52.76449137 38 51 C40.27537692 48.42816686 40.27537692 48.42816686 42 46 C37.02936879 45.08702692 32.97063121 45.08702692 28 46 C27.67 45.01 27.34 44.02 27 43 C25.96875 43.268125 24.9375 43.53625 23.875 43.8125 C19.47317092 44.02549173 19.47317092 44.02549173 16.6875 41.625 C15.800625 40.75875 14.91375 39.8925 14 39 C13.34 38.67 12.68 38.34 12 38 C12.33 37.01 12.66 36.02 13 35 C14.32 35.66 15.64 36.32 17 37 C17.33 36.34 17.66 35.68 18 35 C17.09894531 34.69835937 17.09894531 34.69835937 16.1796875 34.390625 C13.05907819 32.39969863 12.48013284 30.16462851 11.125 26.75 C10.61239125 25.48550995 10.09935762 24.22119208 9.5859375 22.95703125 C9.32651367 22.30557129 9.06708984 21.65411133 8.79980469 20.98291016 C7.50658118 17.77669486 6.12481567 14.60936575 4.75 11.4375 C3.1179763 7.64260617 1.51693525 3.8424256 0 0 Z " fill="#430B64" transform="translate(248,218)"/>
<path d="M0 0 C0.66 0 1.32 0 2 0 C2 0.66 2 1.32 2 2 C2.99 1.67 3.98 1.34 5 1 C5.72703125 1.85271484 5.72703125 1.85271484 6.46875 2.72265625 C11.45309945 8.46424341 16.62169393 13.78407607 22.765625 18.296875 C27.05482683 21.50336569 28.00478262 23.92439137 29 29 C28.34 29 27.68 29 27 29 C26.90203125 29.66902344 26.8040625 30.33804687 26.703125 31.02734375 C25.6068704 38.06794443 24.13937377 44.95194663 22.40917969 51.85913086 C21.25324936 56.56358912 20.52387723 61.18248976 20 66 C22.85778033 66.68493373 22.85778033 66.68493373 26 67 C27.485 66.01 27.485 66.01 29 65 C30.60875 64.56494141 30.60875 64.56494141 32.25 64.12109375 C36.21654377 62.93526244 39.49263967 61.19588323 43 59.0625 C54.87733513 51.91754059 54.87733513 51.91754059 60.1171875 52.12109375 C63.21327219 53.06502201 65.44033486 54.26040826 68.125 56.0625 C69.07375 56.68640625 70.0225 57.3103125 71 57.953125 C73.03370034 59.34070179 75.05427632 60.74767555 77.0625 62.171875 C83.07305842 66.37313267 87.6918592 69.02558123 95 70 C95.495 68.02 95.495 68.02 96 66 C96 66.99 96 67.98 96 69 C96.66 69 97.32 69 98 69 C97.125 73.875 97.125 73.875 96 75 C86.97542713 76.73020133 79.45078113 72.63194949 72 68 C68.5940288 65.64754702 65.29182372 63.17990816 62.03515625 60.625 C58.13313731 58.53588818 56.22280645 58.86327661 52 60 C49.56080434 61.14596971 49.56080434 61.14596971 47.375 62.6875 C39.52070685 67.65189292 31.3912281 72.23132297 22 73 C20.515 72.505 20.515 72.505 19 72 C14.76865241 63.53730481 18.8417844 51.42290791 21.30908203 42.93017578 C22.62023842 38.28538353 23.51229663 34.75393246 22 30 C20.70658958 27.86084222 20.70658958 27.86084222 18.9375 26.0625 C18.30714844 25.381875 17.67679688 24.70125 17.02734375 24 C15.08647237 22.08530608 13.08474562 20.31807526 11 18.5625 C5.50301882 13.8798864 -0.19691878 8.46993011 -1 1 C-0.67 0.67 -0.34 0.34 0 0 Z " fill="#040210" transform="translate(185,256)"/>
<path d="M0 0 C0.99 0 1.98 0 3 0 C1.42877551 3.28605552 -0.36619184 6.42557316 -2.17382812 9.5847168 C-8.52056232 20.05052024 -8.52056232 20.05052024 -12.5 31.5 C-13.33154142 35.65770708 -14.53502345 39.51431485 -17 43 C-19.77613991 44.39072401 -21.8579313 44.63342532 -25 45 C-24.91621094 45.78246094 -24.83242187 46.56492187 -24.74609375 47.37109375 C-24.59333984 48.88896484 -24.59333984 48.88896484 -24.4375 50.4375 C-24.28087891 51.95150391 -24.28087891 51.95150391 -24.12109375 53.49609375 C-24.06115234 54.73552734 -24.06115234 54.73552734 -24 56 C-25 57 -25 57 -27.125 57.5 C-31.04767486 56.81779568 -32.44631656 54.87002134 -35.09765625 52.015625 C-37.05507971 49.94164039 -39.10260919 48.06301931 -41.25 46.1875 C-41.89453125 45.62417969 -42.5390625 45.06085938 -43.203125 44.48046875 C-47.34439673 41.06842096 -49.70249384 40.80009411 -55 41 C-55 40.34 -55 39.68 -55 39 C-56.485 39.495 -56.485 39.495 -58 40 C-57.9375 37.6875 -57.9375 37.6875 -57 35 C-50.68235349 31.25787131 -44.2522493 31.48828811 -37.0625 31.375 C-29.9733877 31.21488453 -23.01948079 31.0507689 -16 30 C-15.73832031 29.15179688 -15.47664063 28.30359375 -15.20703125 27.4296875 C-12.0865698 18.56313361 -7.38957326 9.69939036 -2 2 C-1.34 2 -0.68 2 0 2 C0 1.34 0 0.68 0 0 Z " fill="#5C1A7D" transform="translate(242,217)"/>
<path d="M0 0 C0.99 0.33 1.98 0.66 3 1 C3 1.66 3 2.32 3 3 C3.99 3 4.98 3 6 3 C6 4.98 6 6.96 6 9 C6.99 9 7.98 9 9 9 C10.60745059 12.21490118 10.40305242 14.4301071 10 18 C7.53593179 22.45458586 4.83984525 26.10743322 0 28 C-1.9375 27.6875 -1.9375 27.6875 -4 27 C-5.66454101 26.65620921 -7.33104742 26.32169267 -9 26 C-9.26554688 25.13117188 -9.53109375 24.26234375 -9.8046875 23.3671875 C-10.33449219 21.63855469 -10.33449219 21.63855469 -10.875 19.875 C-11.22304687 18.73804688 -11.57109375 17.60109375 -11.9296875 16.4296875 C-12.6190549 14.22069268 -13.34806385 12.02348754 -14.125 9.84375 C-15.29728316 6.03382974 -15.13667383 2.96354101 -15 -1 C-9.55534836 -2.2810945 -4.9567568 -2.90568502 0 0 Z " fill="#3E21B5" transform="translate(234,263)"/>
<path d="M0 0 C4.31102554 0.10514696 6.44987573 1.11918265 9.375 4.125 C9.9525 4.74890625 10.53 5.3728125 11.125 6.015625 C13.71221739 8.75376341 16.54626159 11.16145303 19.3984375 13.6171875 C20.28852819 14.38570483 21.16847119 15.16847119 22 16 C23.27875 16.103125 24.5575 16.20625 25.875 16.3125 C29.74257991 16.76832192 29.74257991 16.76832192 31.875 18.6875 C34.24811171 23.56556297 35.25931726 27.5543375 35 33 C34.34 33 33.68 33 33 33 C33 33.66 33 34.32 33 35 C33.99 35 34.98 35 36 35 C36 35.66 36 36.32 36 37 C37.32 37.33 38.64 37.66 40 38 C37.84662509 45.53681219 33.08539436 52.2347371 26.5 56.625 C25.675 57.07875 24.85 57.5325 24 58 C21.16800614 53.75200921 22.09431526 50.86248776 23 46 C24.55831526 38.80544057 24.55831526 38.80544057 26 36 C28.10546875 35.21875 28.10546875 35.21875 30 35 C30.33 33.68 30.66 32.36 31 31 C30.01 31 29.02 31 28 31 C27.67 32.32 27.34 33.64 27 35 C27 33.02 27 31.04 27 29 C26.01 29 25.02 29 24 29 C23.67 27.824375 23.34 26.64875 23 25.4375 C21.34536469 21.07597283 19.04825652 18.88774734 15.46875 15.99609375 C12.40202578 13.51651135 9.48163497 10.90031878 6.5625 8.25 C6.03019775 7.77780029 5.49789551 7.30560059 4.94946289 6.8190918 C2.46241788 4.5663774 1.08005716 3.24017147 0 0 Z " fill="#400D55" transform="translate(190,257)"/>
<path d="M0 0 C0.66 0 1.32 0 2 0 C2 0.66 2 1.32 2 2 C2.99 1.67 3.98 1.34 5 1 C5.72703125 1.85271484 5.72703125 1.85271484 6.46875 2.72265625 C11.45309945 8.46424341 16.62169393 13.78407607 22.765625 18.296875 C27.05482683 21.50336569 28.00478262 23.92439137 29 29 C28.34 29 27.68 29 27 29 C26.90203125 29.66902344 26.8040625 30.33804687 26.703125 31.02734375 C25.6068704 38.06794443 24.13937377 44.95194663 22.40917969 51.85913086 C21.25324936 56.56358912 20.52387723 61.18248976 20 66 C20.66 66.33 21.32 66.66 22 67 C21.34 67 20.68 67 20 67 C19.67 67.66 19.34 68.32 19 69 C17.25505377 59.53237097 18.57864456 52.10017933 21.25854492 42.98144531 C22.59589379 38.31612516 23.53057987 34.78218041 22 30 C20.70658958 27.86084222 20.70658958 27.86084222 18.9375 26.0625 C18.30714844 25.381875 17.67679688 24.70125 17.02734375 24 C15.08647237 22.08530608 13.08474562 20.31807526 11 18.5625 C5.50301882 13.8798864 -0.19691878 8.46993011 -1 1 C-0.67 0.67 -0.34 0.34 0 0 Z " fill="#080510" transform="translate(185,256)"/>
<path d="M0 0 C0.99 0 1.98 0 3 0 C1.42877551 3.28605552 -0.36619184 6.42557316 -2.17382812 9.5847168 C-9.02850329 21.21430429 -9.02850329 21.21430429 -13 34 C-13.66 34.99 -14.32 35.98 -15 37 C-17.9795099 37.26653946 -20.7488582 37.34767784 -23.7265625 37.29296875 C-24.58937836 37.28872391 -25.45219421 37.28447906 -26.34115601 37.28010559 C-29.10275197 37.26328392 -31.86362383 37.22562598 -34.625 37.1875 C-36.49478114 37.17245764 -38.3645737 37.15876846 -40.234375 37.14648438 C-44.82319658 37.11336906 -49.41147544 37.06156339 -54 37 C-54.33 37.99 -54.66 38.98 -55 40 C-55.99 40 -56.98 40 -58 40 C-57.9375 37.6875 -57.9375 37.6875 -57 35 C-50.68235349 31.25787131 -44.2522493 31.48828811 -37.0625 31.375 C-29.9733877 31.21488453 -23.01948079 31.0507689 -16 30 C-15.73832031 29.15179688 -15.47664063 28.30359375 -15.20703125 27.4296875 C-12.0865698 18.56313361 -7.38957326 9.69939036 -2 2 C-1.34 2 -0.68 2 0 2 C0 1.34 0 0.68 0 0 Z " fill="#701C7B" transform="translate(242,217)"/>
<path d="M0 0 C2.4375 0.375 2.4375 0.375 5 1 C5.33 1.66 5.66 2.32 6 3 C6.99 3 7.98 3 9 3 C8.67 4.65 8.34 6.3 8 8 C7.01 8.33 6.02 8.66 5 9 C3.7055388 11.67830933 3.7055388 11.67830933 2.75 14.875 C2.39421875 15.94492187 2.0384375 17.01484375 1.671875 18.1171875 C0.72436193 21.04526173 0.72436193 21.04526173 2 24 C2.34820041 25.66362417 2.68404492 27.32995171 3 29 C3.45375 28.505 3.9075 28.01 4.375 27.5 C6 26 6 26 8 26 C8 26.66 8 27.32 8 28 C8.66 28 9.32 28 10 28 C10.1875 30.875 10.1875 30.875 10 34 C6.69658177 36.20227882 3.81556611 36.97797336 0 38 C-1.485 38.495 -1.485 38.495 -3 39 C-5.1875 38.0625 -5.1875 38.0625 -7 37 C-7.56983841 29.02226226 -5.44547387 21.66438364 -3.5 14 C-3.16190948 12.6395341 -2.82466254 11.27885827 -2.48828125 9.91796875 C-1.66711048 6.60982366 -0.83746724 3.3040501 0 0 Z " fill="#3D0F5B" transform="translate(212,285)"/>
<path d="M0 0 C3.3 0 6.6 0 10 0 C10 0.66 10 1.32 10 2 C11.423125 2.4021875 11.423125 2.4021875 12.875 2.8125 C16 4 16 4 18 7 C18.30078125 9.33984375 18.30078125 9.33984375 18.3125 11.9375 C18.33763672 13.21947266 18.33763672 13.21947266 18.36328125 14.52734375 C17.93504169 17.4421356 16.92290461 18.81326679 15 21 C12.36 20.67 9.72 20.34 7 20 C6.74605469 19.33613281 6.49210938 18.67226563 6.23046875 17.98828125 C4.07722112 12.42445257 4.07722112 12.42445257 1.25 7.1875 C0 5 0 5 0 0 Z " fill="#4324D8" transform="translate(222,266)"/>
<path d="M0 0 C2.4375 0.8125 2.4375 0.8125 5 2 C5.33 2.99 5.66 3.98 6 5 C6.66 5 7.32 5 8 5 C5.33340066 10.99984852 1.14078067 15.08853645 -4 19 C-4.66 19 -5.32 19 -6 19 C-6 19.66 -6 20.32 -6 21 C-7.6796875 22.33203125 -7.6796875 22.33203125 -9.875 23.8125 C-13.1986993 26.20250992 -15.02854069 27.87129794 -16 32 C-16.99 31.34 -17.98 30.68 -19 30 C-17.5947928 25.46134225 -15.42657701 23.22150029 -11.875 20.125 C-10.8953125 19.26132812 -9.915625 18.39765625 -8.90625 17.5078125 C-7.9471875 16.68023437 -6.988125 15.85265625 -6 15 C-4.45761559 13.66749701 -2.91584517 12.3342826 -1.375 11 C-0.74335938 10.46375 -0.11171875 9.9275 0.5390625 9.375 C2.12184847 8.04365094 2.12184847 8.04365094 3 6 C2.23816406 6.71285156 1.47632813 7.42570312 0.69140625 8.16015625 C-4.7745758 13.24065955 -10.2279211 18.14499714 -16.2578125 22.5625 C-18.25469734 24.06922728 -18.25469734 24.06922728 -20 27 C-20.24270825 30.43307165 -20.24270825 30.43307165 -20.125 34.1875 C-20.10695313 35.45980469 -20.08890625 36.73210937 -20.0703125 38.04296875 C-20.04710937 39.01878906 -20.02390625 39.99460937 -20 41 C-20.33 41 -20.66 41 -21 41 C-23.05496872 35.99101373 -23.78476286 31.34978587 -23 26 C-20.85567304 21.78792919 -19.17807855 19.95847432 -15 18 C-14.38125 17.21625 -13.7625 16.4325 -13.125 15.625 C-10.73050776 12.66709782 -8.20288801 11.019212 -5 9 C-4.34 8.34 -3.68 7.68 -3 7 C-2.01 7 -1.02 7 0 7 C0 4.69 0 2.38 0 0 Z " fill="#632686" transform="translate(294,260)"/>
<path d="M0 0 C4.73077618 2.25768914 6.05296905 4.48919326 7.9375 9.3125 C8.18491943 9.92262939 8.43233887 10.53275879 8.68725586 11.16137695 C9.73915313 13.75676502 10.75295798 16.36658301 11.77050781 18.97558594 C12.52150315 20.88504168 13.29143648 22.78607895 14.0625 24.6875 C14.50722656 25.82574219 14.95195312 26.96398437 15.41015625 28.13671875 C17.25160536 31.45313693 18.56082033 32.47683498 22 34 C24.57231172 34.70866667 24.57231172 34.70866667 27.2734375 35.0625 C28.2634375 35.21976563 29.2534375 35.37703125 30.2734375 35.5390625 C31.29695313 35.69117188 32.32046875 35.84328125 33.375 36 C48.45930576 38.25881736 48.45930576 38.25881736 53.9375 42.5 C55 44 55 44 55 47 C54.01 47 53.02 47 52 47 C51.40058594 46.36465332 50.80117188 45.72930664 50.18359375 45.07470703 C47.45464126 42.48183603 45.76272812 42.27979405 42.0625 41.8046875 C40.92039062 41.64613281 39.77828125 41.48757813 38.6015625 41.32421875 C37.41304688 41.17597656 36.22453125 41.02773438 35 40.875 C32.64503191 40.56594237 30.2908168 40.25107727 27.9375 39.9296875 C26.89464844 39.79804199 25.85179687 39.66639648 24.77734375 39.53076172 C22.16365071 39.03127432 20.28943852 38.323839 18 37 C18 36.34 18 35.68 18 35 C17.09894531 34.69835937 17.09894531 34.69835937 16.1796875 34.390625 C13.05907819 32.39969863 12.48013284 30.16462851 11.125 26.75 C10.61239125 25.48550995 10.09935762 24.22119208 9.5859375 22.95703125 C9.32651367 22.30557129 9.06708984 21.65411133 8.79980469 20.98291016 C7.50658118 17.77669486 6.12481567 14.60936575 4.75 11.4375 C3.1179763 7.64260617 1.51693525 3.8424256 0 0 Z " fill="#502B9E" transform="translate(248,218)"/>
<path d="M0 0 C1.32 0 2.64 0 4 0 C4 0.66 4 1.32 4 2 C5.32 2.33 6.64 2.66 8 3 C5.84662509 10.53681219 1.08539436 17.2347371 -5.5 21.625 C-6.7375 22.305625 -6.7375 22.305625 -8 23 C-10.8216245 18.76756325 -9.93106908 15.84747078 -9 11 C-8.11012087 7.62782644 -7.09861549 4.30966554 -6 1 C-4.7934375 1.0309375 -4.7934375 1.0309375 -3.5625 1.0625 C-1.06645115 1.29633621 -1.06645115 1.29633621 0 0 Z " fill="#290A46" transform="translate(222,292)"/>
<path d="M0 0 C1.32 0.33 2.64 0.66 4 1 C3.67 1.66 3.34 2.32 3 3 C6.55958828 13.67876485 11.04430239 25.44318291 17 35 C17.66 35.33 18.32 35.66 19 36 C18.67 36.99 18.34 37.98 18 39 C14.69937296 37.94117053 13.92393742 36.87523882 12.078125 33.84765625 C11.45627123 32.59204087 10.84723037 31.33001252 10.25 30.0625 C9.93417969 29.42892578 9.61835938 28.79535156 9.29296875 28.14257812 C7.88706823 25.24861408 7 23.25598209 7 20 C6.34 20 5.68 20 5 20 C4.34 17.36 3.68 14.72 3 12 C2.34 12 1.68 12 1 12 C0.89042969 13.13179687 0.78085938 14.26359375 0.66796875 15.4296875 C0.50852939 16.91153564 0.34833382 18.39330256 0.1875 19.875 C0.11724609 20.62136719 0.04699219 21.36773437 -0.02539062 22.13671875 C-0.24710223 24.10551777 -0.61579339 26.05636658 -1 28 C-1.99 28.66 -2.98 29.32 -4 30 C-4.2165625 28.6078125 -4.2165625 28.6078125 -4.4375 27.1875 C-4.92100111 23.99274889 -4.92100111 23.99274889 -6 21 C-5.38968052 16.6923828 -3.98990332 12.84714642 -2 9 C-1.62690101 7.34178227 -1.29299023 5.67422986 -1 4 C-0.67516582 2.66457061 -0.3449145 1.33038449 0 0 Z " fill="#5F1993" transform="translate(247,217)"/>
<path d="M0 0 C0 3 0 3 -1.36328125 4.7265625 C-6.20594821 9.4430678 -11.26175006 13.74969398 -16.58203125 17.921875 C-18.78269725 19.81323899 -20.37898516 21.60886848 -22 24 C-21.69658691 24.52924072 -21.39317383 25.05848145 -21.08056641 25.60375977 C-19.77488816 28.49920305 -19.26655883 31.2119431 -18.7109375 34.33984375 C-18.49179687 35.56767578 -18.27265625 36.79550781 -18.046875 38.06054688 C-17.82515625 39.33994141 -17.6034375 40.61933594 -17.375 41.9375 C-17.14554687 43.21302734 -16.91609375 44.48855469 -16.6796875 45.80273438 C-14.85263382 56.17235153 -14.85263382 56.17235153 -15 61 C-17.475 61.495 -17.475 61.495 -20 62 C-20.08564209 61.34402832 -20.17128418 60.68805664 -20.25952148 60.01220703 C-20.64846501 57.049303 -21.04291273 54.08715747 -21.4375 51.125 C-21.57220703 50.09246094 -21.70691406 49.05992187 -21.84570312 47.99609375 C-21.97783203 47.00996094 -22.10996094 46.02382813 -22.24609375 45.0078125 C-22.36654053 44.09660645 -22.4869873 43.18540039 -22.61108398 42.24658203 C-22.89362951 39.97266576 -22.89362951 39.97266576 -24 38 C-25.98049657 24.85956246 -25.98049657 24.85956246 -23.1875 19.5625 C-21.7734375 18.3046875 -21.7734375 18.3046875 -20 17 C-19.27039063 16.40445312 -18.54078125 15.80890625 -17.7890625 15.1953125 C-16.11166381 13.83540252 -14.41964938 12.49335899 -12.71484375 11.16796875 C-8.30056045 7.6428936 -4.15760558 3.82145875 0 0 Z " fill="#4D556F" transform="translate(298,264)"/>
<path d="M0 0 C0.99 0 1.98 0 3 0 C1.08987429 3.98368463 -1.12807626 7.78803169 -3.3125 11.625 C-6.37962465 17.0180224 -9.28730019 22.41732341 -11.83203125 28.08203125 C-13.28894657 30.47449086 -14.60977661 31.52881853 -17 33 C-19.69799805 33.40063477 -19.69799805 33.40063477 -22.76171875 33.44140625 C-24.44104492 33.48104492 -24.44104492 33.48104492 -26.15429688 33.52148438 C-27.32025391 33.53501953 -28.48621094 33.54855469 -29.6875 33.5625 C-37.38614478 33.67934284 -44.55373588 33.95364705 -52 36 C-53.3328459 36.33527706 -54.66604683 36.66915586 -56 37 C-56 36.01 -56 35.02 -56 34 C-51.88841288 32.4710585 -48.38743474 31.73007619 -44.0078125 31.62109375 C-42.33138672 31.56985352 -42.33138672 31.56985352 -40.62109375 31.51757812 C-39.46738281 31.49115234 -38.31367188 31.46472656 -37.125 31.4375 C-30.01955394 31.24967325 -23.03664914 31.04598839 -16 30 C-15.73832031 29.15179688 -15.47664063 28.30359375 -15.20703125 27.4296875 C-12.0865698 18.56313361 -7.38957326 9.69939036 -2 2 C-1.34 2 -0.68 2 0 2 C0 1.34 0 0.68 0 0 Z " fill="#EC3BAA" transform="translate(242,217)"/>
<path d="M0 0 C2.10409639 -0.02701408 4.20829178 -0.04640223 6.3125 -0.0625 C7.48425781 -0.07410156 8.65601563 -0.08570313 9.86328125 -0.09765625 C13 0 13 0 16 1 C16 1.66 16 2.32 16 3 C17.8253125 3.3403125 17.8253125 3.3403125 19.6875 3.6875 C23.99072441 4.7519018 26.10064633 6.60361427 29 10 C29.598125 10.598125 30.19625 11.19625 30.8125 11.8125 C31.204375 12.204375 31.59625 12.59625 32 13 C28.625 12.6875 28.625 12.6875 25 12 C24.34 11.01 23.68 10.02 23 9 C19.94570927 7.78715124 19.94570927 7.78715124 17 7 C23.56276111 11.83313622 30.17148431 16.5488194 37 21 C36.01 21.495 36.01 21.495 35 22 C29.6478367 19.80393299 24.82168518 16.23624592 20.0625 13 C14.90592847 9.50491686 9.65472535 6.6021745 4 4 C4 3.67 4 3.34 4 3 C6.97 3.33 9.94 3.66 13 4 C12.67 3.34 12.34 2.68 12 2 C9.1840151 1.53101037 9.1840151 1.53101037 5.9375 1.375 C4.28041016 1.26285156 4.28041016 1.26285156 2.58984375 1.1484375 C1.73519531 1.09945313 0.88054687 1.05046875 0 1 C0 0.67 0 0.34 0 0 Z " fill="#58206D" transform="translate(239,304)"/>
<path d="M0 0 C0.33 0 0.66 0 1 0 C1.4640625 1.423125 1.4640625 1.423125 1.9375 2.875 C2.87394742 5.86080408 2.87394742 5.86080408 4 8 C5.59451158 15.35570305 6.29929066 22.48447894 6 30 C1.81438932 27.95905845 -2.10336964 25.56961155 -6.0625 23.125 C-6.78244141 22.69058594 -7.50238281 22.25617188 -8.24414062 21.80859375 C-11.8507457 19.57832543 -14.77110845 17.7292738 -17 14 C-10.25 15.625 -10.25 15.625 -8 19 C-6.04614933 19.78988145 -6.04614933 19.78988145 -3.875 20.1875 C-2.59625 20.455625 -1.3175 20.72375 0 21 C0 21.66 0 22.32 0 23 C0.99 23 1.98 23 3 23 C2.67 22.34 2.34 21.68 2 21 C1.68954474 18.40856095 1.49026088 15.81628268 1.28125 13.21484375 C1.2334259 11.02929332 1.2334259 11.02929332 0 10 C-0.07205511 8.31391034 -0.08386068 6.62499341 -0.0625 4.9375 C-0.05347656 4.01839844 -0.04445313 3.09929687 -0.03515625 2.15234375 C-0.02355469 1.44207031 -0.01195312 0.73179687 0 0 Z " fill="#592385" transform="translate(272,296)"/>
<path d="M0 0 C1.93166016 0.01740234 1.93166016 0.01740234 3.90234375 0.03515625 C5.19269531 0.04417969 6.48304688 0.05320312 7.8125 0.0625 C8.81152344 0.07410156 9.81054688 0.08570313 10.83984375 0.09765625 C11.16984375 1.08765625 11.49984375 2.07765625 11.83984375 3.09765625 C10.54820312 2.99453125 9.2565625 2.89140625 7.92578125 2.78515625 C2.12562144 2.78515625 -1.70753763 5.10566481 -6.53515625 8.09765625 C-8.10227921 9.04047819 -9.67246772 9.97822882 -11.24609375 10.91015625 C-12.26775635 11.53857422 -12.26775635 11.53857422 -13.31005859 12.1796875 C-15.16015625 13.09765625 -15.16015625 13.09765625 -18.16015625 13.09765625 C-18.16015625 11.44765625 -18.16015625 9.79765625 -18.16015625 8.09765625 C-14.59441317 5.98731851 -11.10974085 4.00967196 -7.28515625 2.41015625 C-1.66952787 0.05159233 -1.66952787 0.05159233 0 0 Z " fill="#40288D" transform="translate(240.16015625,304.90234375)"/>
<path d="M0 0 C1.41750563 0.11509661 2.83401169 0.24253658 4.25 0.375 C5.03890625 0.44460938 5.8278125 0.51421875 6.640625 0.5859375 C9.19195043 1.03368666 10.88260345 1.49565813 13 3 C13.64453125 5.12890625 13.64453125 5.12890625 13.8125 7.5625 C13.88082031 8.36816406 13.94914063 9.17382812 14.01953125 10.00390625 C14 12 14 12 13 13 C10.875 13.5 10.875 13.5 8 13 C4.0240804 10.09774645 1.36815566 7.34990408 0.0625 2.5625 C0.041875 1.716875 0.02125 0.87125 0 0 Z " fill="#861484" transform="translate(204,261)"/>
<path d="M0 0 C0.99 0.33 1.98 0.66 3 1 C0.33340066 6.99984852 -3.85921933 11.08853645 -9 15 C-9.66 15 -10.32 15 -11 15 C-11 15.66 -11 16.32 -11 17 C-12.6796875 18.33203125 -12.6796875 18.33203125 -14.875 19.8125 C-18.1986993 22.20250992 -20.02854069 23.87129794 -21 28 C-21.99 27.34 -22.98 26.68 -24 26 C-22.5947928 21.46134225 -20.42657701 19.22150029 -16.875 16.125 C-15.89273437 15.25875 -14.91046875 14.3925 -13.8984375 13.5 C-12.1338397 11.97797494 -10.36842936 10.45689039 -8.6015625 8.9375 C-7.90804688 8.339375 -7.21453125 7.74125 -6.5 7.125 C-5.8915625 6.61195313 -5.283125 6.09890625 -4.65625 5.5703125 C-2.85024637 3.85801661 -1.4385115 2.02619608 0 0 Z " fill="#030909" transform="translate(299,264)"/>
<path d="M0 0 C1.05767578 0.46599609 1.05767578 0.46599609 2.13671875 0.94140625 C5.07989072 2.02953668 7.70689693 2.51890138 10.8125 2.9375 C16.17535298 3.70625759 21.49148445 4.61331199 26.8125 5.625 C27.52446533 5.760271 28.23643066 5.89554199 28.9699707 6.03491211 C30.64697385 6.35490055 32.32353778 6.67718956 34 7 C35.125 11.75 35.125 11.75 34 14 C33.34 13.67 32.68 13.34 32 13 C32.33 12.01 32.66 11.02 33 10 C30.39605363 9.68557271 27.79185847 9.37348042 25.1875 9.0625 C24.41519043 8.9689624 23.64288086 8.8754248 22.84716797 8.77905273 C17.60441471 8.15470735 12.37712 7.69456768 7.1015625 7.44140625 C4.5337855 6.90207762 3.69959872 5.94310848 2 4 C1.34 3.67 0.68 3.34 0 3 C0 2.01 0 1.02 0 0 Z " fill="#491370" transform="translate(260,253)"/>
<path d="M0 0 C4.73077618 2.25768914 6.05296905 4.48919326 7.9375 9.3125 C8.18491943 9.92262939 8.43233887 10.53275879 8.68725586 11.16137695 C9.73915313 13.75676502 10.75295798 16.36658301 11.77050781 18.97558594 C12.52150315 20.88504168 13.29143648 22.78607895 14.0625 24.6875 C14.50722656 25.82574219 14.95195312 26.96398437 15.41015625 28.13671875 C17.21095677 31.37992951 18.78439748 32.29188062 22 34 C22 34.66 22 35.32 22 36 C19.3125 36 19.3125 36 16 35 C11.56782398 29.81084132 9.2515373 23.11079352 6.875 16.8125 C4.88913236 11.60247273 2.966374 6.74435594 0 2 C0 1.34 0 0.68 0 0 Z " fill="#2B54E8" transform="translate(248,218)"/>
<path d="M0 0 C2.8125 -0.25 2.8125 -0.25 6 0 C8.96427645 2.75254242 9.99709463 6.14267166 11 10 C11.125 13.375 11.125 13.375 11 16 C10.34 16 9.68 16 9 16 C8.34 17.32 7.68 18.64 7 20 C6.34 19.67 5.68 19.34 5 19 C5.66 17.35 6.32 15.7 7 14 C6.01 14 5.02 14 4 14 C3.96261719 13.32453125 3.92523438 12.6490625 3.88671875 11.953125 C3.82097656 11.06109375 3.75523437 10.1690625 3.6875 9.25 C3.62949219 8.36828125 3.57148438 7.4865625 3.51171875 6.578125 C2.9358819 3.67696226 1.92403852 2.20774393 0 0 Z " fill="#4F0F68" transform="translate(214,274)"/>
<path d="M0 0 C0.66 0 1.32 0 2 0 C2.4049283 7.142246 0.89839373 13.31025048 -0.9375 20.1875 C-1.48914481 22.30576488 -2.03995659 24.42424691 -2.58984375 26.54296875 C-2.83597412 27.47133545 -3.08210449 28.39970215 -3.33569336 29.35620117 C-3.97310187 31.89295119 -4.50993154 34.43113493 -5 37 C-5.66 37 -6.32 37 -7 37 C-7.56983841 29.02226226 -5.44547387 21.66438364 -3.5 14 C-3.16190948 12.6395341 -2.82466254 11.27885827 -2.48828125 9.91796875 C-1.66711048 6.60982366 -0.83746724 3.3040501 0 0 Z " fill="#CE736B" transform="translate(212,285)"/>
<path d="M0 0 C0.99 0 1.98 0 3 0 C3.33 0.66 3.66 1.32 4 2 C4.99 2 5.98 2 7 2 C6.67 3.65 6.34 5.3 6 7 C5.01 7.33 4.02 7.66 3 8 C1.92595053 10.29635945 1.92595053 10.29635945 1.17578125 13.12890625 C0.86962891 14.16337891 0.56347656 15.19785156 0.24804688 16.26367188 C-0.06068359 17.35228516 -0.36941406 18.44089844 -0.6875 19.5625 C-1.00783203 20.65498047 -1.32816406 21.74746094 -1.65820312 22.87304688 C-2.44990511 25.57901335 -3.22992044 28.28781582 -4 31 C-4.66 31 -5.32 31 -6 31 C-5.50421461 23.93505819 -3.87199314 17.43338771 -1.9375 10.6484375 C-1.017849 7.06946235 -0.45161308 3.65994769 0 0 Z " fill="#6A205A" transform="translate(214,286)"/>
<path d="M0 0 C0.66 0.33 1.32 0.66 2 1 C2.22171875 1.68191406 2.4434375 2.36382812 2.671875 3.06640625 C4.66360827 7.46579356 7.9172084 10.49276243 11.25 13.9375 C11.90613281 14.62779297 12.56226563 15.31808594 13.23828125 16.02929688 C17.10019979 20.0793208 21.02763133 24.0584727 25 28 C24.67 28.66 24.34 29.32 24 30 C1.75169896 11.91924815 1.75169896 11.91924815 -0.82421875 3.21484375 C-0.88222656 2.48394531 -0.94023437 1.75304687 -1 1 C-0.67 0.67 -0.34 0.34 0 0 Z " fill="#192436" transform="translate(185,256)"/>
<path d="M0 0 C2.91672884 -0.02700675 5.83320677 -0.04684237 8.75 -0.0625 C9.9875 -0.07506836 9.9875 -0.07506836 11.25 -0.08789062 C12.04921875 -0.09111328 12.8484375 -0.09433594 13.671875 -0.09765625 C14.4050293 -0.10289307 15.13818359 -0.10812988 15.89355469 -0.11352539 C18.0461849 0.0024891 19.9314135 0.40926729 22 1 C22 1.66 22 2.32 22 3 C22.99 3 23.98 3 25 3 C25.33 3.99 25.66 4.98 26 6 C23.72858891 5.88597936 21.45785448 5.75841495 19.1875 5.625 C17.92292969 5.55539062 16.65835938 5.48578125 15.35546875 5.4140625 C12 5 12 5 9 3 C6.4745777 2.9744911 6.4745777 2.9744911 3.8125 3.375 C2.91144531 3.48585938 2.01039063 3.59671875 1.08203125 3.7109375 C0.39496094 3.80632812 -0.29210937 3.90171875 -1 4 C-0.67 2.68 -0.34 1.36 0 0 Z " fill="#631772" transform="translate(188,254)"/>
<path d="M0 0 C1.32 0.33 2.64 0.66 4 1 C3.02288061 3.84993155 2.09850252 5.88508039 0.125 8.1875 C-2.36589905 11.48427816 -3.58464214 14.73147102 -4.97265625 18.59765625 C-6.04065906 21.09507726 -7.19656564 22.97172187 -9 25 C-9.66 25 -10.32 25 -11 25 C-11.33 26.32 -11.66 27.64 -12 29 C-12.66 28.67 -13.32 28.34 -14 28 C-6.26718777 12.18898939 -6.26718777 12.18898939 -3.0625 7.25 C-1.33077615 4.52122303 -0.62560917 3.02926548 0 0 Z " fill="#8E1F76" transform="translate(244,216)"/>
<path d="M0 0 C0 4.59272013 -2.762425 6.63372161 -5.78125 9.90234375 C-9.87626827 13.7738663 -13.2301917 14.91572341 -18.9375 15.1875 C-19.948125 15.125625 -20.95875 15.06375 -22 15 C-22 14.34 -22 13.68 -22 13 C-22.99 13 -23.98 13 -25 13 C-25 12.34 -25 11.68 -25 11 C-23.25 9.875 -23.25 9.875 -21 9 C-19.66666667 9.66666667 -18.33333333 10.33333333 -17 11 C-13.92884511 10.81197011 -11.811351 10.60100074 -9.3125 8.75 C-7.8815717 6.93351001 -7.8815717 6.93351001 -6.625 4.4375 C-4.70507907 1.55761861 -3.26105543 0.96950297 0 0 Z " fill="#2D2C7D" transform="translate(248,279)"/>
<path d="M0 0 C3 2 3 2 3.79956055 4.71801758 C3.99332275 5.84876709 4.18708496 6.9795166 4.38671875 8.14453125 C4.60263672 9.37880859 4.81855469 10.61308594 5.04101562 11.88476562 C5.25435547 13.18091797 5.46769531 14.47707031 5.6875 15.8125 C5.91244141 17.09705078 6.13738281 18.38160156 6.36914062 19.70507812 C8.1454296 30.07666206 8.1454296 30.07666206 8 35 C7.34 35 6.68 35 6 35 C3.93026139 29.47137389 2.91617379 23.85065502 1.875 18.0625 C1.60236328 16.61713867 1.60236328 16.61713867 1.32421875 15.14257812 C0.39090005 10.00932529 -0.21766266 5.21664837 0 0 Z " fill="#2951D9" transform="translate(275,290)"/>
<path d="M0 0 C3.93573501 0.53669114 5.28356482 2.36046811 7.75 5.375 C8.75 7.5 8.75 7.5 8.75 9.375 C7.3125 11.125 7.3125 11.125 5.75 12.375 C3.275 11.385 3.275 11.385 0.75 10.375 C0.75 9.385 0.75 8.395 0.75 7.375 C-0.57 7.045 -1.89 6.715 -3.25 6.375 C-3.292721 4.70888095 -3.29063832 3.04117115 -3.25 1.375 C-2.25 0.375 -2.25 0.375 0 0 Z " fill="#3229F5" transform="translate(229.25,268.625)"/>
<path d="M0 0 C1.75606179 2.63409268 2.87181739 4.9087629 4.05859375 7.81640625 C4.44466797 8.74517578 4.83074219 9.67394531 5.22851562 10.63085938 C6.03531655 12.58725386 6.83739502 14.54560244 7.63476562 16.50585938 C8.02212891 17.43333984 8.40949219 18.36082031 8.80859375 19.31640625 C9.15720459 20.16662354 9.50581543 21.01684082 9.86499023 21.89282227 C10.95306441 24.30778643 10.95306441 24.30778643 14 26 C13.67 26.99 13.34 27.98 13 29 C9.69937296 27.94117053 8.92393742 26.87523882 7.078125 23.84765625 C6.45627123 22.59204087 5.84723037 21.33001252 5.25 20.0625 C4.93417969 19.42892578 4.61835938 18.79535156 4.29296875 18.14257812 C2.88706823 15.24861408 2 13.25598209 2 10 C1.34 10 0.68 10 0 10 C-0.74926071 6.33694766 -1.2380014 3.57644848 0 0 Z " fill="#4B188F" transform="translate(252,227)"/>
<path d="M0 0 C1.98 0.99 1.98 0.99 4 2 C4.3721042 3.32303717 4.70630173 4.65737935 5 6 C5.99 6.66 6.98 7.32 8 8 C8 8.99 8 9.98 8 11 C9.4370809 11.05422947 10.87475462 11.09289723 12.3125 11.125 C13.51326172 11.15980469 13.51326172 11.15980469 14.73828125 11.1953125 C17.28388576 11.15817322 17.28388576 11.15817322 20 9 C18.55373881 12.81287042 16.69805188 14.32707177 13 16 C11 15.75 11 15.75 9 15 C7.35 14.67 5.7 14.34 4 14 C2.68 9.38 1.36 4.76 0 0 Z " fill="#26209E" transform="translate(221,275)"/>
<path d="M0 0 C1.6796875 1.515625 1.6796875 1.515625 3 3 C2.06027344 3.09087891 2.06027344 3.09087891 1.1015625 3.18359375 C0.28429687 3.26738281 -0.53296875 3.35117187 -1.375 3.4375 C-2.18710938 3.51871094 -2.99921875 3.59992188 -3.8359375 3.68359375 C-6.04272805 3.89090114 -6.04272805 3.89090114 -8 5 C-7.54917531 6.46067199 -7.08906463 7.91848032 -6.625 9.375 C-6.36976563 10.18710937 -6.11453125 10.99921875 -5.8515625 11.8359375 C-5.10145717 14.16459185 -5.10145717 14.16459185 -3 16 C-2.875 18.625 -2.875 18.625 -3 21 C-5 20 -5 20 -5.9375 17.625 C-7.0042955 14.98938758 -7.99372141 13.91904909 -10 12 C-11.28317892 8.15046324 -11.06643637 5.05261865 -11 1 C-7.26354175 0.12083335 -3.83702911 -0.33365471 0 0 Z " fill="#511EB6" transform="translate(230,261)"/>
<path d="M0 0 C6.89163574 0.29963634 11.32982419 3.26707216 17 7 C18.31378131 7.85029251 19.62758486 8.70055067 20.94140625 9.55078125 C22.3160163 10.44912667 23.68971615 11.34886639 25.0625 12.25 C26.06410156 12.90440063 26.06410156 12.90440063 27.0859375 13.57202148 C31.88278863 16.76557727 31.88278863 16.76557727 33 19 C28.81865684 17.74864913 25.4491295 16.21674673 21.8125 13.8125 C20.86761719 13.19632812 19.92273438 12.58015625 18.94921875 11.9453125 C17.97597656 11.30335938 17.00273437 10.66140625 16 10 C14.04502168 8.72401153 12.08678571 7.45299739 10.125 6.1875 C8.82949219 5.34251953 8.82949219 5.34251953 7.5078125 4.48046875 C5.06267318 3.03699865 2.66127295 1.9777078 0 1 C0 0.67 0 0.34 0 0 Z " fill="#390A44" transform="translate(243,307)"/>
<path d="M0 0 C0.66 0 1.32 0 2 0 C1.35534798 4.33304076 -0.18925122 7.86672065 -2.0625 11.8125 C-2.61035156 12.97394531 -3.15820312 14.13539063 -3.72265625 15.33203125 C-4.14417969 16.21246094 -4.56570312 17.09289062 -5 18 C-5.66 18 -6.32 18 -7 18 C-7.268125 18.928125 -7.53625 19.85625 -7.8125 20.8125 C-8.94480421 23.85184289 -9.69900511 24.90073617 -12 27 C-11.74225629 25.58089348 -11.46816835 24.16475101 -11.1875 22.75 C-11.03667969 21.96109375 -10.88585937 21.1721875 -10.73046875 20.359375 C-9.90824765 17.70364483 -8.69288643 16.18907728 -7 14 C-6.10303854 12.16615299 -5.25026972 10.31018259 -4.4375 8.4375 C-3.10704402 5.38283939 -1.85459727 2.78189591 0 0 Z " fill="#31064B" transform="translate(244,223)"/>
<path d="M0 0 C0.66 0 1.32 0 2 0 C1.24390517 5.99362675 -0.07646059 11.73999619 -1.5390625 17.59570312 C-2.70605731 22.38996165 -3.46891334 27.09298055 -4 32 C-3.34 32.33 -2.68 32.66 -2 33 C-2.66 33 -3.32 33 -4 33 C-4.33 33.66 -4.66 34.32 -5 35 C-7.10905238 23.5568247 -5.24537766 10.49075531 0 0 Z " fill="#532A1F" transform="translate(209,290)"/>
<path d="M0 0 C0.99 0.33 1.98 0.66 3 1 C3.08153933 2.58246707 3.13943557 4.16616273 3.1875 5.75 C3.22230469 6.63171875 3.25710937 7.5134375 3.29296875 8.421875 C2.94923684 11.44671583 1.99772541 12.75583602 0 15 C-2.64 14.67 -5.28 14.34 -8 14 C-8.66 12.02 -9.32 10.04 -10 8 C-9.278125 8.350625 -8.55625 8.70125 -7.8125 9.0625 C-4.6877295 10.10409017 -3.11838004 9.89096572 0 9 C0 6.03 0 3.06 0 0 Z " fill="#2A24CB" transform="translate(237,272)"/>
<path d="M0 0 C3.16260775 1.2690719 5.96593993 2.54129938 7.96484375 5.36328125 C7.96484375 6.35328125 7.96484375 7.34328125 7.96484375 8.36328125 C6.97484375 8.36328125 5.98484375 8.36328125 4.96484375 8.36328125 C4.413125 7.7496875 3.86140625 7.13609375 3.29296875 6.50390625 C0.07653176 3.54651117 -3.09110341 3.01729971 -7.28515625 2.11328125 C-8.03023438 1.94054687 -8.7753125 1.7678125 -9.54296875 1.58984375 C-11.37075912 1.16804597 -13.20260417 0.76388566 -15.03515625 0.36328125 C-10.05644851 -2.54752079 -5.35779484 -1.67623908 0 0 Z " fill="#2446E7" transform="translate(295.03515625,256.63671875)"/>
<path d="M0 0 C-0.33 0.66 -0.66 1.32 -1 2 C-2.11072876 2.029729 -2.11072876 2.029729 -3.24389648 2.06005859 C-6.64208411 2.15609606 -10.0397221 2.26545316 -13.4375 2.375 C-14.60216797 2.4059375 -15.76683594 2.436875 -16.96679688 2.46875 C-23.54607116 2.691148 -29.64625828 3.26798533 -36 5 C-37.33291427 5.33500511 -38.66613388 5.6688051 -40 6 C-40 5.01 -40 4.02 -40 3 C-35.86382405 1.4593361 -32.34401517 0.72937648 -27.9375 0.62109375 C-26.81085938 0.58693359 -25.68421875 0.55277344 -24.5234375 0.51757812 C-23.36070312 0.49115234 -22.19796875 0.46472656 -21 0.4375 C-18.68740474 0.37724946 -16.37489598 0.31356068 -14.0625 0.24609375 C-13.04285156 0.22216553 -12.02320313 0.1982373 -10.97265625 0.17358398 C-7.93877346 0.05467193 -7.93877346 0.05467193 -4.74609375 -0.57788086 C-2 -1 -2 -1 0 0 Z " fill="#D937BF" transform="translate(226,248)"/>
<path d="M0 0 C2.375 0.5625 2.375 0.5625 5 2 C6.3125 5.625 6.3125 5.625 7 9 C6.34 9 5.68 9 5 9 C4.67 10.65 4.34 12.3 4 14 C3.34 14 2.68 14 2 14 C1.34 12.02 0.68 10.04 0 8 C0.66 8 1.32 8 2 8 C1.484375 7.608125 0.96875 7.21625 0.4375 6.8125 C-0.036875 6.214375 -0.51125 5.61625 -1 5 C-0.6875 2.3125 -0.6875 2.3125 0 0 Z " fill="#120F16" transform="translate(207,276)"/>
<path d="M0 0 C0 3 0 3 -1.36328125 4.7265625 C-5.3352482 8.59505136 -9.40710833 12.1740042 -13.75 15.625 C-17.71790537 18.80042496 -20.59385131 21.53143815 -23 26 C-23.75 24.3125 -23.75 24.3125 -24 22 C-21.51335139 18.46483366 -18.79837306 15.85934624 -15.375 13.25 C-10.02053145 9.07478941 -4.99719627 4.59316763 0 0 Z " fill="#539B3F" transform="translate(298,264)"/>
<path d="M0 0 C3.95677402 1.67401978 6.84464213 4.13149285 10 7 C10 7.66 10 8.32 10 9 C10.94875 9.2475 11.8975 9.495 12.875 9.75 C16 11 16 11 17.375 12.8125 C18.0858831 15.30059084 18.14307397 17.42466848 18 20 C17.01 20 16.02 20 15 20 C14.67 18.824375 14.34 17.64875 14 16.4375 C12.31898271 11.88507998 9.66293603 9.59756465 5.94140625 6.609375 C3.59048101 4.66051947 1.79210575 2.46414541 0 0 Z " fill="#53115E" transform="translate(199,266)"/>
<path d="M0 0 C3.48174753 1.29791362 6.51615907 2.81985682 9.64453125 4.8203125 C10.48564453 5.35527344 11.32675781 5.89023437 12.19335938 6.44140625 C13.48983398 7.27478516 13.48983398 7.27478516 14.8125 8.125 C15.69615234 8.68832031 16.57980469 9.25164062 17.49023438 9.83203125 C19.66257413 11.21763174 21.83237083 12.60704634 24 14 C21.66518318 14.82519245 20.47610537 15.19379289 18.140625 14.24316406 C17.51671875 13.83807617 16.8928125 13.43298828 16.25 13.015625 C15.21359375 12.35433594 15.21359375 12.35433594 14.15625 11.6796875 C13.4446875 11.20789063 12.733125 10.73609375 12 10.25 C11.2884375 9.79367187 10.576875 9.33734375 9.84375 8.8671875 C2.341022 4.02400861 2.341022 4.02400861 0 2 C0 1.34 0 0.68 0 0 Z " fill="#020827" transform="translate(244,313)"/>
<path d="M0 0 C1.29228516 0.0515625 2.58457031 0.103125 3.91601562 0.15625 C5.27084472 0.22111668 6.62566233 0.28622386 7.98046875 0.3515625 C9.35477551 0.40985759 10.72912478 0.46715962 12.10351562 0.5234375 C15.45888024 0.66471601 18.81347507 0.81611503 22.16796875 0.9765625 C22.16796875 1.3065625 22.16796875 1.6365625 22.16796875 1.9765625 C5.83296875 2.4715625 5.83296875 2.4715625 -10.83203125 2.9765625 C-11.16203125 3.9665625 -11.49203125 4.9565625 -11.83203125 5.9765625 C-12.82203125 5.9765625 -13.81203125 5.9765625 -14.83203125 5.9765625 C-14.50203125 4.3265625 -14.17203125 2.6765625 -13.83203125 0.9765625 C-13.17203125 1.3065625 -12.51203125 1.6365625 -11.83203125 1.9765625 C-11.10669189 1.6667041 -10.38135254 1.3568457 -9.6340332 1.03759766 C-6.20916045 -0.25930022 -3.65213477 -0.16088699 0 0 Z " fill="#9E3283" transform="translate(198.83203125,251.0234375)"/>
<path d="M0 0 C0.33 0 0.66 0 1 0 C1.33 1.98 1.66 3.96 2 6 C2.66 6 3.32 6 4 6 C4.33 6.99 4.66 7.98 5 9 C10.91366903 8.6057554 15.35889268 6.60011152 20.64453125 3.9609375 C21.42183594 3.64382813 22.19914062 3.32671875 23 3 C23.66 3.33 24.32 3.66 25 4 C22.81855776 5.15879664 20.63096983 6.30187378 18.4375 7.4375 C17.82841797 7.76298828 17.21933594 8.08847656 16.59179688 8.42382812 C12.40933962 10.57038026 8.76364964 11.68242336 4 12 C3.01 11.67 2.02 11.34 1 11 C-0.20272819 8.59454362 -0.10071472 7.05003047 -0.0625 4.375 C-0.05347656 3.55773437 -0.04445312 2.74046875 -0.03515625 1.8984375 C-0.02355469 1.27195312 -0.01195312 0.64546875 0 0 Z " fill="#040301" transform="translate(203,317)"/>
<path d="M0 0 C0.5534764 2.07553648 1 3.84365964 1 6 C1.99 4.68 2.98 3.36 4 2 C4.4375 4.6875 4.4375 4.6875 4 8 C1.94144118 10.14156523 -0.32874602 11.70727324 -3 13 C-3.99 13 -4.98 13 -6 13 C-5 10 -4 7 -3 4 C-2.34 4 -1.68 4 -1 4 C-0.67 2.68 -0.34 1.36 0 0 Z " fill="#4D116D" transform="translate(233,241)"/>
<path d="M0 0 C0.33 0 0.66 0 1 0 C1.309375 0.94875 1.61875 1.8975 1.9375 2.875 C2.87394742 5.86080408 2.87394742 5.86080408 4 8 C4.07181821 10.71760108 4.09299506 13.40859388 4.0625 16.125 C4.05798828 16.87910156 4.05347656 17.63320313 4.04882812 18.41015625 C4.03703499 20.27347127 4.01909942 22.13674555 4 24 C2.68 23.67 1.36 23.34 0 23 C0.99 23 1.98 23 3 23 C2.67 22.34 2.34 21.68 2 21 C1.68954474 18.40856095 1.49026088 15.81628268 1.28125 13.21484375 C1.2334259 11.02929332 1.2334259 11.02929332 0 10 C-0.07205511 8.31391034 -0.08386068 6.62499341 -0.0625 4.9375 C-0.05347656 4.01839844 -0.04445313 3.09929687 -0.03515625 2.15234375 C-0.02355469 1.44207031 -0.01195312 0.73179687 0 0 Z " fill="#4F178A" transform="translate(272,296)"/>
<path d="M0 0 C-1.01451596 2.1851113 -1.91629035 3.90959357 -3.5625 5.6875 C-5.58450834 8.94029602 -5.29281088 11.45880831 -5.1875 15.25 C-5.16042969 16.51328125 -5.13335937 17.7765625 -5.10546875 19.078125 C-5.05326172 20.52445312 -5.05326172 20.52445312 -5 22 C-5.33 22 -5.66 22 -6 22 C-8.05075419 17.00128667 -8.80106825 12.34045501 -8 7 C-4.25 0 -4.25 0 0 0 Z " fill="#5C1E92" transform="translate(279,279)"/>
<path d="M0 0 C0.1875 2.875 0.1875 2.875 0 6 C-3.6441774 8.4294516 -5.71241272 8.16179575 -10 8 C-7.83499182 3.78393143 -5.16054114 0 0 0 Z " fill="#49166F" transform="translate(222,313)"/>
<path d="M0 0 C1.96753645 3.51345794 3.07525028 7.08759732 4 11 C3.67 11.99 3.34 12.98 3 14 C0.9375 14.6875 0.9375 14.6875 -1 15 C-1.22304441 13.25181409 -1.4278645 11.50129677 -1.625 9.75 C-1.74101562 8.77546875 -1.85703125 7.8009375 -1.9765625 6.796875 C-2.00112537 3.86570607 -1.5312717 2.45471036 0 0 Z " fill="#372182" transform="translate(245,266)"/>
<path d="M0 0 C13.6332574 -0.3690205 13.6332574 -0.3690205 20 2 C19.67 3.98 19.34 5.96 19 8 C18.34 7.67 17.68 7.34 17 7 C17.33 6.01 17.66 5.02 18 4 C16.17662109 3.81824219 16.17662109 3.81824219 14.31640625 3.6328125 C12.73171883 3.46402922 11.1470861 3.29473184 9.5625 3.125 C8.76005859 3.04636719 7.95761719 2.96773438 7.13085938 2.88671875 C5.07829006 2.66154237 3.03706991 2.33777413 1 2 C0.67 1.34 0.34 0.68 0 0 Z " fill="#4F1580" transform="translate(275,259)"/>
<path d="M0 0 C-2.64396764 2.64396764 -5.57503819 3.56774324 -9 5 C-9.33 5.33 -9.66 5.66 -10 6 C-11.66617115 6.04063832 -13.33388095 6.042721 -15 6 C-13.96096588 2.98680106 -12.99930443 1.99953089 -10.3125 0.1875 C-6.41200844 -1.21078943 -4.00165645 -0.88036442 0 0 Z " fill="#36226F" transform="translate(235,307)"/>
<path d="M0 0 C2.97722547 0.70333538 5.85256543 1.58248537 8.75 2.5625 C9.94882813 2.96662109 9.94882813 2.96662109 11.171875 3.37890625 C11.77515625 3.58386719 12.3784375 3.78882813 13 4 C12.01 4.33 11.02 4.66 10 5 C10.33 6.65 10.66 8.3 11 10 C8.06120516 8.64763423 5.70767089 7.10057341 3.25 5 C2.63640625 4.484375 2.0228125 3.96875 1.390625 3.4375 C0 2 0 2 0 0 Z " fill="#781DBE" transform="translate(194,256)"/>
<path d="M0 0 C6.93 0 13.86 0 21 0 C20.67 0.99 20.34 1.98 20 3 C17.41577541 2.88581333 14.83320487 2.75907638 12.25 2.625 C11.52039063 2.5940625 10.79078125 2.563125 10.0390625 2.53125 C5.99202856 2.31050269 3.70158006 1.85079003 0 0 Z " fill="#661A8C" transform="translate(206,254)"/>
<path d="M0 0 C0.66 0.33 1.32 0.66 2 1 C1.34 2.32 0.68 3.64 0 5 C-9.57 4.67 -19.14 4.34 -29 4 C-29 3.67 -29 3.34 -29 3 C-27.84213989 2.970271 -27.84213989 2.970271 -26.66088867 2.93994141 C-23.16941042 2.84478857 -19.67853848 2.73506953 -16.1875 2.625 C-14.97255859 2.5940625 -13.75761719 2.563125 -12.50585938 2.53125 C-11.34248047 2.49257812 -10.17910156 2.45390625 -8.98046875 2.4140625 C-7.90692139 2.3826416 -6.83337402 2.3512207 -5.72729492 2.31884766 C-2.7839235 2.18407693 -2.7839235 2.18407693 0 0 Z " fill="#A4278A" transform="translate(228,247)"/>
<path d="M0 0 C1.68437744 0.62056011 3.35008418 1.29289322 5 2 C7.70886941 2.16798262 7.70886941 2.16798262 10 2 C8.9375 4 8.9375 4 7 6 C3.3125 6.25 3.3125 6.25 0 6 C0 5.34 0 4.68 0 4 C-0.99 4 -1.98 4 -3 4 C-3 3.34 -3 2.68 -3 2 C-2.01 1.34 -1.02 0.68 0 0 Z " fill="#251576" transform="translate(226,288)"/>
<path d="M0 0 C2 2 2 2 2.5625 5.25 C1.85088768 9.99408213 0.21772861 11.13216259 -3.46875 13.93359375 C-3.9740625 14.28550781 -4.479375 14.63742187 -5 15 C-4.6803125 14.43539063 -4.360625 13.87078125 -4.03125 13.2890625 C-2.64094204 10.20300013 -2.56589987 7.36679297 -2.34375 4.0234375 C-2 2 -2 2 0 0 Z " fill="#2D25AE" transform="translate(242,272)"/>
<path d="M0 0 C6.03331362 4.98404168 11.5184171 10.41915303 17 16 C16.67 16.66 16.34 17.32 16 18 C10.25517913 13.10192143 4.47559004 8.13055099 0 2 C0 1.34 0 0.68 0 0 Z " fill="#224974" transform="translate(193,268)"/>
<path d="M0 0 C4.28806873 0.47645208 6.26647487 1.65902484 9 5 C9 5.66 9 6.32 9 7 C5.64708882 7.37254569 4.3961577 7.31050198 1.6875 5.1875 C0 3 0 3 0 0 Z " fill="#BF17A7" transform="translate(204,261)"/>
<path d="M0 0 C0.66 0.66 1.32 1.32 2 2 C0.86111328 2.07347656 0.86111328 2.07347656 -0.30078125 2.1484375 C-1.79158203 2.26058594 -1.79158203 2.26058594 -3.3125 2.375 C-4.79169922 2.47941406 -4.79169922 2.47941406 -6.30078125 2.5859375 C-9.21528433 2.83865472 -9.21528433 2.83865472 -12 5 C-15.1875 5.125 -15.1875 5.125 -18 5 C-16.66652218 2.33304437 -14.86622606 1.70349384 -12.1796875 0.60546875 C-8.21072353 -0.49702124 -4.07068256 -0.57302113 0 0 Z " fill="#42345F" transform="translate(248,302)"/>
<path d="M0 0 C2.44989101 3.74235319 2.23086143 7.44225419 2.125 11.75 C2.11597656 12.44738281 2.10695312 13.14476562 2.09765625 13.86328125 C2.07419888 15.57566958 2.03833104 17.28788004 2 19 C0 18 0 18 -0.625 16.4375 C-1.48526632 10.84576892 -1.10406582 5.52032911 0 0 Z " fill="#461477" transform="translate(246,252)"/>
<path d="M0 0 C3.2578125 -0.29296875 3.2578125 -0.29296875 7.125 -0.1875 C9.04699219 -0.14689453 9.04699219 -0.14689453 11.0078125 -0.10546875 C11.99523437 -0.07066406 12.98265625 -0.03585937 14 0 C14.33 0.99 14.66 1.98 15 3 C9.39 3 3.78 3 -2 3 C-1.34 2.01 -0.68 1.02 0 0 Z " fill="#4C2395" transform="translate(237,305)"/>
<path d="M0 0 C0.99 0.33 1.98 0.66 3 1 C3 1.99 3 2.98 3 4 C5.35367713 4.6878236 5.35367713 4.6878236 8 5 C8.99 4.34 9.98 3.68 11 3 C10.67 4.32 10.34 5.64 10 7 C6.79161737 8.00834883 5.35919409 8.14367764 2.1875 6.875 C0 5 0 5 -0.3125 2.3125 C-0.209375 1.549375 -0.10625 0.78625 0 0 Z " fill="#2F25DF" transform="translate(227,275)"/>
<path d="M0 0 C2.97 0.99 5.94 1.98 9 3 C9 4.98 9 6.96 9 9 C6.36 8.67 3.72 8.34 1 8 C2.32 7.67 3.64 7.34 5 7 C3.61410019 3.90837736 2.50816459 2.50816459 0 0 Z " fill="#991798" transform="translate(208,261)"/>
<path d="M0 0 C0.99 0.99 1.98 1.98 3 3 C-1.62 3.33 -6.24 3.66 -11 4 C-11 3.01 -11 2.02 -11 1 C-7.26354175 0.12083335 -3.83702911 -0.33365471 0 0 Z " fill="#4C1EA1" transform="translate(230,261)"/>
<path d="M0 0 C0.66 0 1.32 0 2 0 C2.23709676 7.11290272 1.42580434 10.36715811 -3 16 C-2.30834212 10.58201328 -1.24200752 5.3177215 0 0 Z " fill="#D0696D" transform="translate(212,285)"/>
<path d="M0 0 C1.97625073 2.9643761 3.29886906 5.78787746 4.6875 9.0625 C5.14511719 10.12597656 5.60273438 11.18945312 6.07421875 12.28515625 C6.37972656 13.18105469 6.68523437 14.07695312 7 15 C6.67 15.66 6.34 16.32 6 17 C4.68 14.36 3.36 11.72 2 9 C1.01 9.495 1.01 9.495 0 10 C-0.74926071 6.33694766 -1.2380014 3.57644848 0 0 Z " fill="#441D8D" transform="translate(252,227)"/>
<path d="M0 0 C4 2 4 2 5.01171875 4.3125 C5.23472656 5.199375 5.45773438 6.08625 5.6875 7 C6.59310576 10.59411154 6.59310576 10.59411154 8 14 C6.68 14 5.36 14 4 14 C2.68 9.38 1.36 4.76 0 0 Z " fill="#3D1792" transform="translate(221,275)"/>
<path d="M0 0 C5.56929609 1.20122072 8.13488955 2.61257732 12 7 C12.763125 7.763125 13.52625 8.52625 14.3125 9.3125 C14.869375 9.869375 15.42625 10.42625 16 11 C12.16784261 9.62152612 9.07256489 7.84768058 5.75 5.5 C4.87859375 4.8915625 4.0071875 4.283125 3.109375 3.65625 C1 2 1 2 0 0 Z " fill="#4320B2" transform="translate(255,310)"/>
<path d="M0 0 C0.66 0.33 1.32 0.66 2 1 C2.4140625 3.72265625 2.4140625 3.72265625 2.625 7.0625 C2.69976562 8.16722656 2.77453125 9.27195312 2.8515625 10.41015625 C2.90054687 11.26480469 2.94953125 12.11945313 3 13 C2.01 13 1.02 13 0 13 C-1.98384711 9.03230578 -1.32630565 4.14470514 0 0 Z " fill="#4F0C62" transform="translate(272,306)"/>
<path d="M0 0 C0.66 0 1.32 0 2 0 C1.30834212 5.41798672 0.24200752 10.6822785 -1 16 C-1.66 15.34 -2.32 14.68 -3 14 C-2.61765316 9.12507777 -1.4234304 4.64987264 0 0 Z " fill="#742025" transform="translate(209,290)"/>
<path d="M0 0 C0.66 0 1.32 0 2 0 C2.33 0.66 2.66 1.32 3 2 C3.99 2 4.98 2 6 2 C5.8125 4.375 5.8125 4.375 5 7 C2.4375 8.3125 2.4375 8.3125 0 9 C0 6.03 0 3.06 0 0 Z " fill="#66186E" transform="translate(215,286)"/>
<path d="M0 0 C0.33 0 0.66 0 1 0 C1.33895656 1.72807318 1.67091525 3.45751974 2 5.1875 C2.185625 6.15042969 2.37125 7.11335938 2.5625 8.10546875 C2.96877612 10.7934206 3.07933572 13.28771019 3 16 C2.34 16 1.68 16 1 16 C-1.48351814 10.44860651 -0.85330338 5.83475015 0 0 Z " fill="#2A42A6" transform="translate(280,309)"/>
<path d="M0 0 C0.66 0.33 1.32 0.66 2 1 C1.53980469 1.40863281 1.07960938 1.81726563 0.60546875 2.23828125 C-1.15914771 4.17463654 -1.83971622 5.72488998 -2.6875 8.1875 C-2.93886719 8.90292969 -3.19023437 9.61835938 -3.44921875 10.35546875 C-3.72185547 11.16951172 -3.72185547 11.16951172 -4 12 C-4.99 11.34 -5.98 10.68 -7 10 C-5.6062718 5.56541027 -3.39417765 3.12621626 0 0 Z " fill="#071521" transform="translate(282,280)"/>
<path d="M0 0 C0.99 0.33 1.98 0.66 3 1 C2.25 2.9375 2.25 2.9375 1 5 C-0.32594105 5.36162029 -1.65938457 5.69728039 -3 6 C-3.33 6.99 -3.66 7.98 -4 9 C-6.0625 9.6875 -6.0625 9.6875 -8 10 C-7.59007812 9.52949219 -7.18015625 9.05898438 -6.7578125 8.57421875 C-6.21898437 7.95160156 -5.68015625 7.32898438 -5.125 6.6875 C-4.59132813 6.07261719 -4.05765625 5.45773437 -3.5078125 4.82421875 C-1.8359553 2.86501788 -1.8359553 2.86501788 0 0 Z " fill="#0A1D1B" transform="translate(299,264)"/>
<path d="M0 0 C0.33 0 0.66 0 1 0 C0.58846263 4.97093824 0.20399168 9.44508386 -2 14 C-2.33 14 -2.66 14 -3 14 C-3 11.03 -3 8.06 -3 5 C-2.34 5 -1.68 5 -1 5 C-0.67 3.35 -0.34 1.7 0 0 Z " fill="#D47E76" transform="translate(211,296)"/>
<path d="M0 0 C1.60495567 0.11442461 3.20898119 0.24194694 4.8125 0.375 C5.70582031 0.44460938 6.59914062 0.51421875 7.51953125 0.5859375 C10 1 10 1 13 3 C13 3.66 13 4.32 13 5 C11.39402675 4.54803755 9.79027492 4.08817673 8.1875 3.625 C6.84751953 3.24214844 6.84751953 3.24214844 5.48046875 2.8515625 C3 2 3 2 0 0 Z " fill="#77167F" transform="translate(204,259)"/>
<path d="M0 0 C0.66 0 1.32 0 2 0 C0.77472971 4.05281712 -0.69880494 7.44360764 -3 11 C-4.3968009 6.80959731 -2.86445675 4.87233324 -1 1 C-0.67 0.67 -0.34 0.34 0 0 Z " fill="#3A0647" transform="translate(236,239)"/>
<path d="M0 0 C1.60156595 4.00391487 0.4087561 7.07031192 -1 11 C-1.99 11.495 -1.99 11.495 -3 12 C-3.34833144 7.12335991 -2.41685712 4.22949995 0 0 Z " fill="#5E1581" transform="translate(246,235)"/>
<path d="M0 0 C2.375 1.0625 2.375 1.0625 5 3 C6.3125 6.6875 6.3125 6.6875 7 10 C2.57320993 8.52440331 2.08567304 6.09942632 0 2 C0 1.34 0 0.68 0 0 Z " fill="#304EE4" transform="translate(248,218)"/>
<path d="M0 0 C3.1875 -0.3125 3.1875 -0.3125 6 0 C3.16569547 3.2542015 1.31392226 4.5206753 -3 5 C-1.875 2.5 -1.875 2.5 0 0 Z " fill="#7B1772" transform="translate(215,316)"/>
<path d="M0 0 C0.33 0 0.66 0 1 0 C1.05447047 1.41623216 1.09300508 2.83308191 1.125 4.25 C1.14820313 5.03890625 1.17140625 5.8278125 1.1953125 6.640625 C0.9828378 9.20731941 0.28654105 10.7916067 -1 13 C-1.2236337 11.58566794 -1.42826476 10.16832382 -1.625 8.75 C-1.74101562 7.96109375 -1.85703125 7.1721875 -1.9765625 6.359375 C-2.00319395 3.67847541 -1.36592084 2.27305911 0 0 Z " fill="#3A1E94" transform="translate(245,266)"/>
<path d="M0 0 C2.62901288 1.52206009 4.84365964 2.84365964 7 5 C6.34 5.66 5.68 6.32 5 7 C1.46428571 6.46428571 1.46428571 6.46428571 0 5 C-0.04063832 3.33382885 -0.042721 1.66611905 0 0 Z " fill="#5E1A59" transform="translate(207,317)"/>
<path d="M0 0 C0.66 0.66 1.32 1.32 2 2 C-0.31 3.32 -2.62 4.64 -5 6 C-4.75 4.125 -4.75 4.125 -4 2 C-1.9375 0.75 -1.9375 0.75 0 0 Z " fill="#25345B" transform="translate(240,290)"/>
<path d="M0 0 C0.99 0.33 1.98 0.66 3 1 C3.185625 1.8353125 3.185625 1.8353125 3.375 2.6875 C4.33020166 6.22174615 6.58535064 8.27578021 9 11 C4.70073737 9.40768051 2.64994267 6.60686641 0 3 C0 2.01 0 1.02 0 0 Z " fill="#072B54" transform="translate(191,266)"/>
<path d="M0 0 C1.41623216 -0.05447047 2.83308191 -0.09300508 4.25 -0.125 C5.03890625 -0.14820313 5.8278125 -0.17140625 6.640625 -0.1953125 C9.20731941 0.0171622 10.7916067 0.71345895 13 2 C12.67 2.99 12.34 3.98 12 5 C10.68 4.34 9.36 3.68 8 3 C8 2.34 8 1.68 8 1 C5.36 1 2.72 1 0 1 C0 0.67 0 0.34 0 0 Z " fill="#3D23C3" transform="translate(224,265)"/>
<path d="M0 0 C1.32 0.33 2.64 0.66 4 1 C3.67 1.66 3.34 2.32 3 3 C2.67 3 2.34 3 2 3 C1.67 4.65 1.34 6.3 1 8 C0.34 8 -0.32 8 -1 8 C-2.2077558 4.37673261 -1.54311128 3.35853631 0 0 Z " fill="#5C248B" transform="translate(247,217)"/>
<path d="M0 0 C0.99 0.66 1.98 1.32 3 2 C0.47043472 5.0916909 -2.22454612 5.90931332 -6 7 C-4.02 4.69 -2.04 2.38 0 0 Z " fill="#242F72" transform="translate(240,286)"/>
<path d="M0 0 C1.98 0.66 3.96 1.32 6 2 C6 4.31 6 6.62 6 9 C3 5.25 3 5.25 3 3 C2.01 2.67 1.02 2.34 0 2 C0 1.34 0 0.68 0 0 Z " fill="#3326DE" transform="translate(232,268)"/>
<path d="M0 0 C0.66 0.33 1.32 0.66 2 1 C-0.80804268 3.96404505 -3.18315774 6.44499019 -7 8 C-5.84826645 5.53199953 -4.95216435 3.95216435 -3 2 C-2.01 2 -1.02 2 0 2 C0 1.34 0 0.68 0 0 Z " fill="#000003" transform="translate(287,278)"/>
<path d="M0 0 C3.24208567 0.35049575 4.61527704 0.56221181 6.8125 3.0625 C7.204375 3.701875 7.59625 4.34125 8 5 C4.75791433 4.64950425 3.38472296 4.43778819 1.1875 1.9375 C0.795625 1.298125 0.40375 0.65875 0 0 Z " fill="#330B61" transform="translate(192,258)"/>
<path d="M0 0 C3 1.25 3 1.25 5 4.25 C3.72125 3.96125 2.4425 3.6725 1.125 3.375 C0.40570313 3.21257812 -0.31359375 3.05015625 -1.0546875 2.8828125 C-3 2.25 -3 2.25 -5 0.25 C-3 -0.75 -3 -0.75 0 0 Z " fill="#5A1C88" transform="translate(255,307.75)"/>
<path d="M0 0 C0.99 0 1.98 0 3 0 C1.54744301 3.82946843 -0.42895561 5.12050295 -4 7 C-3.34 5.35 -2.68 3.7 -2 2 C-1.34 2 -0.68 2 0 2 C0 1.34 0 0.68 0 0 Z " fill="#E12EB9" transform="translate(242,217)"/>
<path d="M0 0 C3.79588866 0.54226981 5.47211993 2.20127563 8 5 C7.67 5.66 7.34 6.32 7 7 C5.83040013 6.02433888 4.66438823 5.044375 3.5 4.0625 C2.8503125 3.51722656 2.200625 2.97195313 1.53125 2.41015625 C1.0259375 1.94480469 0.520625 1.47945313 0 1 C0 0.67 0 0.34 0 0 Z " fill="#1B4569" transform="translate(202,279)"/>
<path d="M0 0 C4.875 1.75 4.875 1.75 6 4 C4.35 4.33 2.7 4.66 1 5 C0.67 3.35 0.34 1.7 0 0 Z " fill="#502593" transform="translate(294,260)"/>
<path d="M0 0 C2.16874252 0.50603992 3.99967627 0.99983813 6 2 C5.67 2.99 5.34 3.98 5 5 C3.0625 4.1875 3.0625 4.1875 1 3 C0.67 2.01 0.34 1.02 0 0 Z " fill="#592097" transform="translate(260,251)"/>
<path d="M0 0 C0 0.66 0 1.32 0 2 C-2.66666667 3.33333333 -5.33333333 4.66666667 -8 6 C-6.24081631 1.94034532 -4.71412298 0 0 0 Z " fill="#26185D" transform="translate(228,305)"/>
<path d="M0 0 C1.485 0.99 1.485 0.99 3 2 C2.34 3.65 1.68 5.3 1 7 C0.34 7 -0.32 7 -1 7 C-0.67 4.69 -0.34 2.38 0 0 Z " fill="#3F1156" transform="translate(216,293)"/>
<path d="M0 0 C0 0.33 0 0.66 0 1 C-4.3164922 1.76173392 -7.74433453 2.16063604 -12 1 C-8.00439392 -1.83022097 -4.57262677 -0.76210446 0 0 Z " fill="#3436C4" transform="translate(292,256)"/>
<path d="M0 0 C0.75 1.75 0.75 1.75 1 4 C-0.9375 6.25 -0.9375 6.25 -3 8 C-3 6.68 -3 5.36 -3 4 C-2.34 4 -1.68 4 -1 4 C-0.67 2.68 -0.34 1.36 0 0 Z " fill="#741875" transform="translate(233,241)"/>
<path d="M0 0 C0.66 0 1.32 0 2 0 C1.25 4.75 1.25 4.75 -1 7 C-1.66 6.67 -2.32 6.34 -3 6 C-2 4 -1 2 0 0 Z " fill="#3E0A5F" transform="translate(244,223)"/>
</svg>
