<?xml version="1.0" encoding="UTF-8"?>
<svg version="1.1" xmlns="http://www.w3.org/2000/svg" width="500" height="500">
<path d="M0 0 C8.0137171 6.33642747 10.03950554 14.93575723 12.25 24.4375 C12.6521875 26.1071582 12.6521875 26.1071582 13.0625 27.81054688 C13.71807343 30.5382006 14.363587 33.26782417 15 36 C15.63502441 36.16081055 16.27004883 36.32162109 16.92431641 36.48730469 C19.82771804 37.22970284 22.72624479 37.98967077 25.625 38.75 C27.12353516 39.12898438 27.12353516 39.12898438 28.65234375 39.515625 C36.28568803 41.53770295 42.77486343 43.84976888 47 51 C47.74839581 55.15019497 47.87099933 57.37677397 45.8828125 61.08203125 C39.46787104 69.42783818 28.93030659 72.84259955 19.0234375 75.26171875 C15.65082017 76.49226832 14.30793648 78.36981137 12.74487305 81.56860352 C12.33793213 82.57850342 11.93099121 83.58840332 11.51171875 84.62890625 C11.05216797 85.74716797 10.59261719 86.86542969 10.11914062 88.01757812 C9.17585124 90.35328105 8.23312896 92.68921309 7.29101562 95.02539062 C-0.85746326 114.84693384 -0.85746326 114.84693384 -10 120 C-13.51339389 121.40535756 -14.82376258 121.05350065 -18.5 119.9375 C-26.02368759 116.22451132 -28.18858401 109.8150882 -30.859375 102.27734375 C-31.82548034 99.06650961 -32.2904966 95.96158818 -32.640625 92.62890625 C-33.19455014 83.24185365 -33.19455014 83.24185365 -37.68945312 75.51025391 C-42.20131657 73.01034897 -46.99342529 72.0548612 -52 71 C-52.99 70.34 -53.98 69.68 -55 69 C-55 68.34 -55 67.68 -55 67 C-55.66 67 -56.32 67 -57 67 C-59.30363732 59.96784396 -59.30363732 59.96784396 -58 55.8125 C-53.12409487 48.95575841 -46.209976 45.01854258 -38.125 43.0625 C-37.09375 42.711875 -36.0625 42.36125 -35 42 C-33.88273007 39.73552754 -33.88273007 39.73552754 -33 37 C-31.19643394 32.74786185 -29.32099789 28.52974372 -27.4375 24.3125 C-26.94958984 23.17876953 -26.46167969 22.04503906 -25.95898438 20.87695312 C-22.31369362 12.77890004 -17.737625 3.85484234 -9.44311523 -0.2722168 C-5.90994002 -1.32471958 -3.54613224 -0.94985685 0 0 Z " fill="#EFD4AA" transform="translate(256,205)"/>
<path d="M0 0 C-1.28965176 1.37562854 -2.62689293 2.70766393 -4 4 C-4.66 4 -5.32 4 -6 4 C-5.85967508 7.18776711 -5.71173356 10.3751385 -5.5625 13.5625 C-5.52318359 14.45775391 -5.48386719 15.35300781 -5.44335938 16.27539062 C-5.20667217 21.2458219 -4.80178328 26.08823519 -4 31 C-4.66 30.67 -5.32 30.34 -6 30 C-6 29.34 -6 28.68 -6 28 C-10.29 28.66 -14.58 29.32 -19 30 C-19.5259375 31.794375 -19.5259375 31.794375 -20.0625 33.625 C-21.90396486 39.30210142 -24.77614241 44.37918212 -27.671875 49.5703125 C-29.23940397 53.61822556 -28.96481033 55.81587357 -28 60 C-27.7525 61.0828125 -27.7525 61.0828125 -27.5 62.1875 C-27.2525 63.0846875 -27.2525 63.0846875 -27 64 C-26.33572866 66.52617058 -25.89496629 68.8252649 -25.5625 71.4375 C-25.09349401 74.40787126 -24.44026751 76.76037398 -23.4375 79.5625 C-22.1659163 83.16737805 -21.70321371 86.14177826 -22 90 C-22.66 90 -23.32 90 -24 90 C-21.29475012 103.50135152 -21.29475012 103.50135152 -14 115 C-10.75392453 116.62303774 -7.49725596 116.69406043 -4 116 C3.10325653 109.54249406 5.93340569 99.85268586 8.75 90.9375 C9.06582031 89.98294922 9.38164062 89.02839844 9.70703125 88.04492188 C11.36878536 82.83305672 12.39462251 78.47159292 12 73 C17.23012556 70.54772921 22.15762086 69.21256899 27.8125 68.125 C35.49857571 66.53915866 43.27683779 64.72316221 49 59 C49.24212873 57.01871492 49.24212873 57.01871492 49.125 54.875 C49.08375 53.59625 49.0425 52.3175 49 51 C48.01 51 47.02 51 46 51 C45.67 52.65 45.34 54.3 45 56 C36.68618089 58.11130707 28.5186689 58.64809915 19.97460938 59.12304688 C12.03486586 59.56517839 12.03486586 59.56517839 5 63 C3.09126594 65.45333227 3.09126594 65.45333227 1.75 68.3125 C1.25371094 69.28960937 0.75742188 70.26671875 0.24609375 71.2734375 C-1.05890395 74.12888701 -2.05176458 77.00941137 -3 80 C-4.5 82.375 -4.5 82.375 -6 84 C-6.66 84 -7.32 84 -8 84 C-8.421355 76.41560998 -7.69087074 69.10485086 -2.5625 63.1875 C-1.716875 62.465625 -0.87125 61.74375 0 61 C0.56847656 60.14277344 1.13695312 59.28554688 1.72265625 58.40234375 C4 56 4 56 7.3125 55.3984375 C8.529375 55.39070313 9.74625 55.38296875 11 55.375 C17.10773799 55.32644 17.10773799 55.32644 22 52 C18.02083317 50.1178615 14.93439319 49.86470108 10.5625 49.875 C4.69599643 49.48301392 4.69599643 49.48301392 1.85546875 47.51171875 C-2.25465799 42.52156488 -2.97407665 37.32529771 -3 31 C-0.59689255 33.18343281 0.14169341 34.34499265 1.4375 37.5 C3.08427131 41.18876773 3.57222749 42.10238514 7 44 C9.92021743 44.51876118 12.68216673 44.88185909 15.625 45.125 C16.86697144 45.24174072 16.86697144 45.24174072 18.1340332 45.36083984 C26.7412629 46.13761566 35.36779312 46.60809574 44 47 C39.08075375 41.44849953 31.26172146 40.99859512 24.26757812 39.97631836 C16.77828505 38.87661502 10.9971626 37.97636896 5 33 C3.54555831 30.09111662 3.90698489 27.55727339 3.9375 24.3125 C3.94128662 23.65419189 3.94507324 22.99588379 3.94897461 22.31762695 C3.96535142 19.49780779 3.99350625 16.67813262 4.02050781 13.85839844 C4.03854299 11.80143905 4.05066802 9.74450288 4.0625 7.6875 C4.07410156 6.45386719 4.08570313 5.22023437 4.09765625 3.94921875 C4.20760869 1.06741068 4.20760869 1.06741068 3 -1 C5.7694038 -0.66318062 7.52411448 -0.4301273 9.625 1.46875 C16.32659661 11.36883589 18.52601693 23.47272193 21 35 C21.63502441 35.16081055 22.27004883 35.32162109 22.92431641 35.48730469 C25.82771804 36.22970284 28.72624479 36.98967077 31.625 37.75 C33.12353516 38.12898438 33.12353516 38.12898438 34.65234375 38.515625 C42.28568803 40.53770295 48.77486343 42.84976888 53 50 C53.74839581 54.15019497 53.87099933 56.37677397 51.8828125 60.08203125 C45.46787104 68.42783818 34.93030659 71.84259955 25.0234375 74.26171875 C21.65082017 75.49226832 20.30793648 77.36981137 18.74487305 80.56860352 C18.33793213 81.57850342 17.93099121 82.58840332 17.51171875 83.62890625 C17.05216797 84.74716797 16.59261719 85.86542969 16.11914062 87.01757812 C15.17585124 89.35328105 14.23312896 91.68921309 13.29101562 94.02539062 C5.14253674 113.84693384 5.14253674 113.84693384 -4 119 C-7.51339389 120.40535756 -8.82376258 120.05350065 -12.5 118.9375 C-20.02368759 115.22451132 -22.18858401 108.8150882 -24.859375 101.27734375 C-25.82548034 98.06650961 -26.2904966 94.96158818 -26.640625 91.62890625 C-27.19455014 82.24185365 -27.19455014 82.24185365 -31.68945312 74.51025391 C-36.20131657 72.01034897 -40.99342529 71.0548612 -46 70 C-46.99 69.34 -47.98 68.68 -49 68 C-49 67.34 -49 66.68 -49 66 C-49.66 66 -50.32 66 -51 66 C-53.30363732 58.96784396 -53.30363732 58.96784396 -52 54.8125 C-47.12409487 47.95575841 -40.209976 44.01854258 -32.125 42.0625 C-31.09375 41.711875 -30.0625 41.36125 -29 41 C-27.88273007 38.73552754 -27.88273007 38.73552754 -27 36 C-25.19643394 31.74786185 -23.32099789 27.52974372 -21.4375 23.3125 C-20.94958984 22.17876953 -20.46167969 21.04503906 -19.95898438 19.87695312 C-9.70138501 -2.9104155 -9.70138501 -2.9104155 0 0 Z " fill="#ED665E" transform="translate(250,206)"/>
<path d="M0 0 C1.27586972 2.55173944 0.79383345 3.35226429 0.0625 6.0625 C-1.0545414 10.71935505 -1.45872603 15.2207149 -1 20 C-0.67 20.33 -0.34 20.66 0 21 C0.37649418 23.43838806 0.70681545 25.86395093 1 28.3125 C1.68876631 34.21338796 1.68876631 34.21338796 3 40 C6.28841143 40.58560449 6.28841143 40.58560449 10 40 C13.48644979 36.80258232 15.52057584 32.43827248 17 28 C18.13732426 31.40401948 17.83989957 33.77456664 17.0625 37.25 C16.86785156 38.14203125 16.67320312 39.0340625 16.47265625 39.953125 C16.31667969 40.62859375 16.16070312 41.3040625 16 42 C20.25163994 38.43781518 21.62688147 35.60927652 23.19921875 30.34765625 C24.87490411 25.43503723 27.08708477 21.32097078 31.3984375 18.34375 C36.62976101 16.39193299 41.76946989 16.20583035 47.3125 15.875 C49.49617657 15.72778585 51.67977241 15.5793688 53.86328125 15.4296875 C54.90178223 15.36104492 55.9402832 15.29240234 57.01025391 15.22167969 C61.02294477 14.92415206 65.0053204 14.47986667 69 14 C69 12.35 69 10.7 69 9 C70.32 8.67 71.64 8.34 73 8 C73.94528228 11.67609777 74.29655884 14.38815751 73 18 C67.16752839 23.83247161 59.62055849 25.49831351 51.8125 27.0625 C50.23464535 27.38165988 48.6577722 27.70571922 47.08203125 28.03515625 C46.39343018 28.1731665 45.7048291 28.31117676 44.99536133 28.45336914 C42.93331058 28.94498185 42.93331058 28.94498185 40.93237305 30.06030273 C39 31 39 31 36 31 C36.23847656 31.89976562 36.47695313 32.79953125 36.72265625 33.7265625 C37.54460763 39.554945 35.25083015 44.91246371 33.4375 50.375 C33.10169922 51.46039063 32.76589844 52.54578125 32.41992188 53.6640625 C29.88148329 61.49209657 26.53736502 69.62158265 20 75 C15.5113409 75.50678409 13.17850418 75.66960465 9.25 73.4375 C2.89612703 66.55413761 0 57.36041132 0 48 C0.66 48 1.32 48 2 48 C1.5253725 45.6865641 1.04517721 43.37426981 0.5625 41.0625 C0.16224609 39.13083984 0.16224609 39.13083984 -0.24609375 37.16015625 C-0.67181616 34.15361121 -0.67181616 34.15361121 -2 33 C-2.54080028 29.74156471 -2.96606118 26.47317118 -3.40234375 23.19921875 C-3.93683115 20.33813914 -4.6996586 18.54058299 -6 16 C-5.88941972 9.36518318 -3.84004307 5.32788264 0 0 Z " fill="#D6A55D" transform="translate(226,248)"/>
<path d="M0 0 C2.7694038 0.33681938 4.52411448 0.5698727 6.625 2.46875 C13.32659661 12.36883589 15.52601693 24.47272193 18 36 C18.63502441 36.16081055 19.27004883 36.32162109 19.92431641 36.48730469 C22.82771804 37.22970284 25.72624479 37.98967077 28.625 38.75 C30.12353516 39.12898438 30.12353516 39.12898438 31.65234375 39.515625 C39.28568803 41.53770295 45.77486343 43.84976888 50 51 C50.31868257 53.76020227 50.18943087 56.20589469 50 59 C48.68 58.34 47.36 57.68 46 57 C46 55.35 46 53.7 46 52 C45.01 52 44.02 52 43 52 C42.67 53.65 42.34 55.3 42 57 C33.68618089 59.11130707 25.5186689 59.64809915 16.97460938 60.12304688 C9.03486586 60.56517839 9.03486586 60.56517839 2 64 C0.09126594 66.45333227 0.09126594 66.45333227 -1.25 69.3125 C-1.74628906 70.28960937 -2.24257812 71.26671875 -2.75390625 72.2734375 C-4.05890395 75.12888701 -5.05176458 78.00941137 -6 81 C-7.5 83.375 -7.5 83.375 -9 85 C-9.66 85 -10.32 85 -11 85 C-11.421355 77.41560998 -10.69087074 70.10485086 -5.5625 64.1875 C-4.716875 63.465625 -3.87125 62.74375 -3 62 C-2.43152344 61.14277344 -1.86304688 60.28554688 -1.27734375 59.40234375 C1 57 1 57 4.3125 56.3984375 C5.529375 56.39070313 6.74625 56.38296875 8 56.375 C14.10773799 56.32644 14.10773799 56.32644 19 53 C15.02083317 51.1178615 11.93439319 50.86470108 7.5625 50.875 C1.69599643 50.48301392 1.69599643 50.48301392 -1.14453125 48.51171875 C-5.25465799 43.52156488 -5.97407665 38.32529771 -6 32 C-3.59689255 34.18343281 -2.85830659 35.34499265 -1.5625 38.5 C0.08427131 42.18876773 0.57222749 43.10238514 4 45 C6.92021743 45.51876118 9.68216673 45.88185909 12.625 46.125 C13.45298096 46.20282715 14.28096191 46.2806543 15.1340332 46.36083984 C23.7412629 47.13761566 32.36779312 47.60809574 41 48 C36.08075375 42.44849953 28.26172146 41.99859512 21.26757812 40.97631836 C13.77828505 39.87661502 7.9971626 38.97636896 2 34 C0.54555831 31.09111662 0.90698489 28.55727339 0.9375 25.3125 C0.94317993 24.32503784 0.94317993 24.32503784 0.94897461 23.31762695 C0.96535142 20.49780779 0.99350625 17.67813262 1.02050781 14.85839844 C1.03854299 12.80143905 1.05066802 10.74450288 1.0625 8.6875 C1.07410156 7.45386719 1.08570313 6.22023437 1.09765625 4.94921875 C1.20760869 2.06741068 1.20760869 2.06741068 0 0 Z " fill="#8C6C64" transform="translate(253,205)"/>
<path d="M0 0 C1.65 0 3.3 0 5 0 C6.1687481 3.5062443 6.12514267 6.6477866 6.09765625 10.29296875 C6.0962413 10.99899734 6.09482635 11.70502594 6.09336853 12.43244934 C6.08777764 14.68417626 6.07522688 16.93580321 6.0625 19.1875 C6.05748382 20.71549335 6.05292112 22.24348827 6.04882812 23.77148438 C6.0378112 27.51436135 6.02055287 31.25716373 6 35 C6.75853271 35.2983374 7.51706543 35.5966748 8.29858398 35.90405273 C10.3007818 36.71633163 12.27198322 37.60592655 14.22265625 38.53515625 C19.2263149 40.69118228 24.5186496 41.09040606 29.88476562 41.72851562 C35.65857081 42.5147953 39.90631526 44.15198109 45 47 C45 47.66 45 48.32 45 49 C35.52592047 49.20374365 26.13004884 49.12025546 16.6875 48.25 C15.89432373 48.18828613 15.10114746 48.12657227 14.28393555 48.06298828 C9.41749664 47.55997826 6.4924869 46.68723524 3 43 C1.63671875 40.640625 1.63671875 40.640625 0.6875 38.25 C0.19830078 37.05117187 0.19830078 37.05117187 -0.30078125 35.828125 C-0.53152344 35.22484375 -0.76226562 34.6215625 -1 34 C-0.86468355 39.42495951 -0.34169304 44.32557723 3.08203125 48.703125 C6.62486015 51.09868344 10.72388261 50.73462729 14.8828125 50.82421875 C18.72929877 51.04112587 20.82900796 51.91620523 24 54 C21.28641313 56.83693172 20.01848382 57.97649653 15.953125 58.0703125 C14.73109375 58.08835937 13.5090625 58.10640625 12.25 58.125 C7.17454945 58.3395666 7.17454945 58.3395666 2.8125 60.62109375 C1.23244562 62.5107065 1.23244562 62.5107065 0.015625 64.50390625 C-0.48710937 65.24447266 -0.48710937 65.24447266 -1 66 C-1.66 66 -2.32 66 -3 66 C-2.67 64.35 -2.34 62.7 -2 61 C-0.515 60.505 -0.515 60.505 1 60 C1 59.01 1 58.02 1 57 C1.66 57 2.32 57 3 57 C3 55.02 3 53.04 3 51 C2.34 51 1.68 51 1 51 C-2.86565393 45.7792663 -5.62259636 40.33605675 -7 34 C-10.3 34 -13.6 34 -17 34 C-17.66 35.98 -18.32 37.96 -19 40 C-19.84051229 37.64656559 -20.08353007 36.31555804 -19.4375 33.875 C-17.31931605 31.11215137 -15.36024464 30.76081011 -12 30 C-9.6679198 29.92353835 -7.33154122 29.90856701 -5 30 C-4.67 30 -4.34 30 -4 30 C-4.16298584 29.43829102 -4.32597168 28.87658203 -4.49389648 28.29785156 C-5.02985098 25.86446819 -5.11361396 23.72377772 -5.09765625 21.234375 C-5.09443359 20.34492188 -5.09121094 19.45546875 -5.08789062 18.5390625 C-5.07951172 17.61867187 -5.07113281 16.69828125 -5.0625 15.75 C-5.05573242 14.34621094 -5.05573242 14.34621094 -5.04882812 12.9140625 C-5.03706918 10.60930959 -5.02063426 8.30468773 -5 6 C-4.34 6 -3.68 6 -3 6 C-2.67 5.01 -2.34 4.02 -2 3 C-1.34 2.34 -0.68 1.68 0 1 C0 0.67 0 0.34 0 0 Z " fill="#9CA179" transform="translate(249,204)"/>
<path d="M0 0 C0.02505615 0.56920166 0.0501123 1.13840332 0.07592773 1.72485352 C0.19293894 4.33757313 0.3151828 6.95002362 0.4375 9.5625 C0.47681641 10.45775391 0.51613281 11.35300781 0.55664062 12.27539062 C0.79332783 17.2458219 1.19821672 22.08823519 2 27 C1.34 26.67 0.68 26.34 0 26 C0 25.34 0 24.68 0 24 C-4.29 24.66 -8.58 25.32 -13 26 C-13.5259375 27.794375 -13.5259375 27.794375 -14.0625 29.625 C-15.90396486 35.30210142 -18.77614241 40.37918212 -21.671875 45.5703125 C-23.23940397 49.61822556 -22.96481033 51.81587357 -22 56 C-21.7525 57.0828125 -21.7525 57.0828125 -21.5 58.1875 C-21.335 58.785625 -21.17 59.38375 -21 60 C-20.33572866 62.52617058 -19.89496629 64.8252649 -19.5625 67.4375 C-19.09349401 70.40787126 -18.44026751 72.76037398 -17.4375 75.5625 C-16.1659163 79.16737805 -15.70321371 82.14177826 -16 86 C-16.99 86 -17.98 86 -19 86 C-19.18175781 85.09378906 -19.36351562 84.18757813 -19.55078125 83.25390625 C-20.98042981 76.32560936 -22.56578552 69.64276601 -25 63 C-25.33 62.01 -25.66 61.02 -26 60 C-27.13179687 59.93941406 -28.26359375 59.87882812 -29.4296875 59.81640625 C-30.91147145 59.73200083 -32.3932416 59.64735283 -33.875 59.5625 C-34.62136719 59.52318359 -35.36773437 59.48386719 -36.13671875 59.44335938 C-41.7734375 59.11328125 -41.7734375 59.11328125 -44 58 C-44 54.31081822 -43.95866525 52.08338956 -41.46875 49.26953125 C-37.22875377 45.86239142 -33.59521339 44.2880626 -28.17578125 43.8125 C-23.80488051 42.18027854 -21.39385602 37.76046596 -19.33422852 33.78369141 C-18.85397217 32.65108887 -18.37371582 31.51848633 -17.87890625 30.3515625 C-17.61166245 29.73534027 -17.34441864 29.11911804 -17.06907654 28.48422241 C-15.94157033 25.88391109 -14.83728744 23.27395405 -13.73217773 20.6640625 C-4.93802162 0 -4.93802162 0 0 0 Z " fill="#557673" transform="translate(244,210)"/>
<path d="M0 0 C2.7694038 0.33681938 4.52411448 0.5698727 6.625 2.46875 C13.32659661 12.36883589 15.52601693 24.47272193 18 36 C18.97610229 36.24907104 18.97610229 36.24907104 19.97192383 36.50317383 C22.92165332 37.26226248 25.86699849 38.03717509 28.8125 38.8125 C29.83666016 39.07353516 30.86082031 39.33457031 31.91601562 39.60351562 C32.89892578 39.86455078 33.88183594 40.12558594 34.89453125 40.39453125 C35.80050049 40.63018799 36.70646973 40.86584473 37.63989258 41.10864258 C40.11184223 42.0422402 41.31282489 43.00029462 43 45 C39.36287158 46.21237614 38.48444226 45.35372467 35.16748047 43.81933594 C29.9194458 41.83551026 24.07059249 41.46502545 18.53710938 40.71484375 C12.13926008 39.73055924 7.02491568 38.23410649 2 34 C0.54555831 31.09111662 0.90698489 28.55727339 0.9375 25.3125 C0.94128662 24.65419189 0.94507324 23.99588379 0.94897461 23.31762695 C0.96535142 20.49780779 0.99350625 17.67813262 1.02050781 14.85839844 C1.03854299 12.80143905 1.05066802 10.74450288 1.0625 8.6875 C1.07990234 6.83705078 1.07990234 6.83705078 1.09765625 4.94921875 C1.20760869 2.06741068 1.20760869 2.06741068 0 0 Z " fill="#EA5C6E" transform="translate(253,205)"/>
<path d="M0 0 C-1 2 -1 2 -2.83032227 2.77685547 C-9.79572941 4.83272763 -16.75857941 6.068655 -23.9375 7.125 C-26.15527829 7.45874952 -28.37274348 7.7945882 -30.58984375 8.1328125 C-31.55784912 8.27605957 -32.52585449 8.41930664 -33.52319336 8.56689453 C-36.12160879 8.95826421 -36.12160879 8.95826421 -39 10 C-38.87625 11.11375 -38.87625 11.11375 -38.75 12.25 C-39 15 -39 15 -40.87890625 16.65234375 C-43.82304155 19.9109539 -44.32178276 23.08619265 -45.1875 27.3125 C-45.35185547 28.04662109 -45.51621094 28.78074219 -45.68554688 29.53710938 C-46.43042468 32.93580285 -47.03869309 36.28704875 -47.50390625 39.73828125 C-47.95619005 42.71195821 -48.58508131 45.11547949 -49.75 47.875 C-50.05421875 48.63554687 -50.3584375 49.39609375 -50.671875 50.1796875 C-52 52 -52 52 -54.640625 52.7578125 C-55.41921875 52.83773437 -56.1978125 52.91765625 -57 53 C-57.36275656 50.73052303 -57.71493186 48.45935265 -58.0625 46.1875 C-58.25972656 44.92292969 -58.45695313 43.65835938 -58.66015625 42.35546875 C-59 39 -59 39 -58 36 C-56.906875 35.649375 -55.81375 35.29875 -54.6875 34.9375 C-52.19625989 33.94712996 -51.1846552 33.28711631 -49.71875 31.0078125 C-47.74427414 26.32591142 -46.73109934 21.76771598 -46 16.75 C-45.28100044 11.92154608 -44.40225182 8.6857728 -41 5 C-35.34227992 1.24059389 -29.33146241 1.23399201 -22.75 0.8125 C-21.66847656 0.73064453 -20.58695312 0.64878906 -19.47265625 0.56445312 C-12.97177329 0.09786382 -6.51658223 -0.10702416 0 0 Z " fill="#EAA548" transform="translate(296,263)"/>
<path d="M0 0 C1.27586972 2.55173944 0.79383345 3.35226429 0.0625 6.0625 C-1.0545414 10.71935505 -1.45872603 15.2207149 -1 20 C-0.67 20.33 -0.34 20.66 0 21 C0.37649418 23.43838806 0.70681545 25.86395093 1 28.3125 C1.68876631 34.21338796 1.68876631 34.21338796 3 40 C8.32170494 40.29562367 8.32170494 40.29562367 13 38 C12.67 42.29 12.34 46.58 12 51 C11.34 51 10.68 51 10 51 C9.81631452 56.32687887 10.27427968 59.93069656 12 65 C12.07522969 67.33212027 12.09325876 69.6685311 12 72 C9.75 71.9375 9.75 71.9375 7 71 C2.14567969 64.71793842 0 55.88190378 0 48 C0.66 48 1.32 48 2 48 C1.5253725 45.6865641 1.04517721 43.37426981 0.5625 41.0625 C0.16224609 39.13083984 0.16224609 39.13083984 -0.24609375 37.16015625 C-0.67181616 34.15361121 -0.67181616 34.15361121 -2 33 C-2.54080028 29.74156471 -2.96606118 26.47317118 -3.40234375 23.19921875 C-3.93683115 20.33813914 -4.6996586 18.54058299 -6 16 C-5.88941972 9.36518318 -3.84004307 5.32788264 0 0 Z " fill="#C1BA93" transform="translate(226,248)"/>
<path d="M0 0 C-2.07253716 2.30281907 -3.52654432 3.8294662 -6.47265625 4.890625 C-14.72563976 8.51326382 -18.50535572 23.54863029 -21.94921875 31.390625 C-27.28752261 43.49241294 -27.28752261 43.49241294 -32 48 C-34.22761212 48.69089474 -36.4170621 49.06966249 -38.71484375 49.4609375 C-42.42151248 50.33533115 -45.56513794 52.05253541 -48 55 C-49.21500223 58.59243161 -49.21500223 58.59243161 -50 62 C-48.42798828 62.09087891 -48.42798828 62.09087891 -46.82421875 62.18359375 C-45.44529952 62.26801738 -44.06639395 62.35266447 -42.6875 62.4375 C-41.99720703 62.47681641 -41.30691406 62.51613281 -40.59570312 62.55664062 C-37.52838465 62.74927415 -34.93031848 63.02322717 -32 64 C-30.28945613 66.21593183 -29.24678276 68.46190652 -28 71 C-28.33 71.66 -28.66 72.32 -29 73 C-29.99 71.68 -30.98 70.36 -32 69 C-32.61875 69.350625 -33.2375 69.70125 -33.875 70.0625 C-34.926875 70.5265625 -34.926875 70.5265625 -36 71 C-36.66 70.67 -37.32 70.34 -38 70 C-40.00957058 70.03189795 -42.01971076 70.06634162 -44.02734375 70.16015625 C-46 70 -46 70 -49 68 C-49 67.34 -49 66.68 -49 66 C-49.66 66 -50.32 66 -51 66 C-53.30363732 58.96784396 -53.30363732 58.96784396 -52 54.8125 C-47.12409487 47.95575841 -40.209976 44.01854258 -32.125 42.0625 C-31.09375 41.711875 -30.0625 41.36125 -29 41 C-27.88273007 38.73552754 -27.88273007 38.73552754 -27 36 C-25.19643394 31.74786185 -23.32099789 27.52974372 -21.4375 23.3125 C-20.94958984 22.17876953 -20.46167969 21.04503906 -19.95898438 19.87695312 C-9.70138501 -2.9104155 -9.70138501 -2.9104155 0 0 Z " fill="#EE6662" transform="translate(250,206)"/>
<path d="M0 0 C2.0625 0.4375 2.0625 0.4375 4 1 C4.29755617 3.925969 4.50392339 6.14620226 4 9 C-1.93941524 15.51887038 -9.81753332 17.38574658 -18.1875 19.0625 C-19.76535465 19.38165988 -21.3422278 19.70571922 -22.91796875 20.03515625 C-23.60656982 20.1731665 -24.2951709 20.31117676 -25.00463867 20.45336914 C-27.06668942 20.94498185 -27.06668942 20.94498185 -29.06762695 22.06030273 C-31 23 -31 23 -34 23 C-34 23.99 -34 24.98 -34 26 C-34.66 26 -35.32 26 -36 26 C-36.1546875 25.0409375 -36.1546875 25.0409375 -36.3125 24.0625 C-36.539375 23.381875 -36.76625 22.70125 -37 22 C-37.99 21.67 -38.98 21.34 -40 21 C-39.9375 19.1875 -39.9375 19.1875 -39 17 C-32.68249718 13.52131799 -25.94162753 12.89255589 -18.875 11.9375 C-16.5591151 11.61890589 -14.24396847 11.29488726 -11.9296875 10.96484375 C-10.91116699 10.8268335 -9.89264648 10.68882324 -8.84326172 10.54663086 C-6.024301 10.00467199 -3.62038094 9.15636852 -1 8 C-1.66 7.34 -2.32 6.68 -3 6 C-2.34 6 -1.68 6 -1 6 C-1.020625 5.195625 -1.04125 4.39125 -1.0625 3.5625 C-1 1 -1 1 0 0 Z " fill="#D6A845" transform="translate(296,256)"/>
<path d="M0 0 C5.55169365 1.64027312 5.55169365 1.64027312 7.88183594 3.51000977 C10.37495184 5.26375416 12.13661757 5.60149557 15.140625 6.02734375 C16.12933594 6.18009766 17.11804688 6.33285156 18.13671875 6.49023438 C20.19638136 6.78613321 22.25627489 7.08042949 24.31640625 7.37304688 C30.62522573 8.35087298 35.44970677 9.81986787 41 13 C41 13.66 41 14.32 41 15 C31.48448489 15.20463473 22.04703706 15.11465053 12.5625 14.25 C11.34759888 14.1574292 11.34759888 14.1574292 10.1081543 14.06298828 C6.79328422 13.72327325 4.53726679 13.48037972 2.0078125 11.21875 C0.90962499 8.80103487 0.50688249 6.8936019 0.3125 4.25 C0.24675781 3.45078125 0.18101562 2.6515625 0.11328125 1.828125 C0.07589844 1.22484375 0.03851563 0.6215625 0 0 Z " fill="#E4CCA5" transform="translate(253,238)"/>
<path d="M0 0 C1.13732426 3.40401948 0.83989957 5.77456664 0.0625 9.25 C-0.13214844 10.14203125 -0.32679688 11.0340625 -0.52734375 11.953125 C-0.68332031 12.62859375 -0.83929688 13.3040625 -1 14 C3.83290538 9.950809 5.3833652 6.03280791 7 0 C8.29814095 3.65759983 7.7043336 6.22776205 6.75 9.9375 C6.49734375 10.95714844 6.2446875 11.97679687 5.984375 13.02734375 C4.97629647 16.0715809 3.90041848 18.4172626 2 21 C-1.6875 22.3125 -1.6875 22.3125 -5 23 C-5.60617022 14.14317952 -3.9341119 7.8682238 0 0 Z M7 13 C7.33 13 7.66 13 8 13 C8.02687279 14.81242052 8.04633715 16.62495233 8.0625 18.4375 C8.07410156 19.44683594 8.08570313 20.45617187 8.09765625 21.49609375 C8 24 8 24 7 25 C6.76924918 26.34747084 6.58846937 27.70377565 6.4375 29.0625 C6.293125 30.361875 6.14875 31.66125 6 33 C5.34 33 4.68 33 4 33 C4 35.64 4 38.28 4 41 C4.66 41.33 5.32 41.66 6 42 C4.125 45.875 4.125 45.875 3 47 C-4.36633663 47.47524752 -4.36633663 47.47524752 -7 45.5 C-7.33 45.005 -7.66 44.51 -8 44 C-7.01 44 -6.02 44 -5 44 C-5.11347619 42.02013918 -5.2410935 40.04108402 -5.375 38.0625 C-5.44460937 36.96035156 -5.51421875 35.85820312 -5.5859375 34.72265625 C-5.72257813 33.82417969 -5.85921875 32.92570312 -6 32 C-6.66 31.67 -7.32 31.34 -8 31 C-8.125 25.25 -8.125 25.25 -7 23 C-6.34 23 -5.68 23 -5 23 C-4.67 28.61 -4.34 34.22 -4 40 C1.22346348 38.56488337 1.22346348 38.56488337 2.70703125 34.4375 C4.12222693 30.03157059 4.96382339 25.5635126 5.6875 21 C5.81705078 20.22527344 5.94660156 19.45054687 6.08007812 18.65234375 C6.39390009 16.76941199 6.69799355 14.88486295 7 13 Z " fill="#DCAF51" transform="translate(243,276)"/>
<path d="M0 0 C1.65 0 3.3 0 5 0 C8.09549272 9.28647815 4.28186895 22.30508827 3 32 C2.67 31.34 2.34 30.68 2 30 C1.360625 29.87625 0.72125 29.7525 0.0625 29.625 C-2 29 -2 29 -3.10791016 27.23413086 C-4.62849606 23.42600782 -4.36885299 19.61645271 -4.375 15.5625 C-4.39949219 14.71623047 -4.42398438 13.86996094 -4.44921875 12.99804688 C-4.46927745 8.7288878 -4.40217891 6.60326836 -1.9765625 2.96484375 C-1.32429687 2.31644531 -0.67203125 1.66804687 0 1 C0 0.67 0 0.34 0 0 Z " fill="#ECCFAC" transform="translate(249,204)"/>
<path d="M0 0 C0.99 0.33 1.98 0.66 3 1 C4.02326124 3.45168661 4.85806385 5.78208411 5.625 8.3125 C5.8415625 8.98990234 6.058125 9.66730469 6.28125 10.36523438 C6.8741547 12.23727608 7.43814888 14.11840508 8 16 C8.21269531 16.71027344 8.42539062 17.42054688 8.64453125 18.15234375 C9.10479563 20.54470696 9.09452376 22.81619403 9.0625 25.25 C9.05347656 26.14203125 9.04445313 27.0340625 9.03515625 27.953125 C9.02355469 28.62859375 9.01195312 29.3040625 9 30 C5.3359375 32.03125 5.3359375 32.03125 2.3125 31.75 C1.549375 31.5025 0.78625 31.255 0 31 C-3.81611033 23.36777934 -0.71292952 8.26234391 0 0 Z " fill="#3F3868" transform="translate(255,208)"/>
<path d="M0 0 C-2.35151066 5.24567763 -4.7226262 6.91682613 -10 9 C-10.33 9.66 -10.66 10.32 -11 11 C-10.36191406 10.98839844 -9.72382813 10.97679687 -9.06640625 10.96484375 C-8.24011719 10.95582031 -7.41382813 10.94679688 -6.5625 10.9375 C-5.73878906 10.92589844 -4.91507813 10.91429687 -4.06640625 10.90234375 C-2 11 -2 11 -1 12 C-0.95936168 13.66617115 -0.957279 15.33388095 -1 17 C-0.34 17 0.32 17 1 17 C0.67 17.99 0.34 18.98 0 20 C-0.2475 19.03126953 -0.2475 19.03126953 -0.5 18.04296875 C-1.94480729 15.57302137 -1.94480729 15.57302137 -5.625 15.42578125 C-7.08270065 15.36859044 -8.54130327 15.33162627 -10 15.3125 C-17.82653061 15.08673469 -17.82653061 15.08673469 -20 14 C-20 8.03432494 -20 8.03432494 -17.29296875 5.234375 C-11.38077881 0.71522425 -7.45958397 -0.14345354 0 0 Z " fill="#344164" transform="translate(220,254)"/>
<path d="M0 0 C0.66 0 1.32 0 2 0 C-1.97366574 28.29844198 -1.97366574 28.29844198 -6 33 C-8.6328125 33.71875 -8.6328125 33.71875 -11 34 C-11.36275656 31.73052303 -11.71493186 29.45935265 -12.0625 27.1875 C-12.25972656 25.92292969 -12.45695313 24.65835937 -12.66015625 23.35546875 C-13 20 -13 20 -12 17 C-10.906875 16.649375 -9.81375 16.29875 -8.6875 15.9375 C-5.99822225 14.91038365 -5.14993913 14.25894532 -3.68359375 11.7265625 C-2.15525362 7.88033384 -0.95283249 4.02618436 0 0 Z " fill="#EDAD4E" transform="translate(250,282)"/>
<path d="M0 0 C1.36421031 2.72842061 0.87807211 4.60953318 0.5625 7.625 C0.46066406 8.62789063 0.35882813 9.63078125 0.25390625 10.6640625 C0.17011719 11.43492187 0.08632812 12.20578125 0 13 C-0.66 13 -1.32 13 -2 13 C-2.18368548 18.32687887 -1.72572032 21.93069656 0 27 C0.07522969 29.33212027 0.09325876 31.6685311 0 34 C-2.25 33.9375 -2.25 33.9375 -5 33 C-9.46504268 27.22170948 -10.93174747 20.13832295 -12 13 C-11.67 12.34 -11.34 11.68 -11 11 C-10.67 11.99 -10.34 12.98 -10 14 C-5.50998972 11.5679769 -5.50998972 11.5679769 -2 8 C-1.59952556 5.67724823 -1.2602896 3.34260643 -1 1 C-0.67 0.67 -0.34 0.34 0 0 Z " fill="#DBB267" transform="translate(238,286)"/>
<path d="M0 0 C0.66 0.33 1.32 0.66 2 1 C1.67 7.93 1.34 14.86 1 22 C-6.875 24.25 -6.875 24.25 -11 25 C-11.54483249 19.31051975 -9.76024203 15.70116043 -7.1875 10.8125 C-6.83107422 10.10158203 -6.47464844 9.39066406 -6.10742188 8.65820312 C-4.36902812 5.26753788 -2.8142448 2.61698232 0 0 Z " fill="#375A75" transform="translate(242,210)"/>
<path d="M0 0 C3.875 1.75 3.875 1.75 5 4 C5.04022391 6.3329866 5.04320247 8.66706666 5 11 C4.34 10.34 3.68 9.68 3 9 C3 7.68 3 6.36 3 5 C2.01 5 1.02 5 0 5 C-0.12375 5.804375 -0.2475 6.60875 -0.375 7.4375 C-0.684375 8.7059375 -0.684375 8.7059375 -1 10 C-3.34852528 11.17426264 -4.73774065 11.11508173 -7.3515625 11.09765625 C-8.20234375 11.09443359 -9.053125 11.09121094 -9.9296875 11.08789062 C-10.81914062 11.07951172 -11.70859375 11.07113281 -12.625 11.0625 C-13.97078125 11.05573242 -13.97078125 11.05573242 -15.34375 11.04882812 C-17.56256648 11.03702591 -19.78125018 11.02056155 -22 11 C-21.01 10.67 -20.02 10.34 -19 10 C-19 9.01 -19 8.02 -19 7 C-18.34 7 -17.68 7 -17 7 C-17 6.01 -17 5.02 -17 4 C-17.66 4 -18.32 4 -19 4 C-19 3.34 -19 2.68 -19 2 C-17.71222656 1.93941406 -16.42445313 1.87882813 -15.09765625 1.81640625 C-13.41925841 1.73201753 -11.74087364 1.6473687 -10.0625 1.5625 C-8.78729492 1.50352539 -8.78729492 1.50352539 -7.48632812 1.44335938 C-6.67744141 1.40146484 -5.86855469 1.35957031 -5.03515625 1.31640625 C-3.91185913 1.26141968 -3.91185913 1.26141968 -2.76586914 1.20532227 C-0.97538674 1.18228937 -0.97538674 1.18228937 0 0 Z " fill="#5A3E4D" transform="translate(296,252)"/>
<path d="M0 0 C4.875 2.875 4.875 2.875 6 4 C8.06014601 4.15915291 10.12353854 4.27704929 12.1875 4.375 C17.25834385 4.71491371 20.76198912 5.21502142 25 8 C22.28641313 10.83693172 21.01848382 11.97649653 16.953125 12.0703125 C15.73109375 12.08835937 14.5090625 12.10640625 13.25 12.125 C8.17454945 12.3395666 8.17454945 12.3395666 3.8125 14.62109375 C2.23244562 16.5107065 2.23244562 16.5107065 1.015625 18.50390625 C0.68046875 18.99761719 0.3453125 19.49132812 0 20 C-0.66 20 -1.32 20 -2 20 C-1.67 18.35 -1.34 16.7 -1 15 C-0.01 14.67 0.98 14.34 2 14 C2 13.01 2 12.02 2 11 C2.66 11 3.32 11 4 11 C4 9.02 4 7.04 4 5 C3.34 5 2.68 5 2 5 C1.34 3.35 0.68 1.7 0 0 Z " fill="#E9BD76" transform="translate(248,250)"/>
<path d="M0 0 C0.495 1.485 0.495 1.485 1 3 C-4.96991388 12.30604223 -15.61641919 15.73191631 -25.9765625 18.26171875 C-28.31410584 19.11460619 -29.37408306 20.14382315 -31 22 C-31.66 22.66 -32.32 23.32 -33 24 C-33 22.35 -33 20.7 -33 19 C-33.66 18.67 -34.32 18.34 -35 18 C-35.33 18.99 -35.66 19.98 -36 21 C-36.99 20.67 -37.98 20.34 -39 20 C-39 19.01 -39 18.02 -39 17 C-33.76948537 14.54754678 -28.84228286 13.21411813 -23.1875 12.125 C-14.91998091 10.39958274 -7.31580767 8.55265107 -1.375 2.1875 C-0.92125 1.465625 -0.4675 0.74375 0 0 Z " fill="#EE6848" transform="translate(301,262)"/>
<path d="M0 0 C3.39638939 1.69819469 3.79378359 5.31933499 4.99658203 8.76464844 C7.00253748 15.23251257 8.27771673 21.87307674 9.62304688 28.50390625 C11.11674839 35.41481953 13.13545975 41.05823349 17 47 C16.01 47 15.02 47 14 47 C8.46800029 40.57574227 6.28215955 31.99625298 5.3515625 23.7265625 C4.75725786 14.39666787 4.75725786 14.39666787 0.47021484 6.59960938 C-3.46801124 4.43577234 -7.60432716 3.80179802 -12 3 C-12.33 2.34 -12.66 1.68 -13 1 C-9 1 -5 1 -1 1 C-0.67 0.67 -0.34 0.34 0 0 Z " fill="#F17356" transform="translate(218,274)"/>
<path d="M0 0 C-1.29058184 2.68772549 -2.72005049 5.14784628 -4.375 7.625 C-6.82781586 11.47736373 -8.46449034 15.41460148 -10.0078125 19.703125 C-11.06500648 22.15048743 -12.23384247 24.00506559 -14 26 C-14.66 26 -15.32 26 -16 26 C-16.42635584 18.3255948 -15.60252098 11.13637143 -10.5625 5.0625 C-9.716875 4.381875 -8.87125 3.70125 -8 3 C-7.319375 2.401875 -6.63875 1.80375 -5.9375 1.1875 C-4 0 -4 0 0 0 Z " fill="#74414C" transform="translate(258,264)"/>
<path d="M0 0 C0.33 0 0.66 0 1 0 C1.06058594 1.29035156 1.12117188 2.58070313 1.18359375 3.91015625 C1.26805881 5.62761255 1.35270377 7.34506002 1.4375 9.0625 C1.47681641 9.91005859 1.51613281 10.75761719 1.55664062 11.63085938 C1.80003389 16.48000209 2.22598042 21.20628212 3 26 C2.34 25.67 1.68 25.34 1 25 C1 24.34 1 23.68 1 23 C-3.29 23.66 -7.58 24.32 -12 25 C-12.4125 26.32 -12.825 27.64 -13.25 29 C-16.62892665 38.93247277 -16.62892665 38.93247277 -19 42 C-22.25 43 -22.25 43 -25 43 C-22 38 -22 38 -20.59375 35.75 C-18.79122902 32.63976772 -17.29984703 29.45966347 -15.8125 26.1875 C-15.28269531 25.02605469 -14.75289062 23.86460937 -14.20703125 22.66796875 C-13.80871094 21.78753906 -13.41039062 20.90710938 -13 20 C-12.67 21.32 -12.34 22.64 -12 24 C-11.29875 23.690625 -10.5975 23.38125 -9.875 23.0625 C-7 22 -7 22 -1 21 C-0.67 14.07 -0.34 7.14 0 0 Z " fill="#515572" transform="translate(243,211)"/>
<path d="M0 0 C2.0625 0.4375 2.0625 0.4375 4 1 C4.29781991 3.92856248 4.51372883 6.14536247 4 9 C0.35413776 12.90022472 -3.58230578 15.87004965 -9.0546875 16.078125 C-11.03657923 16.06401901 -13.01833328 16.03302778 -15 16 C-15.33 16.33 -15.66 16.66 -16 17 C-17.66617115 17.04063832 -19.33388095 17.042721 -21 17 C-21 16.34 -21 15.68 -21 15 C-18.39688008 14.32900016 -15.79264602 13.66304662 -13.1875 13 C-12.44951172 12.80921875 -11.71152344 12.6184375 -10.95117188 12.421875 C-7.89464659 11.64737086 -5.16626522 11 -2 11 C-1.67 10.01 -1.34 9.02 -1 8 C-1.66 7.34 -2.32 6.68 -3 6 C-2.34 6 -1.68 6 -1 6 C-1.020625 5.195625 -1.04125 4.39125 -1.0625 3.5625 C-1 1 -1 1 0 0 Z " fill="#D0A04C" transform="translate(296,256)"/>
<path d="M0 0 C-2.07253716 2.30281907 -3.52654432 3.8294662 -6.47265625 4.890625 C-14.72563976 8.51326382 -18.50535572 23.54863029 -21.94921875 31.390625 C-26.54303853 41.77151927 -26.54303853 41.77151927 -29 43 C-29.66 42.34 -30.32 41.68 -31 41 C-30.34 41 -29.68 41 -29 41 C-28.72164307 40.29512451 -28.44328613 39.59024902 -28.15649414 38.86401367 C-26.04092705 33.6248924 -23.74137389 28.47098609 -21.4375 23.3125 C-20.94958984 22.17876953 -20.46167969 21.04503906 -19.95898438 19.87695312 C-9.70138501 -2.9104155 -9.70138501 -2.9104155 0 0 Z " fill="#CB5874" transform="translate(250,206)"/>
<path d="M0 0 C2.47465213 2.00328982 3.19280365 3.46943497 4.4375 6.5 C6.09924645 10.22231204 6.51617672 11.1199274 10 13 C13.23068783 13.64666209 16.46861847 13.92334152 19.75 14.1875 C20.63816406 14.26935547 21.52632813 14.35121094 22.44140625 14.43554688 C24.62684071 14.63529088 26.81262449 14.8230145 29 15 C29 15.66 29 16.32 29 17 C25.62546102 17.14611313 22.25174234 17.23433467 18.875 17.3125 C17.92367188 17.35439453 16.97234375 17.39628906 15.9921875 17.43945312 C8.03290198 17.57763517 8.03290198 17.57763517 4.40625 14.69921875 C0.9243416 10.7933767 0.09440558 7.21853119 -0.125 2.0625 C-0.08375 1.381875 -0.0425 0.70125 0 0 Z " fill="#667D64" transform="translate(247,237)"/>
<path d="M0 0 C-0.625 2.375 -0.625 2.375 -2 5 C-4.6875 6.125 -4.6875 6.125 -8 7 C-13.21837254 8.92255831 -16.14927389 11.04230927 -20 15 C-20.99 15 -21.98 15 -23 15 C-21.4076782 9.42687369 -17.79170714 6.57792143 -12.93359375 3.83203125 C-8.51090276 1.5758887 -5.08002433 0 0 0 Z " fill="#E55371" transform="translate(221,248)"/>
<path d="M0 0 C3.875 1.75 3.875 1.75 5 4 C5.04022391 6.3329866 5.04320247 8.66706666 5 11 C4.34 10.34 3.68 9.68 3 9 C3 7.68 3 6.36 3 5 C2.01 5 1.02 5 0 5 C-0.33 6.65 -0.66 8.3 -1 10 C-1.66 10 -2.32 10 -3 10 C-3.33 8.02 -3.66 6.04 -4 4 C-8.02119782 3.72302773 -8.02119782 3.72302773 -12 4 C-13.91256712 5.88077873 -13.91256712 5.88077873 -15 8 C-15.66 8 -16.32 8 -17 8 C-16.67 8.99 -16.34 9.98 -16 11 C-17.98 11 -19.96 11 -22 11 C-21.01 10.67 -20.02 10.34 -19 10 C-19 9.01 -19 8.02 -19 7 C-18.34 7 -17.68 7 -17 7 C-17 6.01 -17 5.02 -17 4 C-17.66 4 -18.32 4 -19 4 C-19 3.34 -19 2.68 -19 2 C-17.71222656 1.93941406 -16.42445313 1.87882813 -15.09765625 1.81640625 C-13.41925841 1.73201753 -11.74087364 1.6473687 -10.0625 1.5625 C-8.78729492 1.50352539 -8.78729492 1.50352539 -7.48632812 1.44335938 C-6.67744141 1.40146484 -5.86855469 1.35957031 -5.03515625 1.31640625 C-3.91185913 1.26141968 -3.91185913 1.26141968 -2.76586914 1.20532227 C-0.97538674 1.18228937 -0.97538674 1.18228937 0 0 Z " fill="#645B5C" transform="translate(296,252)"/>
<path d="M0 0 C3.19342122 1.59671061 3.92120908 4.77008708 5 8 C5.34541851 10.33157492 5.67794257 12.66508361 6 15 C6.49547674 16.52928225 7.01781375 18.05004561 7.5625 19.5625 C8.8340837 23.16737805 9.29678629 26.14177826 9 30 C8.01 30 7.02 30 6 30 C4.06734291 21.67377292 2.50548338 13.54092606 2 5 C1.34 5 0.68 5 0 5 C0 3.35 0 1.7 0 0 Z " fill="#405369" transform="translate(219,266)"/>
<path d="M0 0 C13.81776765 -0.55353075 13.81776765 -0.55353075 19 3 C16.28641313 5.83693172 15.01848382 6.97649653 10.953125 7.0703125 C9.73109375 7.08835937 8.5090625 7.10640625 7.25 7.125 C2.15259564 7.35828228 2.15259564 7.35828228 -2.2578125 9.62109375 C-3.70050257 11.35301878 -4.91737236 13.02549339 -6 15 C-6 11.58479336 -5.17466777 9.8934672 -2.9765625 7.296875 C1.32436449 4.4749229 7.00726182 5.01462002 12 5 C12 4.01 12 3.02 12 2 C8.04 1.67 4.08 1.34 0 1 C0 0.67 0 0.34 0 0 Z " fill="#D19A61" transform="translate(254,255)"/>
<path d="M0 0 C0.33 0 0.66 0 1 0 C1.04898437 1.05960938 1.09796875 2.11921875 1.1484375 3.2109375 C1.22346709 4.59898497 1.29901485 5.98700451 1.375 7.375 C1.42140625 8.42300781 1.42140625 8.42300781 1.46875 9.4921875 C1.59499498 13.70185827 1.59499498 13.70185827 4 17 C4.1953125 19.6015625 4.1953125 19.6015625 4.125 22.625 C4.10695313 23.62789062 4.08890625 24.63078125 4.0703125 25.6640625 C4.03550781 26.82035156 4.03550781 26.82035156 4 28 C2.0625 27.625 2.0625 27.625 0 27 C-3.47042756 20.05914488 -0.98902556 7.50599754 0 0 Z " fill="#395E71" transform="translate(255,212)"/>
<path d="M0 0 C5.75 0.875 5.75 0.875 8 2 C7.75 3.875 7.75 3.875 7 6 C4.9375 7.25 4.9375 7.25 3 8 C5.64 8.33 8.28 8.66 11 9 C11 9.33 11 9.66 11 10 C9.81921875 10.06058594 8.6384375 10.12117188 7.421875 10.18359375 C5.8645723 10.26802582 4.30728121 10.35267249 2.75 10.4375 C1.97269531 10.47681641 1.19539063 10.51613281 0.39453125 10.55664062 C-0.73662109 10.61948242 -0.73662109 10.61948242 -1.890625 10.68359375 C-2.92751465 10.73858032 -2.92751465 10.73858032 -3.98535156 10.79467773 C-6.06628329 11.00675524 -7.98572422 11.44508677 -10 12 C-9.67 11.01 -9.34 10.02 -9 9 C-10.65 9.33 -12.3 9.66 -14 10 C-13.67 9.01 -13.34 8.02 -13 7 C-11.55367187 6.94392578 -11.55367187 6.94392578 -10.078125 6.88671875 C-8.81484375 6.82097656 -7.5515625 6.75523437 -6.25 6.6875 C-4.99703125 6.62949219 -3.7440625 6.57148438 -2.453125 6.51171875 C1.03076463 5.99544099 2.47889796 5.3746744 5 3 C3.35 2.34 1.7 1.68 0 1 C0 0.67 0 0.34 0 0 Z " fill="#B77654" transform="translate(267,255)"/>
<path d="M0 0 C-1 2 -1 2 -2.7421875 2.74609375 C-4.15858578 3.20525583 -5.57525085 3.66359575 -6.9921875 4.12109375 C-9.23986507 5.1049993 -10.46580663 6.09416973 -12 8 C-12.27570202 10.82594567 -12.27433584 12.45132831 -11 15 C-13.31 14.67 -15.62 14.34 -18 14 C-18 8.03432494 -18 8.03432494 -15.29296875 5.234375 C-10.16292241 1.31307799 -6.48577501 -0.18016042 0 0 Z " fill="#4F2963" transform="translate(218,254)"/>
<path d="M0 0 C2.64 0 5.28 0 8 0 C8.43507017 3.04549116 8.5967771 5.15882846 6.76953125 7.734375 C5.23563271 9.3250846 3.82354621 10.74880771 2 12 C1.01 12 0.02 12 -1 12 C-1.66 10.68 -2.32 9.36 -3 8 C-1.68 7.34 -0.36 6.68 1 6 C0.67 4.02 0.34 2.04 0 0 Z " fill="#C8B072" transform="translate(229,288)"/>
<path d="M0 0 C0.98806641 0.24206177 0.98806641 0.24206177 1.99609375 0.48901367 C5.48911307 1.41482551 7.94449322 2.20658969 10.1875 5.125 C6.56027199 6.334076 5.69775258 5.49524337 2.39013672 3.96630859 C-2.13440404 2.23813663 -6.98595974 1.69749897 -11.75 0.9375 C-12.81541016 0.76025391 -13.88082031 0.58300781 -14.97851562 0.40039062 C-17.5886461 -0.03268035 -20.19983019 -0.45757234 -22.8125 -0.875 C-22.8125 -1.205 -22.8125 -1.535 -22.8125 -1.875 C-14.71515505 -3.39325218 -7.91016118 -2.00301434 0 0 Z " fill="#F0908C" transform="translate(285.8125,244.875)"/>
<path d="M0 0 C0.69635753 2.28931274 1.38234377 4.5808757 2.0625 6.875 C2.26166016 7.52597656 2.46082031 8.17695313 2.66601562 8.84765625 C4.11328125 13.7734375 4.11328125 13.7734375 3 16 C0.43015167 12.14522751 -0.85814266 8.47959418 -2 4 C-5.3 4 -8.6 4 -12 4 C-12.66 5.98 -13.32 7.96 -14 10 C-14.84051229 7.64656559 -15.08353007 6.31555804 -14.4375 3.875 C-10.92029663 -0.71265657 -5.27224084 -0.07504969 0 0 Z " fill="#B7B385" transform="translate(244,234)"/>
<path d="M0 0 C2.29165487 3.4374823 2.94202136 6.66695726 3.8125 10.625 C5.30322042 17.04522892 7.26615037 22.49104153 11 28 C10.01 28 9.02 28 8 28 C2.03099019 21.06824668 -0.50083285 10.98500877 -1 2 C-0.67 1.34 -0.34 0.68 0 0 Z " fill="#EE8961" transform="translate(224,293)"/>
<path d="M0 0 C2.00720923 0.28674418 4.0085944 0.61866701 6 1 C6 1.33 6 1.66 6 2 C4.19015625 2.38091797 4.19015625 2.38091797 2.34375 2.76953125 C0.72909815 3.11686915 -0.88548137 3.4645434 -2.5 3.8125 C-3.68722656 4.0609668 -3.68722656 4.0609668 -4.8984375 4.31445312 C-10.15366205 5.45595682 -15.00609042 7.00129078 -20 9 C-20 7.68 -20 6.36 -20 5 C-17.77332235 4.32506659 -15.54354023 3.66036956 -13.3125 3 C-11.45044922 2.443125 -11.45044922 2.443125 -9.55078125 1.875 C-6.48609852 1.11978665 -4.11596647 0.90750378 -1 1 C-0.67 0.67 -0.34 0.34 0 0 Z " fill="#C48A44" transform="translate(281,271)"/>
<path d="M0 0 C0.99 0.33 1.98 0.66 3 1 C1.85210975 8.18820755 -0.1787858 14.48300474 -3.125 21.125 C-3.68380859 22.41664063 -3.68380859 22.41664063 -4.25390625 23.734375 C-5.16065167 25.82686443 -6.07600989 27.91508278 -7 30 C-8.78499513 24.64501462 -5.77248894 19.19086048 -4 14 C-3.34 14 -2.68 14 -2 14 C-2 12.02 -2 10.04 -2 8 C-1.34 7.67 -0.68 7.34 0 7 C0.65213292 4.97536745 0.65213292 4.97536745 1 3 C0.34 2.67 -0.32 2.34 -1 2 C-0.67 1.34 -0.34 0.68 0 0 Z " fill="#F46D55" transform="translate(266,280)"/>
<path d="M0 0 C1.13732426 3.40401948 0.83989957 5.77456664 0.0625 9.25 C-0.13214844 10.14203125 -0.32679688 11.0340625 -0.52734375 11.953125 C-0.68332031 12.62859375 -0.83929688 13.3040625 -1 14 C0.98 12.35 2.96 10.7 5 9 C4.77139942 10.46184058 4.51629608 11.91955419 4.25 13.375 C4.04117188 14.59316406 4.04117188 14.59316406 3.828125 15.8359375 C3 18 3 18 0.921875 19.2890625 C0.28765625 19.52367187 -0.3465625 19.75828125 -1 20 C-3.35232273 17.64767727 -3.29557039 17.13719668 -3.3125 13.9375 C-3.22284494 8.91681691 -1.84045463 4.63400184 0 0 Z " fill="#BA644F" transform="translate(243,276)"/>
<path d="M0 0 C1.32 0.99 2.64 1.98 4 3 C2.125 6.875 2.125 6.875 1 8 C-6.36633663 8.47524752 -6.36633663 8.47524752 -9 6.5 C-9.33 6.005 -9.66 5.51 -10 5 C-9.01 4.67 -8.02 4.34 -7 4 C-6.67 3.34 -6.34 2.68 -6 2 C-4.34178227 1.62690101 -2.67422986 1.29299023 -1 1 C-0.67 0.67 -0.34 0.34 0 0 Z " fill="#CC9E4A" transform="translate(245,315)"/>
<path d="M0 0 C1.29814095 3.65759983 0.7043336 6.22776205 -0.25 9.9375 C-0.50265625 10.95714844 -0.7553125 11.97679687 -1.015625 13.02734375 C-2.11906796 16.35956635 -3.4828378 19.4828378 -6 22 C-7.65 22 -9.3 22 -11 22 C-11 17.38 -11 12.76 -11 8 C-10.34 7.67 -9.68 7.34 -9 7 C-9 10.63 -9 14.26 -9 18 C-7.68 18 -6.36 18 -5 18 C-4.80664062 17.03578125 -4.61328125 16.0715625 -4.4140625 15.078125 C-4.02347656 13.18320312 -4.02347656 13.18320312 -3.625 11.25 C-3.36976563 9.99703125 -3.11453125 8.7440625 -2.8515625 7.453125 C-2.1569875 4.63659152 -1.44319917 2.48481248 0 0 Z " fill="#DF8A4E" transform="translate(250,276)"/>
<path d="M0 0 C0.99 0.33 1.98 0.66 3 1 C1.49048817 5.22663314 -1.1851654 6.83078032 -5 9 C-8.52764645 10.35678709 -10.43559074 9.98649788 -13.8125 8.5625 C-14.864375 8.046875 -15.91625 7.53125 -17 7 C-17 6.34 -17 5.68 -17 5 C-16.505 5.165 -16.01 5.33 -15.5 5.5 C-11.93709691 6.21258062 -8.5689313 6.78445817 -5 6 C-2.79621904 4.18729768 -1.60761625 2.41142437 0 0 Z " fill="#E84E45" transform="translate(251,316)"/>
<path d="M0 0 C0.33 0 0.66 0 1 0 C1.06058594 1.29035156 1.12117187 2.58070313 1.18359375 3.91015625 C1.26805881 5.62761255 1.35270377 7.34506002 1.4375 9.0625 C1.47681641 9.91005859 1.51613281 10.75761719 1.55664062 11.63085938 C1.80003389 16.48000209 2.22598042 21.20628212 3 26 C2.34 25.67 1.68 25.34 1 25 C1 24.34 1 23.68 1 23 C-1.12750156 23.22773256 -3.25208056 23.48290818 -5.375 23.75 C-6.55835938 23.88921875 -7.74171875 24.0284375 -8.9609375 24.171875 C-12.1088608 24.67611298 -12.1088608 24.67611298 -13.4140625 27.078125 C-13.60742188 27.71234375 -13.80078125 28.3465625 -14 29 C-13.67 27.35 -13.34 25.7 -13 24 C-7.06 22.515 -7.06 22.515 -1 21 C-0.67 14.07 -0.34 7.14 0 0 Z " fill="#627F78" transform="translate(243,211)"/>
<path d="M0 0 C-2.20547139 0.73515713 -4.41102517 1.47004285 -6.6171875 2.203125 C-8.49864783 2.83233468 -10.37525676 3.47605042 -12.25 4.125 C-14.8245754 4.94418308 -17.34161394 5.53087305 -20 6 C-20.33 6.99 -20.66 7.98 -21 9 C-21.99 8.67 -22.98 8.34 -24 8 C-24 7.01 -24 6.02 -24 5 C-17.2576323 1.70721577 -7.39322259 -2.66227967 0 0 Z " fill="#E15848" transform="translate(286,274)"/>
<path d="M0 0 C-1.00861682 2.60924787 -1.66498092 3.79748847 -4.09375 5.265625 C-5.28484375 5.75289063 -5.28484375 5.75289063 -6.5 6.25 C-7.2940625 6.58515625 -8.088125 6.9203125 -8.90625 7.265625 C-11 8 -11 8 -13 8 C-13 9.98 -13 11.96 -13 14 C-13.66 13.67 -14.32 13.34 -15 13 C-14.51525144 6.57708162 -14.51525144 6.57708162 -12.4375 4.25 C-4.15 0 -4.15 0 0 0 Z " fill="#2A3D6C" transform="translate(220,254)"/>
<path d="M0 0 C0.33 0 0.66 0 1 0 C1.06058594 1.19238281 1.12117187 2.38476562 1.18359375 3.61328125 C1.26801149 5.17969925 1.35265887 6.74610488 1.4375 8.3125 C1.47681641 9.09818359 1.51613281 9.88386719 1.55664062 10.69335938 C1.59853516 11.45068359 1.64042969 12.20800781 1.68359375 12.98828125 C1.73858032 14.03302612 1.73858032 14.03302612 1.79467773 15.09887695 C1.95581153 17.2216572 1.95581153 17.2216572 3 20 C3.99 20.33 4.98 20.66 6 21 C6.33 18.69 6.66 16.38 7 14 C8.53166168 18.08443115 7.63081652 21.79455657 7 26 C6.67 25.34 6.34 24.68 6 24 C5.360625 23.87625 4.72125 23.7525 4.0625 23.625 C2 23 2 23 0.88330078 21.24511719 C-0.08126628 18.79344259 -0.23076909 17.07691238 -0.1953125 14.453125 C-0.18886719 13.60878906 -0.18242187 12.76445312 -0.17578125 11.89453125 C-0.15902344 11.02183594 -0.14226562 10.14914063 -0.125 9.25 C-0.11597656 8.36183594 -0.10695312 7.47367188 -0.09765625 6.55859375 C-0.07414577 4.37211942 -0.04128499 2.18619906 0 0 Z " fill="#D3C491" transform="translate(245,210)"/>
<path d="M0 0 C0.33 0 0.66 0 1 0 C1.33 3.63 1.66 7.26 2 11 C1.34 11 0.68 11 0 11 C0 7.37 0 3.74 0 0 Z M-2 11 C-1.34 11 -0.68 11 0 11 C0.06058594 11.79664063 0.12117187 12.59328125 0.18359375 13.4140625 C0.69507815 20.04982178 0.69507815 20.04982178 1.6875 26.625 C1.790625 27.40875 1.89375 28.1925 2 29 C1.34 29.66 0.68 30.32 0 31 C-0.07347656 29.82630859 -0.07347656 29.82630859 -0.1484375 28.62890625 C-0.22320312 27.61699219 -0.29796875 26.60507812 -0.375 25.5625 C-0.44460937 24.55316406 -0.51421875 23.54382813 -0.5859375 22.50390625 C-0.72257813 21.67761719 -0.85921875 20.85132813 -1 20 C-1.66 19.67 -2.32 19.34 -3 19 C-3.125 13.25 -3.125 13.25 -2 11 Z " fill="#DFAF58" transform="translate(238,288)"/>
<path d="M0 0 C1.94158017 3.51624755 2.18311068 5.9715651 2 10 C2.66 10 3.32 10 4 10 C5.32 15.28 6.64 20.56 8 26 C7.01 26 6.02 26 5 26 C4.79503906 25.07316406 4.59007812 24.14632813 4.37890625 23.19140625 C4.10949219 21.99386719 3.84007812 20.79632813 3.5625 19.5625 C3.29566406 18.36753906 3.02882812 17.17257812 2.75390625 15.94140625 C2.29933252 13.1295314 2.29933252 13.1295314 1 12 C0.76572222 9.98405418 0.58663876 7.961526 0.4375 5.9375 C0.35371094 4.83277344 0.26992187 3.72804688 0.18359375 2.58984375 C0.09271484 1.30787109 0.09271484 1.30787109 0 0 Z " fill="#B0AD85" transform="translate(223,269)"/>
<path d="M0 0 C2.0625 0.4375 2.0625 0.4375 4 1 C4.44041451 6.28497409 4.44041451 6.28497409 4 9 C1.5 11.5 1.5 11.5 -1 13 C-1 9.48283697 -0.17554415 8.62878252 2 6 C1.01 6 0.02 6 -1 6 C-1.042721 4.33388095 -1.04063832 2.66617115 -1 1 C-0.67 0.67 -0.34 0.34 0 0 Z " fill="#C99959" transform="translate(296,256)"/>
<path d="M0 0 C-0.556875 0.268125 -1.11375 0.53625 -1.6875 0.8125 C-2.8321875 1.4003125 -2.8321875 1.4003125 -4 2 C-4.825 2.37125 -5.65 2.7425 -6.5 3.125 C-9.57444137 5.43083103 -10.54067306 7.67407713 -12.0078125 11.16015625 C-13 13 -13 13 -16 15 C-15.67 12.69 -15.34 10.38 -15 8 C-14.01 7.67 -13.02 7.34 -12 7 C-11.690625 6.01 -11.38125 5.02 -11.0625 4 C-10 1 -10 1 -8.25 0.125 C-5.49288988 -0.02817278 -2.76060157 -0.06274094 0 0 Z " fill="#D9C9A0" transform="translate(242,237)"/>
<path d="M0 0 C1.94723595 2.92085393 2.55175352 4.59332678 3 8 C1.10511048 9.89488952 -1.57139146 9.18019112 -4.08984375 9.23046875 C-6 9 -6 9 -8 7 C-7 6 -7 6 -3.9375 5.9375 C-2.4834375 5.9684375 -2.4834375 5.9684375 -1 6 C-0.67 4.02 -0.34 2.04 0 0 Z " fill="#F36D67" transform="translate(268,234)"/>
<path d="M0 0 C-1.65167557 3.5786304 -3.78286492 6.74820188 -6 10 C-6.103125 9.360625 -6.20625 8.72125 -6.3125 8.0625 C-6.539375 7.381875 -6.76625 6.70125 -7 6 C-7.99 5.67 -8.98 5.34 -10 5 C-4.5 0 -4.5 0 0 0 Z " fill="#86504F" transform="translate(258,264)"/>
<path d="M0 0 C0.66 0 1.32 0 2 0 C2 1.65 2 3.3 2 5 C2.7425 5.268125 3.485 5.53625 4.25 5.8125 C6.86636554 6.94229421 8.80187111 8.20893202 11 10 C9.35 10 7.7 10 6 10 C6 9.34 6 8.68 6 8 C5.34 8 4.68 8 4 8 C3.67 8.99 3.34 9.98 3 11 C3 10.34 3 9.68 3 9 C2.34 9 1.68 9 1 9 C0.63877119 7.68942607 0.28619689 6.37646376 -0.0625 5.0625 C-0.35833984 3.96615234 -0.35833984 3.96615234 -0.66015625 2.84765625 C-0.77230469 2.23792969 -0.88445312 1.62820313 -1 1 C-0.67 0.67 -0.34 0.34 0 0 Z " fill="#EC595F" transform="translate(198,263)"/>
<path d="M0 0 C-0.66 1.32 -1.32 2.64 -2 4 C-4.31 4 -6.62 4 -9 4 C-9 4.66 -9 5.32 -9 6 C-10.98 6.33 -12.96 6.66 -15 7 C-15 6.34 -15 5.68 -15 5 C-13.730447 4.35165346 -12.45930294 3.70642185 -11.1875 3.0625 C-10.47980469 2.70285156 -9.77210938 2.34320313 -9.04296875 1.97265625 C-5.75434298 0.40694341 -3.71199411 0 0 0 Z " fill="#F17A7B" transform="translate(221,248)"/>
<path d="M0 0 C0.66 0.33 1.32 0.66 2 1 C1.67 7.93 1.34 14.86 1 22 C0.67 22 0.34 22 0 22 C-0.33 17.05 -0.66 12.1 -1 7 C-1.99 7 -2.98 7 -4 7 C-2.92598892 4.08482708 -2.22189824 2.22189824 0 0 Z " fill="#57737A" transform="translate(242,210)"/>
<path d="M0 0 C-4.455 1.485 -4.455 1.485 -9 3 C-8.67 4.65 -8.34 6.3 -8 8 C-8.66 8 -9.32 8 -10 8 C-10.103125 7.360625 -10.20625 6.72125 -10.3125 6.0625 C-10.539375 5.381875 -10.76625 4.70125 -11 4 C-11.99 3.67 -12.98 3.34 -14 3 C-12.69696706 0.39393412 -11.68319019 0.08777981 -9 -1 C-3.51492537 -2.34328358 -3.51492537 -2.34328358 0 0 Z " fill="#CB9D49" transform="translate(270,274)"/>
<path d="M0 0 C2.31 0 4.62 0 7 0 C6 2 5 4 4 6 C3.34 6 2.68 6 2 6 C2.33 6.99 2.66 7.98 3 9 C1.02 9 -0.96 9 -3 9 C-2.01 8.67 -1.02 8.34 0 8 C0 7.01 0 6.02 0 5 C0.66 5 1.32 5 2 5 C2 4.01 2 3.02 2 2 C1.34 2 0.68 2 0 2 C0 1.34 0 0.68 0 0 Z " fill="#6A505A" transform="translate(277,254)"/>
<path d="M0 0 C3.63 0 7.26 0 11 0 C11 1.32 11 2.64 11 4 C6.35108046 4.32434322 3.77593392 3.776422 0 1 C0 0.67 0 0.34 0 0 Z " fill="#C88364" transform="translate(204,269)"/>
<path d="M0 0 C0.8971875 0.309375 0.8971875 0.309375 1.8125 0.625 C-0.26689121 2.93543468 -1.74782739 4.46012277 -4.6875 5.5625 C-7.8823205 6.92029871 -9.20424376 8.83375047 -11.1875 11.625 C-11.5175 10.965 -11.8475 10.305 -12.1875 9.625 C-11.08783225 8.32950101 -9.98258199 7.03873929 -8.875 5.75 C-8.26011719 5.03070313 -7.64523438 4.31140625 -7.01171875 3.5703125 C-3.15626236 -0.54107355 -3.15626236 -0.54107355 0 0 Z " fill="#CA6085" transform="translate(248.1875,205.375)"/>
<path d="M0 0 C0.89234179 2.48946307 1.08442558 3.72666635 0.29296875 6.2890625 C-0.25423828 7.44535156 -0.25423828 7.44535156 -0.8125 8.625 C-1.16957031 9.40101563 -1.52664062 10.17703125 -1.89453125 10.9765625 C-3 13 -3 13 -5 15 C-6 12 -6 12 -4.78515625 9.08203125 C-4.21667969 8.00308594 -3.64820313 6.92414063 -3.0625 5.8125 C-2.49660156 4.72582031 -1.93070313 3.63914063 -1.34765625 2.51953125 C-0.90292969 1.68808594 -0.45820313 0.85664063 0 0 Z " fill="#403A70" transform="translate(237,217)"/>
<path d="M0 0 C2.64 0 5.28 0 8 0 C7.49396008 2.16874252 7.00016187 3.99967627 6 6 C4.35 5.67 2.7 5.34 1 5 C0.67 3.35 0.34 1.7 0 0 Z " fill="#CEC083" transform="translate(229,288)"/>
<path d="M0 0 C4.29 0 8.58 0 13 0 C13 0.66 13 1.32 13 2 C13.99 2.33 14.98 2.66 16 3 C14.875 4.5 14.875 4.5 13 6 C9.8125 6.1875 9.8125 6.1875 7 6 C7 5.67 7 5.34 7 5 C8.65 5 10.3 5 12 5 C12 4.01 12 3.02 12 2 C8.04 1.67 4.08 1.34 0 1 C0 0.67 0 0.34 0 0 Z " fill="#D9AA6A" transform="translate(254,255)"/>
<path d="M0 0 C0 0.66 0 1.32 0 2 C2.97 2.33 5.94 2.66 9 3 C9 3.33 9 3.66 9 4 C2.4 4 -4.2 4 -11 4 C-3 0 -3 0 0 0 Z " fill="#93564D" transform="translate(277,260)"/>
<path d="M0 0 C0 1.65 0 3.3 0 5 C-2.31 5 -4.62 5 -7 5 C-7 4.01 -7 3.02 -7 2 C-4 0 -4 0 0 0 Z " fill="#423A54" transform="translate(293,256)"/>
<path d="M0 0 C3.42540866 0.28545072 4.8084997 0.82361814 7.375 3.1875 C9 6 9 6 8.75 9.3125 C8.5025 10.199375 8.255 11.08625 8 12 C6 10 6 10 5.125 7.125 C3.92760026 3.79888962 2.6385591 2.28675122 0 0 Z " fill="#E46679" transform="translate(253,205)"/>
<path d="M0 0 C3 1 3 1 3.984375 2.70703125 C4.23703125 3.40183594 4.4896875 4.09664062 4.75 4.8125 C5.01296875 5.49957031 5.2759375 6.18664062 5.546875 6.89453125 C6.06056958 9.28143969 5.76282269 10.70637773 5 13 C5 12.34 5 11.68 5 11 C4.34 11 3.68 11 3 11 C0.85714286 3.57142857 0.85714286 3.57142857 0 0 Z " fill="#5C346C" transform="translate(255,208)"/>
<path d="M0 0 C2.18994248 3.28491373 2.35277339 4.83095639 2.625 8.6875 C2.69976562 9.68136719 2.77453125 10.67523438 2.8515625 11.69921875 C2.92503906 12.83810547 2.92503906 12.83810547 3 14 C2.01 14 1.02 14 0 14 C0 9.38 0 4.76 0 0 Z " fill="#787E6B" transform="translate(225,282)"/>
<path d="M0 0 C0.33 0 0.66 0 1 0 C1 3.63 1 7.26 1 11 C-3.455 11.495 -3.455 11.495 -8 12 C-5.702779 10.25728062 -3.40133271 8.60088848 -1 7 C-0.26393501 3.43230448 -0.26393501 3.43230448 0 0 Z " fill="#446976" transform="translate(241,222)"/>
<path d="M0 0 C0.66 0.33 1.32 0.66 2 1 C0.4375 3.5625 0.4375 3.5625 -2 6 C-5.75 5.8125 -5.75 5.8125 -9 5 C-9 4.34 -9 3.68 -9 3 C-4.545 2.505 -4.545 2.505 0 2 C0 1.34 0 0.68 0 0 Z " fill="#E3CC92" transform="translate(238,283)"/>
<path d="M0 0 C0.66 0.33 1.32 0.66 2 1 C1.65986985 6.44208234 -1.70296528 9.93668198 -5 14 C-5.33 13.01 -5.66 12.02 -6 11 C-5.34 10.01 -4.68 9.02 -4 8 C-3.34 8 -2.68 8 -2 8 C-2 7.01 -2 6.02 -2 5 C-1.34 5 -0.68 5 0 5 C0 3.35 0 1.7 0 0 Z " fill="#EFC988" transform="translate(252,256)"/>
<path d="M0 0 C2.41395894 4.34512609 3.44490657 7.42799678 2.0625 12.3125 C1.711875 13.199375 1.36125 14.08625 1 15 C-0.65 15 -2.3 15 -4 15 C-2.68 14.67 -1.36 14.34 0 14 C-0.185625 12.700625 -0.37125 11.40125 -0.5625 10.0625 C-0.87890625 7.84765625 -0.87890625 7.84765625 -1 6 C-0.67 5.67 -0.34 5.34 0 5 C0.04063832 3.33382885 0.042721 1.66611905 0 0 Z " fill="#F26066" transform="translate(266,225)"/>
<path d="M0 0 C2.76544722 3.45680903 4.84921278 7.14341602 7 11 C6.01 11 5.02 11 4 11 C1.57396616 8.01944414 0.08667557 5.99676908 -0.25 2.125 C-0.1675 1.42375 -0.085 0.7225 0 0 Z " fill="#E7735E" transform="translate(228,310)"/>
<path d="M0 0 C2.12300942 3.53834904 2.69690596 6.90823045 3 11 C2.34 11.66 1.68 12.32 1 13 C0.63447197 11.58622218 0.28304505 10.16879424 -0.0625 8.75 C-0.25972656 7.96109375 -0.45695313 7.1721875 -0.66015625 6.359375 C-1.01497267 3.89605178 -0.76877544 2.34395868 0 0 Z " fill="#BD505F" transform="translate(222,282)"/>
<path d="M0 0 C-0.969375 0.45375 -1.93875 0.9075 -2.9375 1.375 C-6.07079582 2.65786221 -6.07079582 2.65786221 -7 5 C-5.02 5 -3.04 5 -1 5 C-1 5.33 -1 5.66 -1 6 C-3.64 6 -6.28 6 -9 6 C-9.33 5.34 -9.66 4.68 -10 4 C-4.7704918 -1.59016393 -4.7704918 -1.59016393 0 0 Z " fill="#35566E" transform="translate(216,260)"/>
<path d="M0 0 C-1.27192363 2.54384726 -2.19948469 2.69368156 -4.8125 3.6875 C-5.49957031 3.95949219 -6.18664062 4.23148437 -6.89453125 4.51171875 C-9.29376496 5.06812731 -10.6894364 4.77364938 -13 4 C-8.66957446 0.44286474 -5.53947792 -0.15387439 0 0 Z " fill="#5E296B" transform="translate(218,254)"/>
<path d="M0 0 C5.26053037 -0.31563182 8.44573816 0.33409063 13 3 C12.01 3.66 11.02 4.32 10 5 C7.51953125 4.3203125 7.51953125 4.3203125 4.8125 3.125 C3.91144531 2.73570312 3.01039063 2.34640625 2.08203125 1.9453125 C1.39496094 1.63335937 0.70789063 1.32140625 0 1 C0 0.67 0 0.34 0 0 Z " fill="#E17F88" transform="translate(283,246)"/>
<path d="M0 0 C2.06486852 4.12973704 2.29721646 6.11126099 2.3125 10.625 C2.32925781 11.77226562 2.34601563 12.91953125 2.36328125 14.1015625 C2.24339844 15.05804688 2.12351562 16.01453125 2 17 C1.01 17.66 0.02 18.32 -1 19 C-1 17.68 -1 16.36 -1 15 C-0.34 15 0.32 15 1 15 C0.67 10.05 0.34 5.1 0 0 Z " fill="#302B65" transform="translate(260,221)"/>
<path d="M0 0 C1.32 0 2.64 0 4 0 C2.125 3.875 2.125 3.875 1 5 C-1.67058851 5.14115161 -4.32432238 5.04247107 -7 5 C-7 4.67 -7 4.34 -7 4 C-5.824375 3.8453125 -5.824375 3.8453125 -4.625 3.6875 C-1.66954819 3.22404978 -1.66954819 3.22404978 0 0 Z " fill="#C18647" transform="translate(245,318)"/>
<path d="M0 0 C1.18951523 3.5685457 0.97717908 5.39195416 0 9 C-1.875 10.9375 -1.875 10.9375 -4 12 C-4.99 11.67 -5.98 11.34 -7 11 C-6.21625 10.29875 -5.4325 9.5975 -4.625 8.875 C-1.91639182 5.90842914 -0.98277285 3.8417484 0 0 Z " fill="#DDA744" transform="translate(247,306)"/>
<path d="M0 0 C0.66 0 1.32 0 2 0 C1.34 3.96 0.68 7.92 0 12 C-0.66 11.67 -1.32 11.34 -2 11 C-2.28571429 3.57142857 -2.28571429 3.57142857 0 0 Z " fill="#7C5856" transform="translate(246,270)"/>
<path d="M0 0 C0.66 0.33 1.32 0.66 2 1 C0.68 3.31 -0.64 5.62 -2 8 C-2.99 8 -3.98 8 -5 8 C-3.8141763 4.62496331 -2.72426311 2.35277269 0 0 Z " fill="#EA6B76" transform="translate(203,255)"/>
<path d="M0 0 C2.05078125 0.03255208 4.1015625 0.06510417 6.15234375 0.09765625 C2.62104521 2.45185527 -0.83730338 3.76087196 -4.84765625 5.09765625 C-2.44354091 0.12915121 -2.44354091 0.12915121 0 0 Z " fill="#53445B" transform="translate(285.84765625,254.90234375)"/>
<path d="M0 0 C3.875 1.75 3.875 1.75 5 4 C5.04022391 6.3329866 5.04320247 8.66706666 5 11 C2.64046906 8.64046906 2.50858587 7.22104383 2 4 C0.35 3.67 -1.3 3.34 -3 3 C-2.01 2.01 -1.02 1.02 0 0 Z " fill="#395069" transform="translate(296,252)"/>
<path d="M0 0 C0.99 0 1.98 0 3 0 C6.22265625 5.2734375 6.22265625 5.2734375 7 7 C6.67 7.66 6.34 8.32 6 9 C5.566875 8.34 5.13375 7.68 4.6875 7 C3.8521875 6.01 3.8521875 6.01 3 5 C2.01 5 1.02 5 0 5 C0 3.33333333 0 1.66666667 0 0 Z " fill="#DA5365" transform="translate(215,270)"/>
<path d="M0 0 C0.99 0.33 1.98 0.66 3 1 C2.67 2.32 2.34 3.64 2 5 C1.34 5 0.68 5 0 5 C-0.33 6.65 -0.66 8.3 -1 10 C-2.46726798 6.18510326 -1.43336419 3.70988378 0 0 Z " fill="#553E51" transform="translate(248,270)"/>
<path d="M0 0 C0 0.33 0 0.66 0 1 C-1.74818591 1.22304441 -3.49870323 1.4278645 -5.25 1.625 C-6.22453125 1.74101562 -7.1990625 1.85703125 -8.203125 1.9765625 C-11.13429393 2.00112537 -12.54528964 1.5312717 -15 0 C-9.65370398 -1.0024305 -5.37625234 -0.84888195 0 0 Z " fill="#F19D98" transform="translate(278,243)"/>
<path d="M0 0 C0.75 1.6875 0.75 1.6875 1 4 C-0.8125 6.75 -0.8125 6.75 -3 9 C-3.66 9 -4.32 9 -5 9 C-5 6.36 -5 3.72 -5 1 C-4.67 1 -4.34 1 -4 1 C-4 2.65 -4 4.3 -4 6 C-3.34 6 -2.68 6 -2 6 C-1.34 4.02 -0.68 2.04 0 0 Z " fill="#92494B" transform="translate(247,281)"/>
<path d="M0 0 C0 0.33 0 0.66 0 1 C-1.41601714 1.48108275 -2.83284437 1.95978141 -4.25 2.4375 C-5.03890625 2.70433594 -5.8278125 2.97117187 -6.640625 3.24609375 C-8.74821988 3.91954708 -10.84753973 4.49150595 -13 5 C-13 4.34 -13 3.68 -13 3 C-8.37802694 0.78145293 -5.23175837 -0.38281159 0 0 Z " fill="#DBAA43" transform="translate(270,270)"/>
<path d="M0 0 C3.26460973 1.80412643 4.88929795 2.83394693 7 6 C7.125 8.6875 7.125 8.6875 7 11 C6.6596875 10.1646875 6.6596875 10.1646875 6.3125 9.3125 C5.00796402 6.77527615 5.00796402 6.77527615 2.375 4.375 C1.59125 3.59125 0.8075 2.8075 0 2 C0 1.34 0 0.68 0 0 Z " fill="#E2C37F" transform="translate(248,250)"/>
<path d="M0 0 C0.99 0.33 1.98 0.66 3 1 C2.67 2.32 2.34 3.64 2 5 C0.02 5.33 -1.96 5.66 -4 6 C-1.125 1.125 -1.125 1.125 0 0 Z " fill="#584870" transform="translate(222,248)"/>
<path d="M0 0 C1.32 0.33 2.64 0.66 4 1 C4.33 4.3 4.66 7.6 5 11 C3 10 3 10 2.1484375 7.71484375 C1.89320313 6.79832031 1.63796875 5.88179687 1.375 4.9375 C1.11460937 4.01839844 0.85421875 3.09929687 0.5859375 2.15234375 C0.39257812 1.44207031 0.19921875 0.73179687 0 0 Z " fill="#B1A26E" transform="translate(247,233)"/>
<path d="M0 0 C0.66 0 1.32 0 2 0 C0.375 6.75 0.375 6.75 -3 9 C-3.66 8.34 -4.32 7.68 -5 7 C-4.34 7 -3.68 7 -3 7 C-2.690625 6.21625 -2.38125 5.4325 -2.0625 4.625 C-1 2 -1 2 0 0 Z " fill="#D36374" transform="translate(224,240)"/>
<path d="M0 0 C2.29633824 3.44450737 2.54016485 5.93812283 3 10 C2.01 9.67 1.02 9.34 0 9 C-1.125 2.25 -1.125 2.25 0 0 Z " fill="#E87769" transform="translate(224,293)"/>
<path d="M0 0 C-1.65 0.33 -3.3 0.66 -5 1 C-5.33 1.99 -5.66 2.98 -6 4 C-6.99 3.67 -7.98 3.34 -9 3 C-9 2.01 -9 1.02 -9 0 C-2.25 -1.125 -2.25 -1.125 0 0 Z " fill="#E95E4B" transform="translate(271,279)"/>
<path d="M0 0 C2.89932357 2.39509338 3.50168276 4.31245243 4 8 C3.01 8 2.02 8 1 8 C0.67 5.36 0.34 2.72 0 0 Z " fill="#636D64" transform="translate(247,237)"/>
<path d="M0 0 C3.5 0.3125 3.5 0.3125 7 1 C7.33 1.66 7.66 2.32 8 3 C4.625 3.125 4.625 3.125 1 3 C0.34 2.34 -0.32 1.68 -1 1 C-0.67 0.67 -0.34 0.34 0 0 Z " fill="#F18081" transform="translate(261,240)"/>
<path d="M0 0 C1.32 0.33 2.64 0.66 4 1 C4 2.32 4 3.64 4 5 C2.68 5 1.36 5 0 5 C0 3.35 0 1.7 0 0 Z " fill="#DAC594" transform="translate(296,256)"/>
<path d="M0 0 C0.66 0.33 1.32 0.66 2 1 C1.236875 1.4125 0.47375 1.825 -0.3125 2.25 C-2.9366642 3.95875809 -4.30321976 5.41017753 -6 8 C-6 6.35 -6 4.7 -6 3 C-4.03533587 1.93224776 -2.03144641 0.93446535 0 0 Z " fill="#F27A3E" transform="translate(274,278)"/>
<path d="M0 0 C0.66 0.99 1.32 1.98 2 3 C1.01 4.98 0.02 6.96 -1 9 C-1.66 9 -2.32 9 -3 9 C-2.01 6.03 -1.02 3.06 0 0 Z " fill="#C0556F" transform="translate(228,231)"/>
<path d="M0 0 C0.66 0 1.32 0 2 0 C2 0.66 2 1.32 2 2 C3.98 2.66 5.96 3.32 8 4 C4.86650268 5.04449911 4.01031744 4.93423645 1 4 C0.67 2.68 0.34 1.36 0 0 Z " fill="#F56F5F" transform="translate(202,271)"/>
<path d="M0 0 C0.66 0.33 1.32 0.66 2 1 C1.25 3.4375 1.25 3.4375 0 6 C-2.125 6.8125 -2.125 6.8125 -4 7 C-2.92598892 4.08482708 -2.22189824 2.22189824 0 0 Z " fill="#594079" transform="translate(242,210)"/>
</svg>
