<?xml version="1.0" encoding="UTF-8"?>
<svg version="1.1" xmlns="http://www.w3.org/2000/svg" width="341" height="100">
<path d="M0 0 C5.94 0 11.88 0 18 0 C23.62054208 6.7446505 23.62054208 6.7446505 25.578125 10.03125 C26.01769531 10.76085938 26.45726562 11.49046875 26.91015625 12.2421875 C27.35230469 12.98726562 27.79445313 13.73234375 28.25 14.5 C33.00070952 22.4513386 37.98466627 30.19836976 43 38 C43.33 25.46 43.66 12.92 44 0 C49.94 0 55.88 0 62 0 C62 23.76 62 47.52 62 72 C56.06 72 50.12 72 44 72 C38.38142815 65.25771378 38.38142815 65.25771378 36.16796875 61.4609375 C35.67876953 60.63207031 35.18957031 59.80320313 34.68554688 58.94921875 C34.19119141 58.09972656 33.69683594 57.25023437 33.1875 56.375 C28.71113806 48.71318957 23.93718277 41.40577416 19 34 C18.67 46.54 18.34 59.08 18 72 C12.06 72 6.12 72 0 72 C0 48.24 0 24.48 0 0 Z " fill="#FCFCFC" transform="translate(273,14)"/>
<path d="M0 0 C1.04027344 0.00644531 2.08054688 0.01289063 3.15234375 0.01953125 C5.71795979 0.16761379 7.67032906 0.29361665 10.0625 1.1875 C11.16630554 2.81666565 11.16630554 2.81666565 12.02612305 4.95922852 C12.52306419 6.16543602 12.52306419 6.16543602 13.03004456 7.39601135 C13.37462204 8.27724167 13.71919952 9.15847198 14.07421875 10.06640625 C14.62933388 11.4335099 14.62933388 11.4335099 15.19566345 12.82823181 C16.3959203 15.796192 17.57348565 18.77255726 18.75 21.75 C19.5613763 23.77382302 20.37371347 25.79726108 21.18701172 27.8203125 C23.50330098 33.599834 25.78837551 39.39127734 28.0625 45.1875 C28.35968933 45.94311218 28.65687866 46.69872437 28.96307373 47.47723389 C30.55928229 51.53930289 32.13520186 55.60838895 33.6875 59.6875 C34.04674561 60.6266626 34.40599121 61.5658252 34.77612305 62.53344727 C35.08976807 63.37834717 35.40341309 64.22324707 35.7265625 65.09375 C36.12029053 66.15045898 36.12029053 66.15045898 36.52197266 67.22851562 C37.0625 69.1875 37.0625 69.1875 37.0625 73.1875 C30.7925 73.1875 24.5225 73.1875 18.0625 73.1875 C14.0625 63.5625 14.0625 63.5625 14.0625 60.1875 C5.1525 60.1875 -3.7575 60.1875 -12.9375 60.1875 C-13.2675 62.4975 -13.5975 64.8075 -13.9375 67.1875 C-14.9275 69.1675 -15.9175 71.1475 -16.9375 73.1875 C-23.2075 73.1875 -29.4775 73.1875 -35.9375 73.1875 C-34.61486886 67.23565987 -33.34178829 62.12413543 -31.06640625 56.6015625 C-30.78806946 55.90976395 -30.50973267 55.21796539 -30.22296143 54.50520325 C-29.32223727 52.27142417 -28.41156912 50.04187288 -27.5 47.8125 C-26.87085171 46.26199732 -26.24219476 44.71129518 -25.61401367 43.16040039 C-24.34165759 40.02144155 -23.06534596 36.88412669 -21.78710938 33.74755859 C-20.32280217 30.14740689 -18.87991863 26.53934518 -17.45045471 22.92523193 C-16.69331639 21.01123375 -15.93223887 19.09885503 -15.16967773 17.18701172 C-14.24085462 14.85656818 -13.31823395 12.5236406 -12.40258789 10.18798828 C-11.9874292 9.15528809 -11.57227051 8.12258789 -11.14453125 7.05859375 C-10.7885083 6.16068115 -10.43248535 5.26276855 -10.06567383 4.33764648 C-7.70694439 -0.15777228 -4.60297995 -0.06258687 0 0 Z M0.0625 25.1875 C-0.94130916 27.97785046 -1.9406945 30.76964855 -2.9375 33.5625 C-3.22367188 34.3565625 -3.50984375 35.150625 -3.8046875 35.96875 C-4.07539062 36.72929688 -4.34609375 37.48984375 -4.625 38.2734375 C-4.87636719 38.9751709 -5.12773438 39.6769043 -5.38671875 40.39990234 C-6.0356509 42.19430111 -6.0356509 42.19430111 -5.9375 44.1875 C-1.6475 44.1875 2.6425 44.1875 7.0625 44.1875 C5.76274676 37.47210827 3.76321112 31.46730887 1.0625 25.1875 C0.7325 25.1875 0.4025 25.1875 0.0625 25.1875 Z " fill="#FCFCFC" transform="translate(80.9375,11.8125)"/>
<path d="M0 0 C-0.50771472 5.96564796 -2.38592128 10.63809899 -5 16 C-11.56619145 15.11608961 -11.56619145 15.11608961 -13.94140625 14.48046875 C-20.95779012 12.84286872 -28.62723915 13.61210935 -35 17 C-37.14989803 18.87198438 -38.37540118 20.58771691 -40 23 C-40.433125 23.61875 -40.86625 24.2375 -41.3125 24.875 C-43.33616632 31.12996864 -41.96077064 36.87913444 -39.37890625 42.7265625 C-37.02376818 46.60953801 -34.24211618 48.48697856 -30 50 C-23.44445743 51.41283245 -18.38407541 51.08710158 -12 49 C-9.66784156 48.92596322 -7.33139212 48.90484114 -5 49 C1.1789601 58.93047158 1.1789601 58.93047158 0 64 C-4.48280388 68.89033151 -10.29746754 70.03605663 -16.671875 70.3359375 C-30.90748607 70.59069174 -41.97957388 68.77921772 -53 59 C-59.90708095 51.48424908 -63.07067782 42.50525527 -64.5 32.5 C-62.80920341 20.66442389 -58.50873229 9.91587997 -48.98046875 2.34375 C-34.67366392 -7.36343119 -14.87716786 -10.4140175 0 0 Z " fill="#FAFAFA" transform="translate(180,17)"/>
<path d="M0 0 C5.94 0 11.88 0 18 0 C18 0.99 18 1.98 18 3 C27.24 3 36.48 3 46 3 C46 8.28 46 13.56 46 19 C37.75 19 29.5 19 21 19 C21 23.29 21 27.58 21 32 C28.59 32 36.18 32 44 32 C44 37.28 44 42.56 44 48 C36.74 48 29.48 48 22 48 C22.020625 49.629375 22.04125 51.25875 22.0625 52.9375 C22.07213944 60.98643564 21.51808546 68.9696754 21 77 C15.06 77 9.12 77 3 77 C3 76.01 3 75.02 3 74 C2.01 74 1.02 74 0 74 C0 49.58 0 25.16 0 0 Z " fill="#FBFBFA" transform="translate(6,7)"/>
<path d="M0 0 C13.53 0 27.06 0 41 0 C41 4.95 41 9.9 41 15 C33.08 15 25.16 15 17 15 C17 19.62 17 24.24 17 29 C24.59 29 32.18 29 40 29 C40 33.95 40 38.9 40 44 C32.41 44 24.82 44 17 44 C17 48.29 17 52.58 17 57 C24.92 57 32.84 57 41 57 C41 61.95 41 66.9 41 72 C27.47 72 13.94 72 0 72 C0 48.24 0 24.48 0 0 Z " fill="#FDFDFD" transform="translate(186,13)"/>
<path d="M0 0 C5.61 0 11.22 0 17 0 C17 14.85 17 29.7 17 45 C11.39 45 5.78 45 0 45 C-0.16737766 38.91291842 -0.32796157 32.82571052 -0.48217773 26.73828125 C-0.5356348 24.66629175 -0.59096697 22.59434976 -0.64819336 20.52246094 C-0.73000096 17.54893237 -0.80512222 14.57529961 -0.87890625 11.6015625 C-0.90594131 10.67131256 -0.93297638 9.74106262 -0.96083069 8.78262329 C-0.98092697 7.92188202 -1.00102325 7.06114075 -1.02172852 6.17431641 C-1.04171402 5.41486725 -1.06169952 4.65541809 -1.08229065 3.87295532 C-1 2 -1 2 0 0 Z " fill="#F26711" transform="translate(240,40)"/>
<path d="M0 0 C9.24 0 18.48 0 28 0 C28 5.28 28 10.56 28 16 C19.75 16 11.5 16 3 16 C3 20.29 3 24.58 3 29 C2.01 29 1.02 29 0 29 C0 19.43 0 9.86 0 0 Z " fill="#F9660C" transform="translate(24,10)"/>
<path d="M0 0 C1.87109375 1.28125 1.87109375 1.28125 3 3 C3 4.32 3 5.64 3 7 C3.99 7 4.98 7 6 7 C7.20190901 10.60572704 7.32670315 13.2102435 7 17 C5.20437595 19.75329021 3.94745078 21.52627461 1 23 C-4.90332576 23.60033821 -7.86367336 23.01952737 -12.5546875 19.38671875 C-14.67901957 17.34850825 -15.90848524 15.62783382 -16.3359375 12.6953125 C-16.39688499 8.68496754 -16.25142881 5.62857203 -14.75 1.875 C-10.30255723 -1.15734734 -5.21532086 -0.88022293 0 0 Z " fill="#FAF7F3" transform="translate(252,9)"/>
<path d="M0 0 C0.33 0 0.66 0 1 0 C1.06058594 1.15757813 1.12117187 2.31515625 1.18359375 3.5078125 C1.26805502 5.04688457 1.35270018 6.58594655 1.4375 8.125 C1.47681641 8.88554688 1.51613281 9.64609375 1.55664062 10.4296875 C1.59853516 11.17734375 1.64042969 11.925 1.68359375 12.6953125 C1.72025146 13.37609863 1.75690918 14.05688477 1.79467773 14.75830078 C1.97848182 17.11570531 1.97848182 17.11570531 2.51367188 19.87695312 C3.01040667 23.06682836 3.11362735 26.04727506 3.09765625 29.2734375 C3.09282227 31.00400391 3.09282227 31.00400391 3.08789062 32.76953125 C3.07951172 33.95933594 3.07113281 35.14914063 3.0625 36.375 C3.05798828 37.58800781 3.05347656 38.80101562 3.04882812 40.05078125 C3.03708366 43.03387545 3.01914943 46.01694414 3 49 C7.29 49 11.58 49 16 49 C15.98839844 47.61425781 15.97679687 46.22851562 15.96484375 44.80078125 C15.95546208 42.97135552 15.94636228 41.14192832 15.9375 39.3125 C15.92912109 38.40048828 15.92074219 37.48847656 15.91210938 36.54882812 C15.90888672 35.66259766 15.90566406 34.77636719 15.90234375 33.86328125 C15.89448853 32.64572144 15.89448853 32.64572144 15.88647461 31.40356445 C16.0070209 28.85135327 16.440051 26.48973863 17 24 C18.65 24 20.3 24 22 24 C22.16850035 33.71685379 21.62533962 43.3072359 21 53 C15.06 53 9.12 53 3 53 C3 52.01 3 51.02 3 50 C2.01 50 1.02 50 0 50 C0 33.5 0 17 0 0 Z " fill="#E3D8CE" transform="translate(6,31)"/>
<path d="M0 0 C5.94 0 11.88 0 18 0 C18 10.56 18 21.12 18 32 C26.58 32 35.16 32 44 32 C44 32.33 44 32.66 44 33 C34.43 33 24.86 33 15 33 C15 22.44 15 11.88 15 1 C11.04 1 7.08 1 3 1 C3 16.18 3 31.36 3 47 C2.67 47 2.34 47 2 47 C-0.82101519 31.59109349 -0.11784666 15.59504146 0 0 Z " fill="#F1DDCC" transform="translate(6,7)"/>
<path d="M0 0 C1.32 0 2.64 0 4 0 C4.16850035 9.71685379 3.62533962 19.3072359 3 29 C-2.94 29 -8.88 29 -15 29 C-15 28.01 -15 27.02 -15 26 C-10.38 26 -5.76 26 -1 26 C-0.67 17.42 -0.34 8.84 0 0 Z " fill="#D16A2D" transform="translate(24,55)"/>
<path d="M0 0 C9.24 0 18.48 0 28 0 C28 0.33 28 0.66 28 1 C14.635 1.495 14.635 1.495 1 2 C1.33 6.29 1.66 10.58 2 15 C10.58 15 19.16 15 28 15 C28 15.33 28 15.66 28 16 C19.75 16 11.5 16 3 16 C3 20.29 3 24.58 3 29 C2.01 29 1.02 29 0 29 C0 19.43 0 9.86 0 0 Z " fill="#CA6526" transform="translate(24,10)"/>
<path d="M0 0 C4.95 0 9.9 0 15 0 C15 0.33 15 0.66 15 1 C11.04 1 7.08 1 3 1 C3 16.18 3 31.36 3 47 C2.67 47 2.34 47 2 47 C-0.82101519 31.59109349 -0.11784666 15.59504146 0 0 Z " fill="#E9E8E7" transform="translate(6,7)"/>
<path d="M0 0 C0.99 0 1.98 0 3 0 C4.20190901 3.60572704 4.32670315 6.2102435 4 10 C2.20437595 12.75329021 0.94745078 14.52627461 -2 16 C-9.46666667 16.35555556 -9.46666667 16.35555556 -13 14 C-13 13.34 -13 12.68 -13 12 C-11.741875 11.731875 -10.48375 11.46375 -9.1875 11.1875 C-4.89973881 10.14478149 -4.89973881 10.14478149 -2 7 C-1.25613932 4.69011685 -0.57809297 2.35684056 0 0 Z " fill="#DF8044" transform="translate(255,16)"/>
<path d="M0 0 C0.33 0.99 0.66 1.98 1 3 C0.01 4.485 0.01 4.485 -1 6 C-8.14893617 6.56737589 -8.14893617 6.56737589 -12 4 C-12 3.34 -12 2.68 -12 2 C-8.04 1.34 -4.08 0.68 0 0 Z " fill="#E37833" transform="translate(254,26)"/>
<path d="M0 0 C0.33 0 0.66 0 1 0 C1 4.29 1 8.58 1 13 C-3.95 13 -8.9 13 -14 13 C-14 12.67 -14 12.34 -14 12 C-8.06 11.505 -8.06 11.505 -2 11 C-1.855625 9.370625 -1.71125 7.74125 -1.5625 6.0625 C-1.125 1.125 -1.125 1.125 0 0 Z " fill="#EC6D1E" transform="translate(25,70)"/>
</svg>
