<?xml version="1.0" encoding="UTF-8"?>
<svg version="1.1" xmlns="http://www.w3.org/2000/svg" width="500" height="500">
<path d="M0 0 C46.53 0 93.06 0 141 0 C141.33 16.17 141.66 32.34 142 49 C113.95 49 85.9 49 57 49 C57 64.51 57 80.02 57 96 C82.41 96 107.82 96 134 96 C134 112.5 134 129 134 146 C108.59 146 83.18 146 57 146 C57 177.68 57 209.36 57 242 C38.19 242 19.38 242 0 242 C0 162.14 0 82.28 0 0 Z " fill="#FEFDFD" transform="translate(132,129)"/>
<path d="M0 0 C1.01825867 -0.00307663 2.03651733 -0.00615326 3.08563232 -0.00932312 C4.18562561 -0.0021376 5.2856189 0.00504791 6.41894531 0.01245117 C7.55229309 0.01290939 8.68564087 0.01336761 9.85333252 0.01383972 C12.25412033 0.01686325 14.65490615 0.02475253 17.05566406 0.03710938 C20.71849581 0.05527818 24.38107336 0.05761961 28.04394531 0.05737305 C30.37728082 0.06229185 32.71061462 0.06812174 35.04394531 0.07495117 C36.68178986 0.07662041 36.68178986 0.07662041 38.35272217 0.07832336 C39.38358948 0.08470322 40.41445679 0.09108307 41.4765625 0.09765625 C42.37574402 0.10146805 43.27492554 0.10527985 44.20135498 0.10920715 C47.48463607 0.26623909 50.74307249 0.77806309 53.99707031 1.24291992 C53.99707031 50.74291992 53.99707031 100.24291992 53.99707031 151.24291992 C-3.00292969 152.24291992 -3.00292969 152.24291992 -7.00292969 151.24291992 C-7.20339812 131.85042145 -7.38672833 112.45783374 -7.54951763 93.06498146 C-7.62550126 84.06104507 -7.70714512 75.05722576 -7.80200195 66.0534668 C-7.88464107 58.20805528 -7.95677449 50.36263051 -8.01616222 42.51700723 C-8.04799363 38.3607382 -8.08517342 34.20466892 -8.13492393 30.04857254 C-8.18154506 26.14005763 -8.21416274 22.23168074 -8.23585129 18.32295036 C-8.24633156 16.885341 -8.26201174 15.44775911 -8.2831707 14.01026726 C-8.31120737 12.053676 -8.31904797 10.09682588 -8.32572937 8.14004517 C-8.33586909 7.04311152 -8.34600882 5.94617786 -8.3564558 4.8160038 C-8.23979218 3.96688612 -8.12312857 3.11776844 -8.00292969 2.24291992 C-4.72718323 0.05908895 -3.79334605 -0.00603303 0 0 Z " fill="#FE6100" transform="translate(295.0029296875,219.757080078125)"/>
<path d="M0 0 C27.72 0 55.44 0 84 0 C84.33 16.17 84.66 32.34 85 49 C56.95 49 28.9 49 0 49 C0 32.83 0 16.66 0 0 Z " fill="#F7650A" transform="translate(189,129)"/>
<path d="M0 0 C8.6182225 6.19907233 14.44171533 12.81293718 16.4375 23.3125 C17.5067416 32.19543025 16.53596425 39.86597392 11.34765625 47.29296875 C6.01925999 54.04227068 -0.40310868 59.47474509 -9 61 C-20.45218784 61.83072865 -28.94383311 60.48832914 -37.91796875 53.1015625 C-45.54575649 45.40221952 -47.30413332 37.57506352 -47.31469727 27.14257812 C-47.09574019 15.7101682 -41.44411029 9.44411029 -33.6875 1.6875 C-23.85968327 -4.48345469 -10.40989163 -5.1722103 0 0 Z " fill="#F8F8F8" transform="translate(332,129)"/>
<path d="M0 0 C1.01825867 -0.00307663 2.03651733 -0.00615326 3.08563232 -0.00932312 C4.18562561 -0.0021376 5.2856189 0.00504791 6.41894531 0.01245117 C7.55229309 0.01290939 8.68564087 0.01336761 9.85333252 0.01383972 C12.25412033 0.01686325 14.65490615 0.02475253 17.05566406 0.03710938 C20.71849581 0.05527818 24.38107336 0.05761961 28.04394531 0.05737305 C30.37728082 0.06229185 32.71061462 0.06812174 35.04394531 0.07495117 C36.68178986 0.07662041 36.68178986 0.07662041 38.35272217 0.07832336 C39.38358948 0.08470322 40.41445679 0.09108307 41.4765625 0.09765625 C42.37574402 0.10146805 43.27492554 0.10527985 44.20135498 0.10920715 C47.48463607 0.26623909 50.74307249 0.77806309 53.99707031 1.24291992 C53.99707031 50.74291992 53.99707031 100.24291992 53.99707031 151.24291992 C-3.00292969 152.24291992 -3.00292969 152.24291992 -7.00292969 151.24291992 C-7.20339812 131.85042145 -7.38672833 112.45783374 -7.54951763 93.06498146 C-7.62550126 84.06104507 -7.70714512 75.05722576 -7.80200195 66.0534668 C-7.88464107 58.20805528 -7.95677449 50.36263051 -8.01616222 42.51700723 C-8.04799363 38.3607382 -8.08517342 34.20466892 -8.13492393 30.04857254 C-8.18154506 26.14005763 -8.21416274 22.23168074 -8.23585129 18.32295036 C-8.24633156 16.885341 -8.26201174 15.44775911 -8.2831707 14.01026726 C-8.31120737 12.053676 -8.31904797 10.09682588 -8.32572937 8.14004517 C-8.33586909 7.04311152 -8.34600882 5.94617786 -8.3564558 4.8160038 C-8.23979218 3.96688612 -8.12312857 3.11776844 -8.00292969 2.24291992 C-4.72718323 0.05908895 -3.79334605 -0.00603303 0 0 Z M30.07910156 2.36401367 C29.09584396 2.38762466 28.11258636 2.41123566 27.09953308 2.43556213 C24.00269658 2.51126769 20.9061715 2.59568405 17.80957031 2.68041992 C15.69174629 2.73373418 13.57390771 2.78647367 11.45605469 2.83862305 C6.30286804 2.96675439 1.14994136 3.1026906 -4.00292969 3.24291992 C-4.02625751 22.13129873 -4.04390829 41.01967463 -4.05474186 59.90806484 C-4.05990507 68.67764708 -4.06694823 77.44722037 -4.07836914 86.21679688 C-4.08831523 93.85754895 -4.09478294 101.49829456 -4.09701818 109.13905293 C-4.09832542 113.18730378 -4.10141207 117.23553612 -4.10865974 121.28378105 C-4.11541878 125.08972861 -4.11754689 128.89564994 -4.11603737 132.70160294 C-4.11631375 134.10249664 -4.11831957 135.50339117 -4.12213516 136.90427971 C-4.12707052 138.808815 -4.12532768 140.71336419 -4.1231842 142.61790466 C-4.124106 143.68626273 -4.12502779 144.7546208 -4.12597752 145.85535336 C-4.27254927 148.19655894 -4.27254927 148.19655894 -3.00292969 149.24291992 C15.14707031 149.57291992 33.29707031 149.90291992 51.99707031 150.24291992 C51.99707031 101.73291992 51.99707031 53.22291992 51.99707031 3.24291992 C44.51960628 2.56315046 37.51856859 2.14717646 30.07910156 2.36401367 Z " fill="#D85C11" transform="translate(295.0029296875,219.757080078125)"/>
<path d="M0 0 C1.65 0 3.3 0 5 0 C5 48.51 5 97.02 5 147 C3.02 147 1.04 147 -1 147 C-0.67 98.49 -0.34 49.98 0 0 Z " fill="#E65701" transform="translate(342,223)"/>
<path d="M0 0 C25.41 0 50.82 0 77 0 C77 16.5 77 33 77 50 C51.59 50 26.18 50 0 50 C0 49.67 0 49.34 0 49 C22.77 49 45.54 49 69 49 C69 33.16 69 17.32 69 1 C46.23 1 23.46 1 0 1 C0 0.67 0 0.34 0 0 Z " fill="#E8DDD6" transform="translate(189,225)"/>
<path d="M0 0 C18.81 0 37.62 0 57 0 C57 31.68 57 63.36 57 96 C56.67 96 56.34 96 56 96 C56 80.49 56 64.98 56 49 C55.34 49 54.68 49 54 49 C51.56241092 46.56241092 51.7360108 45.89665856 51.68115234 42.55029297 C51.66109131 41.61660889 51.64103027 40.6829248 51.62036133 39.72094727 C51.60900146 38.73795654 51.5976416 37.75496582 51.5859375 36.7421875 C51.56829346 35.83992432 51.55064941 34.93766113 51.5324707 34.00805664 C51.4693001 30.63055396 51.42318506 27.25274971 51.375 23.875 C51.25125 16.32625 51.1275 8.7775 51 1 C34.5 1 18 1 1 1 C1 32.35 1 63.7 1 96 C0.67 96 0.34 96 0 96 C0 64.32 0 32.64 0 0 Z " fill="#F0E5DA" transform="translate(132,129)"/>
<path d="M0 0 C7.27741752 -0.02541267 14.55482354 -0.04289324 21.83227539 -0.05493164 C24.3065636 -0.05995179 26.78084885 -0.06676926 29.25512695 -0.07543945 C32.81722748 -0.08760656 36.37928869 -0.09325159 39.94140625 -0.09765625 C41.04271378 -0.10281754 42.1440213 -0.10797882 43.27870178 -0.11329651 C44.31925217 -0.11337204 45.35980255 -0.11344757 46.43188477 -0.11352539 C47.79422997 -0.11685631 47.79422997 -0.11685631 49.18409729 -0.12025452 C52.47430547 0.02025545 55.73989131 0.53427019 59 1 C59 50.5 59 100 59 151 C56.68623162 147.52934744 56.75241684 146.22685752 56.75949097 142.13447571 C56.75674164 140.91029938 56.75399231 139.68612305 56.75115967 138.42485046 C56.75823792 137.06619165 56.76550754 135.70753382 56.77294922 134.34887695 C56.77351329 132.91988127 56.77319685 131.490885 56.77206421 130.06188965 C56.77148954 126.17990908 56.78326227 122.29805169 56.79721212 118.41609979 C56.80970049 114.36018511 56.81088849 110.30426773 56.81326294 106.24833679 C56.81948329 98.56668611 56.83590159 90.88509224 56.85596192 83.20346659 C56.87830368 74.45871044 56.88931001 65.71395161 56.89935279 56.96917403 C56.92026735 38.97941712 56.95545409 20.98971313 57 3 C55.02 3 53.04 3 51 3 C51 2.34 51 1.68 51 1 C34.17 1 17.34 1 0 1 C0 0.67 0 0.34 0 0 Z " fill="#85350B" transform="translate(290,220)"/>
<path d="M0 0 C0.33 0 0.66 0 1 0 C1.02505615 1.07483643 1.0501123 2.14967285 1.07592773 3.25708008 C1.17007495 7.24353022 1.27027785 11.22980909 1.37231445 15.21606445 C1.41563562 16.94160965 1.45731273 18.66719693 1.49731445 20.39282227 C1.55508526 22.87268764 1.61876003 25.35234172 1.68359375 27.83203125 C1.70030624 28.60400345 1.71701874 29.37597565 1.73423767 30.17134094 C1.82227895 33.35182933 1.98745195 35.96235584 3 39 C3.66 39 4.32 39 5 39 C5 54.51 5 70.02 5 86 C3.02 86.495 3.02 86.495 1 87 C-0.19548443 83.4135467 -0.18375126 80.1146736 -0.22119141 76.37915039 C-0.2326973 75.60485184 -0.24420319 74.83055328 -0.25605774 74.03279114 C-0.29276394 71.47111984 -0.32240159 68.90942376 -0.3515625 66.34765625 C-0.37467985 64.56790318 -0.3980702 62.78815364 -0.42172241 61.00840759 C-0.47018137 57.27687676 -0.51510961 53.54532393 -0.55761719 49.8137207 C-0.61241363 45.03077428 -0.67625757 40.24799908 -0.74279213 35.46520329 C-0.79287629 31.78926347 -0.83799674 28.11327545 -0.88163376 24.43725395 C-0.90319676 22.67378187 -0.92634367 20.91032842 -0.9510994 19.14689827 C-0.98499757 16.68137549 -1.01217656 14.21586694 -1.03759766 11.75024414 C-1.04897263 11.0212793 -1.0603476 10.29231445 -1.07206726 9.54125977 C-1.09971548 6.20876647 -1.04568615 3.18467126 0 0 Z " fill="#FDF1EB" transform="translate(183,139)"/>
<path d="M0 0 C1.32 0 2.64 0 4 0 C3.67 1.65 3.34 3.3 3 5 C2.01 5 1.02 5 0 5 C0 3.35 0 1.7 0 0 Z " fill="#F9F0EB" transform="translate(184,275)"/>
</svg>
